{
classes = (
{
automatic = 1;
code = "A Aacute Abreve Acircumflex Adieresis Agrave Amacron Aogonek Aring Atilde AE AEacute B C Cacute Ccaron Ccedilla Ccircumflex Cdotaccent D Eth Dcaron Dcroat E Eacute Ebreve Ecaron Ecircumflex Edieresis Edotaccent Egrave Emacron Eogonek F G Gbreve Gcaron Gcircumflex Gdotaccent H Hbar Hcircumflex I IJ Iacute Icircumflex Idieresis Idotaccent Igrave Imacron Iogonek Itilde J Jcircumflex K L Lacute Lcaron Ldot Lslash M N Nacute Ncaron Ntilde O Oacute Ocircumflex Odieresis Ograve Ohorn Ohungarumlaut Omacron Oslash Otilde OE P Thorn Q R Racute Rcaron S Sacute Scaron Scircumflex uni1E9E uni018F T Tcaron U Uacute Ubreve Ucircumflex Udieresis Ugrave Uhorn Uhungarumlaut Umacron Uogonek Uring Utilde V W Wacute Wcircumflex Wdieresis Wgrave X Y Yacute Ycircumflex Ydieresis Ygrave Z Zacute Zcaron Zdotaccent uni0122 uni012C uni0136 uni013B uni0145 uni014E uni0156 uni015E uni0162 uni01C4 uni01C5 uni01C7 uni01C8 uni01CA uni01CB uni01CD uni01CF uni01D1 uni01D3 uni01D5 uni01D7 uni01D9 uni01DB uni01EA uni01F1 uni01F2 uni0218 uni021A uni0243 uni1E02 uni1E0A uni1E0C uni1E0E uni1E1E uni1E20 uni1E24 uni1E2A uni1E36 uni1E38 uni1E3A uni1E40 uni1E42 uni1E44 uni1E46 uni1E48 uni1E5A uni1E5C uni1E5E uni1E60 uni1E62 uni1E6C uni1E6E uni1E8E uni1E92 uni1EA0 uni1EA2 uni1EA4 uni1EA6 uni1EA8 uni1EAA uni1EAC uni1EAE uni1EB0 uni1EB2 uni1EB4 uni1EB6 uni1EB8 uni1EBA uni1EBC uni1EBE uni1EC0 uni1EC2 uni1EC4 uni1EC6 uni1EC8 uni1ECA uni1ECC uni1ECE uni1ED0 uni1ED2 uni1ED4 uni1ED6 uni1ED8 uni1EDA uni1EDC uni1EDE uni1EE0 uni1EE2 uni1EE4 uni1EE6 uni1EE8 uni1EEA uni1EEC uni1EEE uni1EF0 uni1EF4 uni1EF6 uni1EF8 I.a Iacute.a uni01CF.a Icircumflex.a Idieresis.a Idotaccent.a uni1ECA.a Igrave.a uni1EC8.a Imacron.a Iogonek.a Itilde.a";
name = Uppercase;
},
{
automatic = 1;
code = "iMatra-deva iMatra-deva.0 iMatra-deva.01 iMatra-deva.02 iMatra-deva.03 iMatra-deva.05 iMatra-deva.08 iMatra-deva.10 iMatra-deva.15 iMatra-deva.20 iMatra-deva.25 iMatra-deva.30 iMatra-deva.35";

glyphs = (
{
color = (255,153,153,1);
glyphname = A;
lastChange = "2015-01-16 19:41:48 +0000";
layers = (
{
anchors = (
{
name = top;
position = "{543, 1050}";
}
);
hints = (
{
horizontal = 1;
origin = "{0, 0}";
target = "{0, 0}";
type = Tag;
name = hr00;
}
);
layerId = "F1FC1B3B-4EE8-4ECF-8776-11160932002C";
name = Light;
paths = (
{
closed = 1;
nodes = (
"323 545 LINE",
"398 770 LINE",
"448 923 OFFCURVE",
"493 1068 OFFCURVE",
"537 1228 CURVE",
"546 1228 LINE",
"590 1068 OFFCURVE",
"636 923 OFFCURVE",
"685 770 CURVE SMOOTH",
"758 545 LINE"
);
},
{
closed = 1;
nodes = (
"935 0 LINE",
"1083 0 LINE",
"620 1346 LINE",
"467 1346 LINE",
"3 0 LINE",
"145 0 LINE",
"286 432 LINE",
"795 432 LINE"
);
}
);
width = 1086;
}
);
unicode = 0041;
userData = {
com.adobe.type.autohint = "ICA8aGludFNldExpc3Q+CiAgICA8aGludHNldCBw";
com.typemytype.robofont.mark = (
1,
0.6,
0.6,
1
);
};
},
{
glyphname = Aogonek;
lastChange = "2015-01-16 19:41:48 +0000";
layers = (
{
hints = (
{
horizontal = 1;
origin = "{0, 0}";
target = "{0, 0}";
type = Tag;
name = hr00;
}
);
layerId = "F1FC1B3B-4EE8-4ECF-8776-11160932002C";
name = Light;
paths = (
{
closed = 1;
nodes = (
"323 545 LINE",
"398 770 LINE",
"448 923 OFFCURVE",
"493 1068 OFFCURVE",
"537 1228 CURVE",
"546 1228 LINE",
"590 1068 OFFCURVE",
"636 923 OFFCURVE",
"685 770 CURVE SMOOTH",
"758 545 LINE"
);
},
{
closed = 1;
nodes = (
"1108 -297 LINE",
"1083 -317 OFFCURVE",
"1057 -326 OFFCURVE",
"1021 -326 CURVE SMOOTH",
"972 -326 OFFCURVE",
"924 -294 OFFCURVE",
"924 -227 CURVE SMOOTH",
"924 -142 OFFCURVE",
"992 -46 OFFCURVE",
"1083 0 CURVE",
"620 1346 LINE",
"467 1346 LINE",
"3 0 LINE",
"145 0 LINE",
"286 432 LINE",
"795 432 LINE",
"935 0 LINE",
"964 0 LINE",
"891 -49 OFFCURVE",
"813 -147 OFFCURVE",
"813 -254 CURVE SMOOTH",
"813 -370 OFFCURVE",
"895 -428 OFFCURVE",
"998 -428 CURVE SMOOTH",
"1049 -428 OFFCURVE",
"1114 -403 OFFCURVE",
"1150 -375 CURVE"
);
}
);
width = 1086;
}
);
unicode = 0104;
userData = {
com.adobe.type.autohint = "ICA8aGludFNldExpc3Q+CiAgICA8aGludHNldCBw";
};
},
{
color = (255,153,153,1);
glyphname = AE;
lastChange = "2015-01-16 19:41:48 +0000";
layers = (
{
anchors = (
{
name = top;
position = "{896, 1050}";
}
);
hints = (
{
horizontal = 1;
origin = "{0, 0}";
target = "{0, 0}";
type = Tag;
name = hr01;
},
{
horizontal = 1;
origin = "{0, 4}";
target = "{0, 0}";
type = Tag;
name = hr02;
},
{
horizontal = 1;
origin = "{1, 5}";
target = "{0, 0}";
type = Tag;
name = hr03;
}
);
layerId = "F1FC1B3B-4EE8-4ECF-8776-11160932002C";
name = Light;
paths = (
{
closed = 1;
nodes = (
"445 526 LINE",
"579 780 LINE",
"657 932 OFFCURVE",
"739 1085 OFFCURVE",
"816 1233 CURVE",
"824 1233 LINE",
"824 526 LINE"
);
},
{
closed = 1;
nodes = (
"963 119 LINE",
"963 651 LINE",
"1450 651 LINE",
"1450 770 LINE",
"963 770 LINE",
"963 1228 LINE",
"1549 1228 LINE",
"1549 1346 LINE",
"744 1346 LINE",
"22 0 LINE",
"165 0 LINE",
"384 413 LINE",
"824 413 LINE",
"824 0 LINE",
"1569 0 LINE",
"1569 119 LINE"
);
}
);
width = 1660;
}
);
unicode = 00C6;
userData = {
com.adobe.type.autohint = "ICA8aGludFNldExpc3Q+CiAgICA8aGludHNldCBw";
com.typemytype.robofont.mark = (
1,
0.6,
0.6,
1
);
};
},
{
color = (255,153,153,1);
glyphname = B;
lastChange = "2015-01-15 10:08:19 +0000";
layers = (
{
anchors = (
{
name = top;
position = "{567, 1050}";
}
);
layerId = "F1FC1B3B-4EE8-4ECF-8776-11160932002C";
name = Light;
paths = (
{
closed = 1;
nodes = (
"184 0 LINE",
"602 0 LINE",
"903 0 OFFCURVE",
"1103 131 OFFCURVE",
"1103 395 CURVE SMOOTH",
"1103 583 OFFCURVE",
"985 696 OFFCURVE",
"787 717 CURVE",
"787 725 LINE",
"956 762 OFFCURVE",
"1024 883 OFFCURVE",
"1024 1021 CURVE SMOOTH",
"1024 1255 OFFCURVE",
"846 1346 OFFCURVE",
"575 1346 CURVE SMOOTH",
"184 1346 LINE"
);
},
{
closed = 1;
nodes = (
"324 764 LINE",
"324 1234 LINE",
"551 1234 LINE",
"775 1234 OFFCURVE",
"886 1172 OFFCURVE",
"886 1013 CURVE SMOOTH",
"886 850 OFFCURVE",
"788 764 OFFCURVE",
"540 764 CURVE SMOOTH"
);
},
{
closed = 1;
nodes = (
"324 112 LINE",
"324 658 LINE",
"577 658 LINE",
"829 658 OFFCURVE",
"966 579 OFFCURVE",
"966 400 CURVE SMOOTH",
"966 202 OFFCURVE",
"822 112 OFFCURVE",
"577 112 CURVE SMOOTH"
);
}
);
width = 1184;
}
);
unicode = 0042;
userData = {
com.typemytype.robofont.mark = (
1,
0.6,
0.6,
1
);
};
},
{
color = (255,153,153,1);
glyphname = C;
lastChange = "2015-01-15 10:08:19 +0000";
layers = (
{
anchors = (
{
name = top;
position = "{679, 1050}";
}
);
layerId = "F1FC1B3B-4EE8-4ECF-8776-11160932002C";
name = Light;
paths = (
{
closed = 1;
nodes = (
"102 674 CURVE SMOOTH",
"102 231 OFFCURVE",
"343 -25 OFFCURVE",
"679 -25 CURVE SMOOTH",
"851 -25 OFFCURVE",
"981 46 OFFCURVE",
"1085 167 CURVE",
"1005 253 LINE",
"914 151 OFFCURVE",
"815 99 OFFCURVE",
"683 99 CURVE SMOOTH",
"413 99 OFFCURVE",
"246 318 OFFCURVE",
"246 678 CURVE SMOOTH",
"246 1035 OFFCURVE",
"419 1247 OFFCURVE",
"691 1247 CURVE SMOOTH",
"807 1247 OFFCURVE",
"901 1197 OFFCURVE",
"973 1119 CURVE",
"1053 1208 LINE",
"976 1294 OFFCURVE",
"849 1370 OFFCURVE",
"690 1370 CURVE SMOOTH",
"346 1370 OFFCURVE",
"102 1114 OFFCURVE"
);
}
);
width = 1152;
}
);
unicode = 0043;
userData = {
com.typemytype.robofont.mark = (
1,
0.6,
0.6,
1
);
};
},
{
glyphname = Ccedilla;
lastChange = "2015-01-16 19:41:48 +0000";
layers = (
{
hints = (
{
horizontal = 1;
origin = "{0, 0}";
target = "{0, 0}";
type = Tag;
name = hr00;
}
);
layerId = "F1FC1B3B-4EE8-4ECF-8776-11160932002C";
name = Light;
paths = (
{
closed = 1;
nodes = (
"1007 255 LINE",
"916 153 OFFCURVE",
"818 99 OFFCURVE",
"686 99 CURVE SMOOTH",
"416 99 OFFCURVE",
"246 324 OFFCURVE",
"246 677 CURVE SMOOTH",
"246 1028 OFFCURVE",
"422 1247 OFFCURVE",
"694 1247 CURVE SMOOTH",
"810 1247 OFFCURVE",
"901 1195 OFFCURVE",
"973 1117 CURVE",
"1053 1206 LINE",
"976 1292 OFFCURVE",
"852 1370 OFFCURVE",
"693 1370 CURVE SMOOTH",
"349 1370 OFFCURVE",
"102 1105 OFFCURVE",
"102 674 CURVE SMOOTH",
"102 254 OFFCURVE",
"331 -7 OFFCURVE",
"649 -24 CURVE",
"581 -153 LINE",
"663 -173 OFFCURVE",
"714 -200 OFFCURVE",
"714 -256 CURVE SMOOTH",
"714 -312 OFFCURVE",
"638 -342 OFFCURVE",
"529 -357 CURVE",
"544 -432 LINE",
"690 -417 OFFCURVE",
"825 -363 OFFCURVE",
"825 -250 CURVE SMOOTH",
"825 -166 OFFCURVE",
"769 -128 OFFCURVE",
"702 -106 CURVE",
"746 -21 LINE",
"886 -5 OFFCURVE",
"997 63 OFFCURVE",
"1087 169 CURVE"
);
}
);
width = 1152;
}
);
unicode = 00C7;
userData = {
com.adobe.type.autohint = "ICA8aGludFNldExpc3Q+CiAgICA8aGludHNldCBw";
};
},
{
color = (255,153,153,1);
glyphname = D;
lastChange = "2015-01-15 10:08:19 +0000";
layers = (
{
anchors = (
{
name = top;
position = "{559, 1050}";
}
);
layerId = "F1FC1B3B-4EE8-4ECF-8776-11160932002C";
name = Light;
paths = (
{
closed = 1;
nodes = (
"184 0 LINE",
"518 0 LINE",
"928 0 OFFCURVE",
"1136 252 OFFCURVE",
"1136 679 CURVE SMOOTH",
"1136 1104 OFFCURVE",
"934 1346 OFFCURVE",
"519 1346 CURVE SMOOTH",
"184 1346 LINE"
);
},
{
closed = 1;
nodes = (
"324 115 LINE",
"324 1231 LINE",
"508 1231 LINE",
"843 1231 OFFCURVE",
"992 1028 OFFCURVE",
"992 679 CURVE SMOOTH",
"992 330 OFFCURVE",
"838 115 OFFCURVE",
"502 115 CURVE SMOOTH"
);
}
);
width = 1242;
}
);
unicode = 0044;
userData = {
com.typemytype.robofont.mark = (
1,
0.6,
0.6,
1
);
};
},
{
color = (255,153,153,1);
glyphname = Eth;
lastChange = "2015-01-15 10:08:19 +0000";
layers = (
{
anchors = (
{
name = top;
position = "{619, 1050}";
}
);
layerId = "F1FC1B3B-4EE8-4ECF-8776-11160932002C";
name = Light;
paths = (
{
closed = 1;
nodes = (
"362 115 LINE",
"362 666 LINE",
"684 666 LINE",
"684 752 LINE",
"362 752 LINE",
"362 1231 LINE",
"537 1231 LINE",
"872 1231 OFFCURVE",
"1031 1022 OFFCURVE",
"1031 679 CURVE SMOOTH",
"1031 334 OFFCURVE",
"872 115 OFFCURVE",
"537 115 CURVE SMOOTH"
);
},
{
closed = 1;
nodes = (
"222 1346 LINE",
"222 752 LINE",
"64 744 LINE",
"64 666 LINE",
"222 666 LINE",
"222 0 LINE",
"554 0 LINE",
"963 0 OFFCURVE",
"1175 258 OFFCURVE",
"1175 679 CURVE SMOOTH",
"1175 1097 OFFCURVE",
"963 1346 OFFCURVE",
"548 1346 CURVE SMOOTH"
);
}
);
width = 1280;
}
);
unicode = 00D0;
userData = {
com.typemytype.robofont.mark = (
1,
0.6,
0.6,
1
);
};
},
{
color = (255,153,153,1);
glyphname = E;
lastChange = "2015-01-15 10:08:19 +0000";
layers = (
{
anchors = (
{
name = top;
position = "{574, 1050}";
}
);
layerId = "F1FC1B3B-4EE8-4ECF-8776-11160932002C";
name = Light;
paths = (
{
closed = 1;
nodes = (
"184 0 LINE",
"964 0 LINE",
"964 119 LINE",
"324 119 LINE",
"324 651 LINE",
"845 651 LINE",
"845 770 LINE",
"324 770 LINE",
"324 1228 LINE",
"943 1228 LINE",
"943 1346 LINE",
"184 1346 LINE"
);
}
);
width = 1056;
}
);
unicode = 0045;
userData = {
com.typemytype.robofont.mark = (
1,
0.6,
0.6,
1
);
};
},
{
glyphname = Eogonek;
lastChange = "2015-01-15 10:08:19 +0000";
layers = (
{
layerId = "F1FC1B3B-4EE8-4ECF-8776-11160932002C";
name = Light;
paths = (
{
closed = 1;
nodes = (
"184 0 LINE",
"808 0 LINE",
"730 -50 OFFCURVE",
"657 -144 OFFCURVE",
"657 -254 CURVE SMOOTH",
"657 -370 OFFCURVE",
"739 -428 OFFCURVE",
"843 -428 CURVE SMOOTH",
"894 -428 OFFCURVE",
"958 -403 OFFCURVE",
"994 -375 CURVE",
"952 -297 LINE",
"926 -317 OFFCURVE",
"902 -326 OFFCURVE",
"868 -326 CURVE SMOOTH",
"817 -326 OFFCURVE",
"767 -294 OFFCURVE",
"767 -227 CURVE SMOOTH",
"767 -114 OFFCURVE",
"866 -14 OFFCURVE",
"958 0 CURVE SMOOTH",
"964 0 LINE",
"964 119 LINE",
"324 119 LINE",
"324 651 LINE",
"845 651 LINE",
"845 770 LINE",
"324 770 LINE",
"324 1228 LINE",
"943 1228 LINE",
"943 1346 LINE",
"184 1346 LINE"
);
}
);
width = 1056;
}
);
unicode = 0118;
},
{
color = (255,153,153,1);
glyphname = F;
lastChange = "2015-01-15 10:08:19 +0000";
layers = (
{
anchors = (
{
name = top;
position = "{563, 1050}";
}
);
layerId = "F1FC1B3B-4EE8-4ECF-8776-11160932002C";
name = Light;
paths = (
{
closed = 1;
nodes = (
"184 0 LINE",
"324 0 LINE",
"324 621 LINE",
"848 621 LINE",
"848 739 LINE",
"324 739 LINE",
"324 1228 LINE",
"943 1228 LINE",
"943 1346 LINE",
"184 1346 LINE"
);
}
);
width = 985;
}
);
unicode = 0046;
userData = {
com.typemytype.robofont.mark = (
1,
0.6,
0.6,
1
);
};
},
{
color = (255,153,153,1);
glyphname = G;
lastChange = "2015-01-15 10:08:19 +0000";
layers = (
{
anchors = (
{
name = top;
position = "{702, 1050}";
}
);
layerId = "F1FC1B3B-4EE8-4ECF-8776-11160932002C";
name = Light;
paths = (
{
closed = 1;
nodes = (
"102 673 CURVE SMOOTH",
"102 227 OFFCURVE",
"346 -25 OFFCURVE",
"696 -25 CURVE SMOOTH",
"875 -25 OFFCURVE",
"1020 43 OFFCURVE",
"1106 130 CURVE",
"1106 683 LINE",
"683 683 LINE",
"683 567 LINE",
"978 567 LINE",
"978 188 LINE",
"919 132 OFFCURVE",
"817 99 OFFCURVE",
"710 99 CURVE SMOOTH",
"415 99 OFFCURVE",
"247 315 OFFCURVE",
"247 675 CURVE SMOOTH",
"247 1041 OFFCURVE",
"427 1247 OFFCURVE",
"714 1247 CURVE SMOOTH",
"854 1247 OFFCURVE",
"942 1196 OFFCURVE",
"1010 1123 CURVE",
"1091 1212 LINE",
"1014 1292 OFFCURVE",
"896 1370 OFFCURVE",
"713 1370 CURVE SMOOTH",
"354 1370 OFFCURVE",
"102 1124 OFFCURVE"
);
}
);
width = 1241;
}
);
unicode = 0047;
userData = {
com.typemytype.robofont.mark = (
1,
0.6,
0.6,
1
);
};
},
{
color = (255,153,153,1);
glyphname = H;
lastChange = "2015-01-15 10:08:19 +0000";
layers = (
{
anchors = (
{
name = top;
position = "{655, 1050}";
}
);
layerId = "F1FC1B3B-4EE8-4ECF-8776-11160932002C";
name = Light;
paths = (
{
closed = 1;
nodes = (
"184 0 LINE",
"324 0 LINE",
"324 651 LINE",
"989 651 LINE",
"989 0 LINE",
"1127 0 LINE",
"1127 1346 LINE",
"989 1346 LINE",
"989 771 LINE",
"324 771 LINE",
"324 1346 LINE",
"184 1346 LINE"
);
}
);
width = 1312;
}
);
unicode = 0048;
userData = {
com.typemytype.robofont.mark = (
1,
0.6,
0.6,
1
);
};
},
{
glyphname = Hbar;
lastChange = "2015-01-16 19:41:48 +0000";
layers = (
{
hints = (
{
horizontal = 1;
origin = "{0, 0}";
target = "{0, 0}";
type = Tag;
name = hr00;
}
);
layerId = "F1FC1B3B-4EE8-4ECF-8776-11160932002C";
name = Light;
paths = (
{
closed = 1;
nodes = (
"1022 771 LINE",
"358 771 LINE",
"358 1010 LINE",
"1022 1010 LINE"
);
},
{
closed = 1;
nodes = (
"1318 1095 LINE",
"1163 1095 LINE",
"1163 1346 LINE",
"1022 1346 LINE",
"1022 1095 LINE",
"358 1095 LINE",
"358 1346 LINE",
"219 1346 LINE",
"219 1095 LINE",
"64 1085 LINE",
"64 1010 LINE",
"219 1010 LINE",
"219 0 LINE",
"358 0 LINE",
"358 651 LINE",
"1022 651 LINE",
"1022 0 LINE",
"1163 0 LINE",
"1163 1010 LINE",
"1318 1010 LINE"
);
}
);
width = 1382;
}
);
unicode = 0126;
userData = {
com.adobe.type.autohint = "ICA8aGludFNldExpc3Q+CiAgICA8aGludHNldCBw";
};
},
{
color = (255,153,153,1);
glyphname = I;
lastChange = "2015-01-15 10:08:19 +0000";
layers = (
{
anchors = (
{
name = top;
position = "{254, 1050}";
}
);
layerId = "F1FC1B3B-4EE8-4ECF-8776-11160932002C";
name = Light;
paths = (
{
closed = 1;
nodes = (
"184 0 LINE",
"324 0 LINE",
"324 1346 LINE",
"184 1346 LINE"
);
}
);
width = 507;
}
);
unicode = 0049;
userData = {
com.typemytype.robofont.mark = (
1,
0.6,
0.6,
1
);
};
},
{
glyphname = Iogonek;
lastChange = "2015-01-15 10:08:19 +0000";
layers = (
{
layerId = "F1FC1B3B-4EE8-4ECF-8776-11160932002C";
name = Light;
paths = (
{
closed = 1;
nodes = (
"184 0 LINE",
"215 0 LINE",
"149 -64 OFFCURVE",
"83 -140 OFFCURVE",
"83 -254 CURVE SMOOTH",
"83 -370 OFFCURVE",
"166 -428 OFFCURVE",
"269 -428 CURVE SMOOTH",
"320 -428 OFFCURVE",
"384 -403 OFFCURVE",
"420 -375 CURVE",
"378 -297 LINE",
"353 -317 OFFCURVE",
"328 -326 OFFCURVE",
"294 -326 CURVE SMOOTH",
"244 -326 OFFCURVE",
"194 -294 OFFCURVE",
"194 -227 CURVE SMOOTH",
"194 -140 OFFCURVE",
"244 -71 OFFCURVE",
"324 0 CURVE",
"324 1346 LINE",
"184 1346 LINE"
);
}
);
width = 507;
}
);
unicode = 012E;
},
{
color = (255,153,153,1);
glyphname = J;
lastChange = "2015-01-16 19:41:48 +0000";
layers = (
{
anchors = (
{
name = top;
position = "{706, 1050}";
}
);
hints = (
{
horizontal = 1;
origin = "{0, 0}";
target = "{0, 0}";
type = Tag;
name = hr00;
}
);
layerId = "F1FC1B3B-4EE8-4ECF-8776-11160932002C";
name = Light;
paths = (
{
closed = 1;
nodes = (
"66 183 LINE",
"140 48 OFFCURVE",
"260 -25 OFFCURVE",
"422 -25 CURVE SMOOTH",
"678 -25 OFFCURVE",
"777 152 OFFCURVE",
"777 378 CURVE SMOOTH",
"777 1346 LINE",
"638 1346 LINE",
"638 392 LINE",
"638 181 OFFCURVE",
"565 99 OFFCURVE",
"413 99 CURVE SMOOTH",
"310 99 OFFCURVE",
"231 144 OFFCURVE",
"166 253 CURVE"
);
}
);
width = 955;
}
);
unicode = 004A;
userData = {
com.adobe.type.autohint = "ICA8aGludFNldExpc3Q+CiAgICA8aGludHNldCBw";
com.typemytype.robofont.mark = (
1,
0.6,
0.6,
1
);
};
},
{
color = (255,153,153,1);
glyphname = K;
lastChange = "2015-01-15 10:08:19 +0000";
layers = (
{
anchors = (
{
name = top;
position = "{535, 1050}";
}
);
layerId = "F1FC1B3B-4EE8-4ECF-8776-11160932002C";
name = Light;
paths = (
{
closed = 1;
nodes = (
"184 0 LINE",
"324 0 LINE",
"324 442 LINE",
"572 731 LINE",
"991 0 LINE",
"1148 0 LINE",
"661 839 LINE",
"1086 1346 LINE",
"926 1346 LINE",
"328 641 LINE",
"324 641 LINE",
"324 1346 LINE",
"184 1346 LINE"
);
}
);
width = 1156;
}
);
unicode = 004B;
userData = {
com.typemytype.robofont.mark = (
1,
0.6,
0.6,
1
);
};
},
{
color = (255,153,153,1);
glyphname = L;
lastChange = "2015-01-15 10:08:19 +0000";
layers = (
{
anchors = (
{
name = top;
position = "{554, 1050}";
}
);
layerId = "F1FC1B3B-4EE8-4ECF-8776-11160932002C";
name = Light;
paths = (
{
closed = 1;
nodes = (
"184 0 LINE",
"924 0 LINE",
"924 119 LINE",
"324 119 LINE",
"324 1346 LINE",
"184 1346 LINE"
);
}
);
width = 967;
}
);
unicode = 004C;
userData = {
com.typemytype.robofont.mark = (
1,
0.6,
0.6,
1
);
};
},
{
glyphname = Lslash;
lastChange = "2015-01-16 19:41:48 +0000";
layers = (
{
hints = (
{
horizontal = 1;
origin = "{0, 0}";
target = "{0, 0}";
type = Tag;
name = hr00;
}
);
layerId = "F1FC1B3B-4EE8-4ECF-8776-11160932002C";
name = Light;
paths = (
{
closed = 1;
nodes = (
"328 119 LINE",
"328 566 LINE",
"720 774 LINE",
"720 889 LINE",
"328 681 LINE",
"328 1346 LINE",
"188 1346 LINE",
"188 612 LINE",
"20 526 LINE",
"20 411 LINE",
"188 497 LINE",
"188 0 LINE",
"928 0 LINE",
"928 119 LINE"
);
}
);
width = 972;
}
);
unicode = 0141;
userData = {
com.adobe.type.autohint = "ICA8aGludFNldExpc3Q+CiAgICA8aGludHNldCBw";
};
},
{
color = (255,153,153,1);
glyphname = M;
lastChange = "2015-01-15 10:08:19 +0000";
layers = (
{
anchors = (
{
name = top;
position = "{729, 1050}";
}
);
layerId = "F1FC1B3B-4EE8-4ECF-8776-11160932002C";
name = Light;
paths = (
{
closed = 1;
nodes = (
"178 0 LINE",
"307 0 LINE",
"307 800 LINE",
"307 915 OFFCURVE",
"303 1068 OFFCURVE",
"296 1184 CURVE",
"304 1184 LINE",
"411 886 LINE",
"682 140 LINE",
"774 140 LINE",
"1044 886 LINE",
"1150 1184 LINE",
"1158 1184 LINE",
"1151 1068 OFFCURVE",
"1146 915 OFFCURVE",
"1146 800 CURVE SMOOTH",
"1148 0 LINE",
"1280 0 LINE",
"1267 1346 LINE",
"1100 1346 LINE",
"834 596 LINE",
"735 311 LINE",
"727 311 LINE",
"627 596 LINE",
"358 1346 LINE",
"190 1346 LINE"
);
}
);
width = 1460;
}
);
unicode = 004D;
userData = {
com.typemytype.robofont.mark = (
1,
0.6,
0.6,
1
);
};
},
{
color = (255,153,153,1);
glyphname = N;
lastChange = "2015-01-15 10:08:19 +0000";
layers = (
{
anchors = (
{
name = top;
position = "{651, 1050}";
}
);
layerId = "F1FC1B3B-4EE8-4ECF-8776-11160932002C";
name = Light;
paths = (
{
closed = 1;
nodes = (
"184 0 LINE",
"316 0 LINE",
"316 758 LINE",
"316 895 OFFCURVE",
"306 1030 OFFCURVE",
"298 1163 CURVE",
"307 1163 LINE",
"455 889 LINE",
"974 0 LINE",
"1119 0 LINE",
"1119 1346 LINE",
"987 1346 LINE",
"987 597 LINE",
"987 460 OFFCURVE",
"998 317 OFFCURVE",
"1005 183 CURVE",
"997 183 LINE",
"849 458 LINE",
"328 1346 LINE",
"184 1346 LINE"
);
}
);
width = 1304;
}
);
unicode = 004E;
userData = {
com.typemytype.robofont.mark = (
1,
0.6,
0.6,
1
);
};
},
{
color = (255,153,153,1);
glyphname = O;
lastChange = "2015-01-18 15:18:47 +0000";
layers = (
{
anchors = (
{
name = bottom;
position = "{695, -10}";
},
{
name = top;
position = "{668, 1050}";
}
);
layerId = "F1FC1B3B-4EE8-4ECF-8776-11160932002C";
name = Light;
paths = (
{
closed = 1;
nodes = (
"668 -25 CURVE SMOOTH",
"1007 -25 OFFCURVE",
"1235 238 OFFCURVE",
"1235 676 CURVE SMOOTH",
"1235 1112 OFFCURVE",
"1007 1370 OFFCURVE",
"668 1370 CURVE SMOOTH",
"328 1370 OFFCURVE",
"102 1113 OFFCURVE",
"102 676 CURVE SMOOTH",
"102 238 OFFCURVE",
"328 -25 OFFCURVE"
);
},
{
closed = 1;
nodes = (
"668 99 CURVE SMOOTH",
"407 99 OFFCURVE",
"246 318 OFFCURVE",
"246 676 CURVE SMOOTH",
"246 1033 OFFCURVE",
"407 1247 OFFCURVE",
"668 1247 CURVE SMOOTH",
"927 1247 OFFCURVE",
"1091 1033 OFFCURVE",
"1091 676 CURVE SMOOTH",
"1091 318 OFFCURVE",
"927 99 OFFCURVE"
);
}
);
width = 1338;
}
);
unicode = 004F;
userData = {
com.typemytype.robofont.mark = (
1,
0.6,
0.6,
1
);
};
},
{
glyphname = Ohorn;
lastChange = "2015-01-16 19:41:48 +0000";
layers = (
{
hints = (
{
horizontal = 1;
origin = "{0, 0}";
target = "{0, 0}";
type = Tag;
name = hr01;
},
{
horizontal = 1;
origin = "{1, 0}";
target = "{0, 0}";
type = Tag;
name = hr02;
},
{
horizontal = 1;
origin = "{1, 18}";
target = "{0, 0}";
type = Tag;
name = hr03;
},
{
horizontal = 1;
origin = "{1, 24}";
target = "{0, 0}";
type = Tag;
name = hr04;
}
);
layerId = "F1FC1B3B-4EE8-4ECF-8776-11160932002C";
name = Light;
paths = (
{
closed = 1;
nodes = (
"670 99 CURVE SMOOTH",
"415 99 OFFCURVE",
"246 327 OFFCURVE",
"246 679 CURVE SMOOTH",
"246 1029 OFFCURVE",
"415 1247 OFFCURVE",
"670 1247 CURVE SMOOTH",
"923 1247 OFFCURVE",
"1091 1029 OFFCURVE",
"1091 679 CURVE SMOOTH",
"1091 327 OFFCURVE",
"923 99 OFFCURVE"
);
},
{
closed = 1;
nodes = (
"1080 1526 LINE",
"1098 1499 OFFCURVE",
"1109 1473 OFFCURVE",
"1109 1444 CURVE SMOOTH",
"1109 1367 OFFCURVE",
"1053 1325 OFFCURVE",
"931 1305 CURVE",
"855 1348 OFFCURVE",
"767 1370 OFFCURVE",
"670 1370 CURVE SMOOTH",
"337 1370 OFFCURVE",
"102 1107 OFFCURVE",
"102 679 CURVE SMOOTH",
"102 248 OFFCURVE",
"337 -25 OFFCURVE",
"670 -25 CURVE SMOOTH",
"1001 -25 OFFCURVE",
"1236 248 OFFCURVE",
"1236 679 CURVE SMOOTH",
"1236 931 OFFCURVE",
"1153 1126 OFFCURVE",
"1019 1244 CURVE",
"1145 1274 OFFCURVE",
"1224 1339 OFFCURVE",
"1224 1452 CURVE SMOOTH",
"1224 1499 OFFCURVE",
"1207 1540 OFFCURVE",
"1181 1577 CURVE"
);
}
);
width = 1338;
}
);
unicode = 01A0;
userData = {
com.adobe.type.autohint = "ICA8aGludFNldExpc3Q+CiAgICA8aGludHNldCBw";
};
},
{
glyphname = Oslash;
lastChange = "2015-01-16 19:41:48 +0000";
layers = (
{
hints = (
{
horizontal = 1;
origin = "{0, 0}";
target = "{0, 0}";
type = Tag;
name = hr00;
}
);
layerId = "F1FC1B3B-4EE8-4ECF-8776-11160932002C";
name = Light;
paths = (
{
closed = 1;
nodes = (
"1011 1038 LINE",
"1063 945 OFFCURVE",
"1091 823 OFFCURVE",
"1091 679 CURVE SMOOTH",
"1091 327 OFFCURVE",
"923 99 OFFCURVE",
"670 99 CURVE SMOOTH",
"558 99 OFFCURVE",
"462 143 OFFCURVE",
"392 221 CURVE"
);
},
{
closed = 1;
nodes = (
"330 308 LINE",
"276 404 OFFCURVE",
"246 531 OFFCURVE",
"246 679 CURVE SMOOTH",
"246 1029 OFFCURVE",
"415 1247 OFFCURVE",
"670 1247 CURVE SMOOTH",
"782 1247 OFFCURVE",
"879 1204 OFFCURVE",
"951 1124 CURVE"
);
},
{
closed = 1;
nodes = (
"1242 1341 LINE",
"1161 1402 LINE",
"1033 1232 LINE",
"937 1321 OFFCURVE",
"812 1370 OFFCURVE",
"670 1370 CURVE SMOOTH",
"337 1370 OFFCURVE",
"102 1107 OFFCURVE",
"102 679 CURVE SMOOTH",
"102 478 OFFCURVE",
"153 312 OFFCURVE",
"241 192 CURVE",
"100 6 LINE",
"182 -55 LINE",
"310 113 LINE",
"406 24 OFFCURVE",
"529 -25 OFFCURVE",
"670 -25 CURVE SMOOTH",
"1001 -25 OFFCURVE",
"1236 248 OFFCURVE",
"1236 679 CURVE SMOOTH",
"1236 875 OFFCURVE",
"1186 1037 OFFCURVE",
"1100 1155 CURVE"
);
}
);
width = 1338;
}
);
unicode = 00D8;
userData = {
com.adobe.type.autohint = "ICA8aGludFNldExpc3Q+CiAgICA8aGludHNldCBw";
};
},
{
color = (255,153,153,1);
glyphname = OE;
lastChange = "2015-01-15 10:08:19 +0000";
layers = (
{
anchors = (
{
name = top;
position = "{860, 1050}";
}
);
layerId = "F1FC1B3B-4EE8-4ECF-8776-11160932002C";
name = Light;
paths = (
{
closed = 1;
nodes = (
"102 679 CURVE SMOOTH",
"102 258 OFFCURVE",
"333 0 OFFCURVE",
"747 0 CURVE SMOOTH",
"1619 0 LINE",
"1619 119 LINE",
"1014 119 LINE",
"1014 651 LINE",
"1501 651 LINE",
"1501 770 LINE",
"1014 770 LINE",
"1014 1228 LINE",
"1599 1228 LINE",
"1599 1346 LINE",
"753 1346 LINE",
"333 1346 OFFCURVE",
"102 1097 OFFCURVE"
);
},
{
closed = 1;
nodes = (
"246 679 CURVE SMOOTH",
"246 1024 OFFCURVE",
"419 1231 OFFCURVE",
"764 1231 CURVE SMOOTH",
"874 1231 LINE",
"874 115 LINE",
"764 115 LINE",
"419 115 OFFCURVE",
"246 333 OFFCURVE"
);
}
);
width = 1711;
}
);
unicode = 0152;
userData = {
com.typemytype.robofont.mark = (
1,
0.6,
0.6,
1
);
};
},
{
color = (255,153,153,1);
glyphname = P;
lastChange = "2015-01-15 10:08:19 +0000";
layers = (
{
anchors = (
{
name = top;
position = "{550, 1050}";
}
);
layerId = "F1FC1B3B-4EE8-4ECF-8776-11160932002C";
name = Light;
paths = (
{
closed = 1;
nodes = (
"184 0 LINE",
"324 0 LINE",
"324 540 LINE",
"587 540 LINE",
"888 540 OFFCURVE",
"1068 679 OFFCURVE",
"1068 954 CURVE SMOOTH",
"1068 1242 OFFCURVE",
"890 1346 OFFCURVE",
"585 1346 CURVE SMOOTH",
"184 1346 LINE"
);
},
{
closed = 1;
nodes = (
"324 655 LINE",
"324 1232 LINE",
"562 1232 LINE",
"817 1232 OFFCURVE",
"929 1162 OFFCURVE",
"929 954 CURVE SMOOTH",
"929 751 OFFCURVE",
"822 655 OFFCURVE",
"564 655 CURVE SMOOTH"
);
}
);
width = 1152;
}
);
unicode = 0050;
userData = {
com.typemytype.robofont.mark = (
1,
0.6,
0.6,
1
);
};
},
{
color = (255,153,153,1);
glyphname = Thorn;
lastChange = "2015-01-15 10:08:19 +0000";
layers = (
{
anchors = (
{
name = top;
position = "{628, 1050}";
}
);
layerId = "F1FC1B3B-4EE8-4ECF-8776-11160932002C";
name = Light;
paths = (
{
closed = 1;
nodes = (
"187 0 LINE",
"325 0 LINE",
"325 321 LINE",
"580 321 LINE",
"878 321 OFFCURVE",
"1070 451 OFFCURVE",
"1070 727 CURVE SMOOTH",
"1070 1014 OFFCURVE",
"879 1115 OFFCURVE",
"580 1115 CURVE SMOOTH",
"325 1115 LINE",
"325 1346 LINE",
"187 1346 LINE"
);
},
{
closed = 1;
nodes = (
"325 435 LINE",
"325 1000 LINE",
"558 1000 LINE",
"808 1000 OFFCURVE",
"930 933 OFFCURVE",
"930 727 CURVE SMOOTH",
"930 523 OFFCURVE",
"809 435 OFFCURVE",
"558 435 CURVE SMOOTH"
);
}
);
width = 1176;
}
);
unicode = 00DE;
userData = {
com.typemytype.robofont.mark = (
1,
0.6,
0.6,
1
);
};
},
{
color = (255,153,153,1);
glyphname = Q;
lastChange = "2015-01-15 10:08:19 +0000";
layers = (
{
anchors = (
{
name = top;
position = "{676, 1050}";
}
);
layerId = "F1FC1B3B-4EE8-4ECF-8776-11160932002C";
name = Light;
paths = (
{
closed = 1;
nodes = (
"245 679 CURVE SMOOTH",
"245 1034 OFFCURVE",
"407 1247 OFFCURVE",
"666 1247 CURVE SMOOTH",
"925 1247 OFFCURVE",
"1088 1034 OFFCURVE",
"1088 679 CURVE SMOOTH",
"1088 322 OFFCURVE",
"925 99 OFFCURVE",
"666 99 CURVE SMOOTH",
"407 99 OFFCURVE",
"245 322 OFFCURVE"
);
},
{
closed = 1;
nodes = (
"1225 -189 LINE",
"1189 -199 OFFCURVE",
"1140 -209 OFFCURVE",
"1080 -209 CURVE SMOOTH",
"925 -209 OFFCURVE",
"797 -144 OFFCURVE",
"747 -19 CURVE",
"1038 22 OFFCURVE",
"1235 278 OFFCURVE",
"1235 679 CURVE SMOOTH",
"1235 1112 OFFCURVE",
"1006 1370 OFFCURVE",
"666 1370 CURVE SMOOTH",
"327 1370 OFFCURVE",
"100 1114 OFFCURVE",
"100 679 CURVE SMOOTH",
"100 274 OFFCURVE",
"302 16 OFFCURVE",
"595 -20 CURVE",
"663 -199 OFFCURVE",
"826 -328 OFFCURVE",
"1066 -328 CURVE SMOOTH",
"1140 -328 OFFCURVE",
"1215 -313 OFFCURVE",
"1253 -301 CURVE"
);
}
);
width = 1338;
}
);
unicode = 0051;
userData = {
com.typemytype.robofont.mark = (
1,
0.6,
0.6,
1
);
};
},
{
color = (255,153,153,1);
glyphname = R;
lastChange = "2015-01-15 10:08:19 +0000";
layers = (
{
anchors = (
{
name = top;
position = "{561, 1050}";
}
);
layerId = "F1FC1B3B-4EE8-4ECF-8776-11160932002C";
name = Light;
paths = (
{
closed = 1;
nodes = (
"324 1232 LINE",
"575 1232 LINE",
"797 1232 OFFCURVE",
"909 1172 OFFCURVE",
"909 979 CURVE SMOOTH",
"909 784 OFFCURVE",
"797 703 OFFCURVE",
"575 703 CURVE SMOOTH",
"324 703 LINE"
);
},
{
closed = 1;
nodes = (
"1084 0 LINE",
"736 603 LINE",
"930 642 OFFCURVE",
"1050 756 OFFCURVE",
"1050 979 CURVE SMOOTH",
"1050 1255 OFFCURVE",
"870 1346 OFFCURVE",
"600 1346 CURVE SMOOTH",
"184 1346 LINE",
"184 0 LINE",
"324 0 LINE",
"324 589 LINE",
"590 589 LINE",
"924 0 LINE"
);
}
);
width = 1161;
}
);
unicode = 0052;
userData = {
com.typemytype.robofont.mark = (
1,
0.6,
0.6,
1
);
};
},
{
color = (255,153,153,1);
glyphname = S;
lastChange = "2015-01-18 15:15:38 +0000";
layers = (
{
anchors = (
{
name = bottom;
position = "{551, 0}";
},
{
name = top;
position = "{563, 1050}";
}
);
layerId = "F1FC1B3B-4EE8-4ECF-8776-11160932002C";
name = Light;
paths = (
{
closed = 1;
nodes = (
"87 170 LINE",
"200 50 OFFCURVE",
"355 -25 OFFCURVE",
"548 -25 CURVE SMOOTH",
"822 -25 OFFCURVE",
"996 137 OFFCURVE",
"996 348 CURVE SMOOTH",
"996 550 OFFCURVE",
"865 641 OFFCURVE",
"711 708 CURVE SMOOTH",
"514 794 LINE",
"412 839 OFFCURVE",
"289 898 OFFCURVE",
"289 1038 CURVE SMOOTH",
"289 1170 OFFCURVE",
"400 1247 OFFCURVE",
"562 1247 CURVE SMOOTH",
"690 1247 OFFCURVE",
"791 1201 OFFCURVE",
"871 1121 CURVE",
"947 1212 LINE",
"858 1306 OFFCURVE",
"723 1370 OFFCURVE",
"562 1370 CURVE SMOOTH",
"327 1370 OFFCURVE",
"149 1231 OFFCURVE",
"149 1030 CURVE SMOOTH",
"149 832 OFFCURVE",
"297 735 OFFCURVE",
"419 683 CURVE SMOOTH",
"616 595 LINE",
"746 537 OFFCURVE",
"854 487 OFFCURVE",
"854 337 CURVE SMOOTH",
"854 194 OFFCURVE",
"739 99 OFFCURVE",
"551 99 CURVE SMOOTH",
"403 99 OFFCURVE",
"269 162 OFFCURVE",
"171 267 CURVE"
);
}
);
width = 1071;
}
);
unicode = 0053;
userData = {
com.typemytype.robofont.mark = (
1,
0.6,
0.6,
1
);
};
},
{
color = (255,153,153,1);
glyphname = uni1E9E;
lastChange = "2015-01-15 10:08:19 +0000";
layers = (
{
anchors = (
{
name = top;
position = "{719, 1050}";
}
);
layerId = "F1FC1B3B-4EE8-4ECF-8776-11160932002C";
name = Light;
paths = (
{
closed = 1;
nodes = (
"187 0 LINE",
"325 0 LINE",
"325 829 LINE",
"325 1121 OFFCURVE",
"466 1253 OFFCURVE",
"693 1253 CURVE SMOOTH",
"837 1253 OFFCURVE",
"929 1173 OFFCURVE",
"977 1074 CURVE",
"683 746 LINE",
"692 652 LINE",
"1027 597 OFFCURVE",
"1106 484 OFFCURVE",
"1106 346 CURVE SMOOTH",
"1106 200 OFFCURVE",
"1015 94 OFFCURVE",
"858 94 CURVE SMOOTH",
"751 94 OFFCURVE",
"665 135 OFFCURVE",
"583 226 CURVE",
"501 133 LINE",
"585 37 OFFCURVE",
"717 -25 OFFCURVE",
"868 -25 CURVE SMOOTH",
"1095 -25 OFFCURVE",
"1251 135 OFFCURVE",
"1251 347 CURVE SMOOTH",
"1251 540 OFFCURVE",
"1135 686 OFFCURVE",
"830 742 CURVE",
"1128 1069 LINE",
"1051 1251 OFFCURVE",
"917 1370 OFFCURVE",
"698 1370 CURVE SMOOTH",
"354 1370 OFFCURVE",
"187 1149 OFFCURVE",
"187 858 CURVE SMOOTH"
);
}
);
width = 1335;
}
);
unicode = 1E9E;
userData = {
com.typemytype.robofont.mark = (
1,
0.6,
0.6,
1
);
};
},
{
color = (167,255,153,1);
glyphname = uni018F;
lastChange = "2015-01-15 10:08:19 +0000";
layers = (
{
layerId = "F1FC1B3B-4EE8-4ECF-8776-11160932002C";
name = Light;
paths = (
{
closed = 1;
nodes = (
"1097 597 LINE",
"1073 290 OFFCURVE",
"908 95 OFFCURVE",
"673 95 CURVE SMOOTH",
"447 95 OFFCURVE",
"289 288 OFFCURVE",
"271 597 CURVE"
);
},
{
closed = 1;
nodes = (
"337 1120 LINE",
"419 1198 OFFCURVE",
"538 1251 OFFCURVE",
"674 1251 CURVE SMOOTH",
"938 1251 OFFCURVE",
"1091 1042 OFFCURVE",
"1100 706 CURVE",
"132 706 LINE",
"130 691 OFFCURVE",
"129 678 OFFCURVE",
"129 667 CURVE SMOOTH",
"129 258 OFFCURVE",
"342 -25 OFFCURVE",
"673 -25 CURVE SMOOTH",
"1006 -25 OFFCURVE",
"1237 248 OFFCURVE",
"1237 677 CURVE SMOOTH",
"1237 1106 OFFCURVE",
"1024 1370 OFFCURVE",
"681 1370 CURVE SMOOTH",
"504 1370 OFFCURVE",
"362 1305 OFFCURVE",
"270 1215 CURVE"
);
}
);
width = 1343;
}
);
unicode = 018F;
userData = {
com.typemytype.robofont.mark = (
0.656,
1,
0.6,
1
);
};
},
{
color = (255,153,153,1);
glyphname = T;
lastChange = "2015-01-18 15:17:21 +0000";
layers = (
{
anchors = (
{
name = bottom;
position = "{538, 0}";
},
{
name = center;
position = "{538, 761}";
},
{
name = top;
position = "{538, 1050}";
}
);
layerId = "F1FC1B3B-4EE8-4ECF-8776-11160932002C";
name = Light;
paths = (
{
closed = 1;
nodes = (
"469 0 LINE",
"608 0 LINE",
"608 1228 LINE",
"1024 1228 LINE",
"1024 1346 LINE",
"52 1346 LINE",
"52 1228 LINE",
"469 1228 LINE"
);
}
);
width = 1076;
}
);
unicode = 0054;
userData = {
com.typemytype.robofont.mark = (
1,
0.6,
0.6,
1
);
};
},
{
color = (255,153,153,1);
glyphname = U;
lastChange = "2015-01-15 10:08:19 +0000";
layers = (
{
anchors = (
{
name = top;
position = "{650, 1050}";
}
);
layerId = "F1FC1B3B-4EE8-4ECF-8776-11160932002C";
name = Light;
paths = (
{
closed = 1;
nodes = (
"178 534 LINE",
"178 110 OFFCURVE",
"392 -25 OFFCURVE",
"649 -25 CURVE SMOOTH",
"906 -25 OFFCURVE",
"1122 108 OFFCURVE",
"1122 534 CURVE SMOOTH",
"1122 1346 LINE",
"989 1346 LINE",
"989 536 LINE",
"989 199 OFFCURVE",
"835 99 OFFCURVE",
"649 99 CURVE SMOOTH",
"469 99 OFFCURVE",
"318 200 OFFCURVE",
"318 536 CURVE SMOOTH",
"318 1346 LINE",
"178 1346 LINE"
);
}
);
width = 1300;
}
);
unicode = 0055;
userData = {
com.typemytype.robofont.mark = (
1,
0.6,
0.6,
1
);
};
},
{
glyphname = Uhorn;
lastChange = "2015-01-16 19:41:48 +0000";
layers = (
{
hints = (
{
horizontal = 1;
origin = "{0, 0}";
target = "{0, 0}";
type = Tag;
name = hr00;
}
);
layerId = "F1FC1B3B-4EE8-4ECF-8776-11160932002C";
name = Light;
paths = (
{
closed = 1;
nodes = (
"1193 1567 LINE",
"1212 1540 OFFCURVE",
"1224 1514 OFFCURVE",
"1224 1485 CURVE SMOOTH",
"1224 1395 OFFCURVE",
"1157 1362 OFFCURVE",
"1042 1346 CURVE",
"989 1346 LINE",
"989 542 LINE",
"989 204 OFFCURVE",
"835 99 OFFCURVE",
"649 99 CURVE SMOOTH",
"469 99 OFFCURVE",
"318 204 OFFCURVE",
"318 542 CURVE SMOOTH",
"318 1346 LINE",
"178 1346 LINE",
"178 540 LINE",
"178 112 OFFCURVE",
"392 -25 OFFCURVE",
"649 -25 CURVE SMOOTH",
"906 -25 OFFCURVE",
"1122 112 OFFCURVE",
"1122 540 CURVE SMOOTH",
"1122 1281 LINE",
"1237 1306 OFFCURVE",
"1340 1362 OFFCURVE",
"1340 1493 CURVE SMOOTH",
"1340 1540 OFFCURVE",
"1321 1581 OFFCURVE",
"1295 1618 CURVE"
);
}
);
width = 1326;
}
);
unicode = 01AF;
userData = {
com.adobe.type.autohint = "ICA8aGludFNldExpc3Q+CiAgICA8aGludHNldCBw";
};
},
{
glyphname = Uogonek;
lastChange = "2015-01-15 10:08:19 +0000";
layers = (
{
layerId = "F1FC1B3B-4EE8-4ECF-8776-11160932002C";
name = Light;
paths = (
{
closed = 1;
nodes = (
"178 540 LINE",
"178 127 OFFCURVE",
"377 -20 OFFCURVE",
"652 -24 CURVE",
"597 -79 OFFCURVE",
"521 -144 OFFCURVE",
"521 -254 CURVE SMOOTH",
"521 -370 OFFCURVE",
"605 -428 OFFCURVE",
"706 -428 CURVE SMOOTH",
"757 -428 OFFCURVE",
"822 -403 OFFCURVE",
"858 -375 CURVE",
"816 -297 LINE",
"791 -317 OFFCURVE",
"766 -326 OFFCURVE",
"732 -326 CURVE SMOOTH",
"682 -326 OFFCURVE",
"631 -294 OFFCURVE",
"631 -227 CURVE SMOOTH",
"631 -158 OFFCURVE",
"691 -68 OFFCURVE",
"798 -15 CURVE SMOOTH",
"982 73 OFFCURVE",
"1122 182 OFFCURVE",
"1122 540 CURVE SMOOTH",
"1122 1346 LINE",
"989 1346 LINE",
"989 542 LINE",
"989 204 OFFCURVE",
"835 99 OFFCURVE",
"649 99 CURVE SMOOTH",
"469 99 OFFCURVE",
"318 204 OFFCURVE",
"318 542 CURVE SMOOTH",
"318 1346 LINE",
"178 1346 LINE"
);
}
);
width = 1300;
}
);
unicode = 0172;
},
{
color = (255,153,153,1);
glyphname = V;
lastChange = "2015-01-15 10:08:19 +0000";
layers = (
{
anchors = (
{
name = top;
position = "{511, 1050}";
}
);
layerId = "F1FC1B3B-4EE8-4ECF-8776-11160932002C";
name = Light;
paths = (
{
closed = 1;
nodes = (
"433 0 LINE",
"593 0 LINE",
"1024 1346 LINE",
"883 1346 LINE",
"653 595 LINE",
"606 434 OFFCURVE",
"571 307 OFFCURVE",
"519 147 CURVE",
"511 147 LINE",
"459 307 OFFCURVE",
"425 434 OFFCURVE",
"376 595 CURVE SMOOTH",
"146 1346 LINE",
"-2 1346 LINE"
);
}
);
width = 1022;
}
);
unicode = 0056;
userData = {
com.typemytype.robofont.mark = (
1,
0.6,
0.6,
1
);
};
},
{
color = (255,153,153,1);
glyphname = W;
lastChange = "2015-01-15 10:08:19 +0000";
layers = (
{
anchors = (
{
name = top;
position = "{790, 1050}";
}
);
layerId = "F1FC1B3B-4EE8-4ECF-8776-11160932002C";
name = Light;
paths = (
{
closed = 1;
nodes = (
"338 0 LINE",
"501 0 LINE",
"718 857 LINE",
"742 962 OFFCURVE",
"766 1057 OFFCURVE",
"788 1162 CURVE",
"796 1162 LINE",
"817 1057 OFFCURVE",
"840 962 OFFCURVE",
"863 857 CURVE",
"1084 0 LINE",
"1248 0 LINE",
"1537 1346 LINE",
"1401 1346 LINE",
"1248 589 LINE",
"1222 444 OFFCURVE",
"1195 299 OFFCURVE",
"1167 152 CURVE",
"1158 152 LINE",
"1125 299 OFFCURVE",
"1091 445 OFFCURVE",
"1058 589 CURVE",
"861 1346 LINE",
"730 1346 LINE",
"533 589 LINE",
"499 444 OFFCURVE",
"465 298 OFFCURVE",
"435 152 CURVE",
"427 152 LINE",
"399 298 OFFCURVE",
"371 443 OFFCURVE",
"341 589 CURVE",
"190 1346 LINE",
"44 1346 LINE"
);
}
);
width = 1584;
}
);
unicode = 0057;
userData = {
com.typemytype.robofont.mark = (
1,
0.6,
0.6,
1
);
};
},
{
color = (255,153,153,1);
glyphname = X;
lastChange = "2015-01-15 10:08:19 +0000";
layers = (
{
anchors = (
{
name = top;
position = "{507, 1050}";
}
);
layerId = "F1FC1B3B-4EE8-4ECF-8776-11160932002C";
name = Light;
paths = (
{
closed = 1;
nodes = (
"28 0 LINE",
"172 0 LINE",
"382 383 LINE",
"418 450 OFFCURVE",
"453 517 OFFCURVE",
"493 599 CURVE",
"501 599 LINE",
"546 517 OFFCURVE",
"584 450 OFFCURVE",
"620 383 CURVE SMOOTH",
"833 0 LINE",
"986 0 LINE",
"590 689 LINE",
"959 1346 LINE",
"813 1346 LINE",
"617 980 LINE",
"584 919 OFFCURVE",
"558 866 OFFCURVE",
"521 790 CURVE",
"512 790 LINE",
"468 866 OFFCURVE",
"440 919 OFFCURVE",
"406 980 CURVE SMOOTH",
"206 1346 LINE",
"53 1346 LINE",
"424 696 LINE"
);
}
);
width = 1013;
}
);
unicode = 0058;
userData = {
com.typemytype.robofont.mark = (
1,
0.6,
0.6,
1
);
};
},
{
color = (255,153,153,1);
glyphname = Y;
lastChange = "2015-01-15 10:08:19 +0000";
layers = (
{
anchors = (
{
name = top;
position = "{468, 1050}";
}
);
layerId = "F1FC1B3B-4EE8-4ECF-8776-11160932002C";
name = Light;
paths = (
{
closed = 1;
nodes = (
"399 0 LINE",
"539 0 LINE",
"539 531 LINE",
"943 1346 LINE",
"800 1346 LINE",
"613 950 LINE",
"571 851 OFFCURVE",
"521 757 OFFCURVE",
"474 658 CURVE",
"465 658 LINE",
"417 757 OFFCURVE",
"374 851 OFFCURVE",
"330 950 CURVE SMOOTH",
"144 1346 LINE",
"-6 1346 LINE",
"399 531 LINE"
);
}
);
width = 939;
}
);
unicode = 0059;
userData = {
com.typemytype.robofont.mark = (
1,
0.6,
0.6,
1
);
};
},
{
color = (255,153,153,1);
glyphname = Z;
lastChange = "2015-01-16 19:41:48 +0000";
layers = (
{
anchors = (
{
name = top;
position = "{565, 1050}";
}
);
hints = (
{
horizontal = 1;
origin = "{0, 0}";
target = "{0, 0}";
type = Tag;
name = hr00;
}
);
layerId = "F1FC1B3B-4EE8-4ECF-8776-11160932002C";
name = Light;
paths = (
{
closed = 1;
nodes = (
"89 0 LINE",
"1006 0 LINE",
"1006 119 LINE",
"263 119 LINE",
"999 1264 LINE",
"999 1346 LINE",
"156 1346 LINE",
"156 1228 LINE",
"827 1228 LINE",
"89 83 LINE"
);
}
);
width = 1091;
}
);
unicode = 005A;
userData = {
com.adobe.type.autohint = "ICA8aGludFNldExpc3Q+CiAgICA8aGludHNldCBw";
com.typemytype.robofont.mark = (
1,
0.6,
0.6,
1
);
};
},
{
glyphname = uni015E;
lastChange = "2015-01-15 10:08:19 +0000";
layers = (
{
layerId = "F1FC1B3B-4EE8-4ECF-8776-11160932002C";
name = Light;
paths = (
{
closed = 1;
nodes = (
"519 794 LINE",
"417 839 OFFCURVE",
"291 892 OFFCURVE",
"291 1032 CURVE SMOOTH",
"291 1164 OFFCURVE",
"400 1247 OFFCURVE",
"562 1247 CURVE SMOOTH",
"690 1247 OFFCURVE",
"794 1195 OFFCURVE",
"873 1115 CURVE",
"950 1206 LINE",
"860 1300 OFFCURVE",
"723 1370 OFFCURVE",
"562 1370 CURVE SMOOTH",
"327 1370 OFFCURVE",
"151 1225 OFFCURVE",
"151 1024 CURVE SMOOTH",
"151 826 OFFCURVE",
"302 735 OFFCURVE",
"424 683 CURVE SMOOTH",
"621 595 LINE",
"751 537 OFFCURVE",
"854 489 OFFCURVE",
"854 339 CURVE SMOOTH",
"854 196 OFFCURVE",
"739 99 OFFCURVE",
"551 99 CURVE SMOOTH",
"403 99 OFFCURVE",
"267 168 OFFCURVE",
"169 273 CURVE",
"84 176 LINE",
"188 64 OFFCURVE",
"331 -12 OFFCURVE",
"505 -24 CURVE",
"437 -153 LINE",
"517 -173 OFFCURVE",
"569 -200 OFFCURVE",
"569 -256 CURVE SMOOTH",
"569 -312 OFFCURVE",
"494 -342 OFFCURVE",
"384 -357 CURVE",
"398 -432 LINE",
"545 -417 OFFCURVE",
"680 -363 OFFCURVE",
"680 -250 CURVE SMOOTH",
"680 -166 OFFCURVE",
"623 -128 OFFCURVE",
"558 -106 CURVE",
"599 -23 LINE",
"844 -3 OFFCURVE",
"996 152 OFFCURVE",
"996 350 CURVE SMOOTH",
"996 552 OFFCURVE",
"870 641 OFFCURVE",
"716 708 CURVE SMOOTH"
);
}
);
width = 1071;
}
);
unicode = 015E;
},
{
glyphname = uni0162;
lastChange = "2015-01-15 10:08:19 +0000";
layers = (
{
layerId = "F1FC1B3B-4EE8-4ECF-8776-11160932002C";
name = Light;
paths = (
{
closed = 1;
nodes = (
"608 0 LINE",
"608 1228 LINE",
"1024 1228 LINE",
"1024 1346 LINE",
"52 1346 LINE",
"52 1228 LINE",
"469 1228 LINE",
"469 0 LINE",
"496 0 LINE",
"417 -153 LINE",
"497 -173 OFFCURVE",
"548 -200 OFFCURVE",
"548 -256 CURVE SMOOTH",
"548 -312 OFFCURVE",
"473 -342 OFFCURVE",
"363 -357 CURVE",
"378 -432 LINE",
"525 -417 OFFCURVE",
"659 -363 OFFCURVE",
"659 -250 CURVE SMOOTH",
"659 -166 OFFCURVE",
"603 -128 OFFCURVE",
"537 -106 CURVE",
"590 0 LINE"
);
}
);
width = 1076;
}
);
unicode = 0162;
},
{
glyphname = uni01EA;
lastChange = "2015-01-16 19:41:48 +0000";
layers = (
{
hints = (
{
horizontal = 1;
origin = "{0, 0}";
target = "{0, 0}";
type = Tag;
name = hr00;
}
);
layerId = "F1FC1B3B-4EE8-4ECF-8776-11160932002C";
name = Light;
paths = (
{
closed = 1;
nodes = (
"545 -254 CURVE SMOOTH",
"545 -370 OFFCURVE",
"628 -428 OFFCURVE",
"731 -428 CURVE SMOOTH",
"781 -428 OFFCURVE",
"845 -403 OFFCURVE",
"881 -375 CURVE",
"841 -297 LINE",
"815 -317 OFFCURVE",
"789 -326 OFFCURVE",
"755 -326 CURVE SMOOTH",
"706 -326 OFFCURVE",
"656 -294 OFFCURVE",
"656 -227 CURVE SMOOTH",
"656 -156 OFFCURVE",
"706 -65 OFFCURVE",
"819 -15 CURVE SMOOTH",
"1087 108 OFFCURVE",
"1236 314 OFFCURVE",
"1236 679 CURVE SMOOTH",
"1236 1106 OFFCURVE",
"1001 1370 OFFCURVE",
"670 1370 CURVE SMOOTH",
"337 1370 OFFCURVE",
"102 1107 OFFCURVE",
"102 679 CURVE SMOOTH",
"102 257 OFFCURVE",
"322 -19 OFFCURVE",
"670 -24 CURVE",
"594 -84 OFFCURVE",
"545 -168 OFFCURVE"
);
},
{
closed = 1;
nodes = (
"670 99 CURVE SMOOTH",
"415 99 OFFCURVE",
"246 327 OFFCURVE",
"246 679 CURVE SMOOTH",
"246 1029 OFFCURVE",
"415 1247 OFFCURVE",
"670 1247 CURVE SMOOTH",
"923 1247 OFFCURVE",
"1091 1029 OFFCURVE",
"1091 679 CURVE SMOOTH",
"1091 327 OFFCURVE",
"923 99 OFFCURVE"
);
}
);
width = 1338;
}
);
unicode = 01EA;
userData = {
com.adobe.type.autohint = "ICA8aGludFNldExpc3Q+CiAgICA8aGludHNldCBw";
};
},
{
glyphname = uni0243;
lastChange = "2015-01-15 10:08:19 +0000";
layers = (
{
layerId = "F1FC1B3B-4EE8-4ECF-8776-11160932002C";
name = Light;
paths = (
{
closed = 1;
nodes = (
"362 107 LINE",
"362 363 LINE",
"684 363 LINE",
"684 448 LINE",
"362 448 LINE",
"362 674 LINE",
"612 674 LINE",
"862 674 OFFCURVE",
"1006 588 OFFCURVE",
"1006 404 CURVE SMOOTH",
"1006 201 OFFCURVE",
"857 107 OFFCURVE",
"612 107 CURVE SMOOTH"
);
},
{
closed = 1;
nodes = (
"362 1240 LINE",
"583 1240 LINE",
"808 1240 OFFCURVE",
"927 1173 OFFCURVE",
"927 1015 CURVE SMOOTH",
"927 854 OFFCURVE",
"823 770 OFFCURVE",
"575 770 CURVE SMOOTH",
"362 770 LINE"
);
},
{
closed = 1;
nodes = (
"826 735 LINE",
"984 776 OFFCURVE",
"1061 887 OFFCURVE",
"1061 1021 CURVE SMOOTH",
"1061 1248 OFFCURVE",
"879 1346 OFFCURVE",
"607 1346 CURVE SMOOTH",
"222 1346 LINE",
"222 448 LINE",
"64 441 LINE",
"64 363 LINE",
"222 363 LINE",
"222 0 LINE",
"636 0 LINE",
"938 0 OFFCURVE",
"1142 132 OFFCURVE",
"1142 399 CURVE SMOOTH",
"1142 588 OFFCURVE",
"1023 696 OFFCURVE",
"826 727 CURVE"
);
}
);
width = 1222;
}
);
unicode = 0243;
},
{
color = (167,255,153,1);
glyphname = uni1E38;
lastChange = "2015-01-15 10:08:19 +0000";
layers = (
{
components = (
{
name = L;
transform = "{1, 0, 0, 1, 0, 0}";
},
{
name = dotaccent;
transform = "{1, 0, 0, 1, 28, -1621}";
}
);
layerId = "F1FC1B3B-4EE8-4ECF-8776-11160932002C";
name = Light;
paths = (
{
closed = 1;
nodes = (
"14 1497 LINE",
"505 1497 LINE",
"505 1596 LINE",
"14 1596 LINE"
);
}
);
width = 967;
}
);
unicode = 1E38;
userData = {
com.typemytype.robofont.mark = (
0.656,
1,
0.6,
1
);
};
},
{
glyphname = I.a;
lastChange = "2015-01-07 12:25:13 +0000";
layers = (
{
anchors = (
{
name = mark0;
position = "{289, 0}";
}
);
layerId = "F1FC1B3B-4EE8-4ECF-8776-11160932002C";
name = Light;
paths = (
{
closed = 1;
nodes = (
"92 0 LINE",
"583 0 LINE",
"583 119 LINE",
"408 119 LINE",
"408 1228 LINE",
"583 1228 LINE",
"583 1346 LINE",
"92 1346 LINE",
"92 1228 LINE",
"268 1228 LINE",
"268 119 LINE",
"92 119 LINE"
);
}
);
width = 679;
}
);
},
{
glyphname = Iacute.a;
lastChange = "2015-01-07 12:25:13 +0000";
layers = (
{
layerId = "F1FC1B3B-4EE8-4ECF-8776-11160932002C";
name = Light;
paths = (
{
closed = 1;
nodes = (
"92 0 LINE",
"583 0 LINE",
"583 119 LINE",
"408 119 LINE",
"408 1228 LINE",
"583 1228 LINE",
"583 1346 LINE",
"92 1346 LINE",
"92 1228 LINE",
"268 1228 LINE",
"268 119 LINE",
"92 119 LINE"
);
},
{
closed = 1;
nodes = (
"593 1673 LINE",
"430 1673 LINE",
"247 1448 LINE",
"364 1448 LINE"
);
}
);
width = 679;
}
);
},
{
glyphname = uni01CF.a;
lastChange = "2015-01-07 12:25:13 +0000";
layers = (
{
layerId = "F1FC1B3B-4EE8-4ECF-8776-11160932002C";
name = Light;
paths = (
{
closed = 1;
nodes = (
"92 0 LINE",
"583 0 LINE",
"583 119 LINE",
"408 119 LINE",
"408 1228 LINE",
"583 1228 LINE",
"583 1346 LINE",
"92 1346 LINE",
"92 1228 LINE",
"268 1228 LINE",
"268 119 LINE",
"92 119 LINE"
);
},
{
closed = 1;
nodes = (
"488 1673 LINE",
"344 1530 LINE",
"335 1530 LINE",
"192 1673 LINE",
"77 1673 LINE",
"274 1448 LINE",
"406 1448 LINE",
"602 1673 LINE"
);
}
);
width = 679;
}
);
},
{
glyphname = Icircumflex.a;
lastChange = "2015-01-07 12:25:13 +0000";
layers = (
{
layerId = "F1FC1B3B-4EE8-4ECF-8776-11160932002C";
name = Light;
paths = (
{
closed = 1;
nodes = (
"92 0 LINE",
"583 0 LINE",
"583 119 LINE",
"408 119 LINE",
"408 1228 LINE",
"583 1228 LINE",
"583 1346 LINE",
"92 1346 LINE",
"92 1228 LINE",
"268 1228 LINE",
"268 119 LINE",
"92 119 LINE"
);
},
{
closed = 1;
nodes = (
"192 1448 LINE",
"335 1591 LINE",
"344 1591 LINE",
"488 1448 LINE",
"602 1448 LINE",
"406 1673 LINE",
"274 1673 LINE",
"77 1448 LINE"
);
}
);
width = 679;
}
);
},
{
glyphname = Idieresis.a;
lastChange = "2015-01-07 12:25:13 +0000";
layers = (
{
layerId = "F1FC1B3B-4EE8-4ECF-8776-11160932002C";
name = Light;
paths = (
{
closed = 1;
nodes = (
"92 0 LINE",
"583 0 LINE",
"583 119 LINE",
"408 119 LINE",
"408 1228 LINE",
"583 1228 LINE",
"583 1346 LINE",
"92 1346 LINE",
"92 1228 LINE",
"268 1228 LINE",
"268 119 LINE",
"92 119 LINE"
);
},
{
closed = 1;
nodes = (
"169 1473 CURVE SMOOTH",
"221 1473 OFFCURVE",
"260 1509 OFFCURVE",
"260 1563 CURVE SMOOTH",
"260 1617 OFFCURVE",
"221 1652 OFFCURVE",
"169 1652 CURVE SMOOTH",
"117 1652 OFFCURVE",
"79 1617 OFFCURVE",
"79 1563 CURVE SMOOTH",
"79 1509 OFFCURVE",
"117 1473 OFFCURVE"
);
},
{
closed = 1;
nodes = (
"510 1473 CURVE SMOOTH",
"562 1473 OFFCURVE",
"599 1509 OFFCURVE",
"599 1563 CURVE SMOOTH",
"599 1617 OFFCURVE",
"562 1652 OFFCURVE",
"510 1652 CURVE SMOOTH",
"458 1652 OFFCURVE",
"420 1617 OFFCURVE",
"420 1563 CURVE SMOOTH",
"420 1509 OFFCURVE",
"458 1473 OFFCURVE"
);
}
);
width = 679;
}
);
},
{
glyphname = Idotaccent.a;
lastChange = "2015-01-07 12:25:13 +0000";
layers = (
{
layerId = "F1FC1B3B-4EE8-4ECF-8776-11160932002C";
name = Light;
paths = (
{
closed = 1;
nodes = (
"92 0 LINE",
"583 0 LINE",
"583 119 LINE",
"408 119 LINE",
"408 1228 LINE",
"583 1228 LINE",
"583 1346 LINE",
"92 1346 LINE",
"92 1228 LINE",
"268 1228 LINE",
"268 119 LINE",
"92 119 LINE"
);
},
{
closed = 1;
nodes = (
"340 1468 CURVE SMOOTH",
"397 1468 OFFCURVE",
"442 1508 OFFCURVE",
"442 1568 CURVE SMOOTH",
"442 1625 OFFCURVE",
"397 1664 OFFCURVE",
"340 1664 CURVE SMOOTH",
"282 1664 OFFCURVE",
"237 1625 OFFCURVE",
"237 1568 CURVE SMOOTH",
"237 1508 OFFCURVE",
"282 1468 OFFCURVE"
);
}
);
width = 679;
}
);
},
{
glyphname = uni1ECA.a;
lastChange = "2015-01-07 12:25:13 +0000";
layers = (
{
layerId = "F1FC1B3B-4EE8-4ECF-8776-11160932002C";
name = Light;
paths = (
{
closed = 1;
nodes = (
"92 0 LINE",
"583 0 LINE",
"583 119 LINE",
"408 119 LINE",
"408 1228 LINE",
"583 1228 LINE",
"583 1346 LINE",
"92 1346 LINE",
"92 1228 LINE",
"268 1228 LINE",
"268 119 LINE",
"92 119 LINE"
);
},
{
closed = 1;
nodes = (
"343 -412 CURVE SMOOTH",
"398 -412 OFFCURVE",
"440 -372 OFFCURVE",
"440 -312 CURVE SMOOTH",
"440 -255 OFFCURVE",
"398 -215 OFFCURVE",
"343 -215 CURVE SMOOTH",
"287 -215 OFFCURVE",
"245 -255 OFFCURVE",
"245 -312 CURVE SMOOTH",
"245 -372 OFFCURVE",
"287 -412 OFFCURVE"
);
}
);
width = 679;
}
);
},
{
glyphname = Igrave.a;
lastChange = "2015-01-07 12:25:13 +0000";
layers = (
{
layerId = "F1FC1B3B-4EE8-4ECF-8776-11160932002C";
name = Light;
paths = (
{
closed = 1;
nodes = (
"92 0 LINE",
"583 0 LINE",
"583 119 LINE",
"408 119 LINE",
"408 1228 LINE",
"583 1228 LINE",
"583 1346 LINE",
"92 1346 LINE",
"92 1228 LINE",
"268 1228 LINE",
"268 119 LINE",
"92 119 LINE"
);
},
{
closed = 1;
nodes = (
"314 1448 LINE",
"432 1448 LINE",
"249 1673 LINE",
"86 1673 LINE"
);
}
);
width = 679;
}
);
},
{
glyphname = uni1EC8.a;
lastChange = "2015-01-07 12:25:13 +0000";
layers = (
{
layerId = "F1FC1B3B-4EE8-4ECF-8776-11160932002C";
name = Light;
paths = (
{
closed = 1;
nodes = (
"92 0 LINE",
"583 0 LINE",
"583 119 LINE",
"408 119 LINE",
"408 1228 LINE",
"583 1228 LINE",
"583 1346 LINE",
"92 1346 LINE",
"92 1228 LINE",
"268 1228 LINE",
"268 119 LINE",
"92 119 LINE"
);
},
{
closed = 1;
nodes = (
"286 1433 LINE",
"396 1456 OFFCURVE",
"499 1504 OFFCURVE",
"499 1618 CURVE SMOOTH",
"499 1722 OFFCURVE",
"392 1773 OFFCURVE",
"231 1778 CURVE",
"217 1694 LINE",
"329 1689 OFFCURVE",
"389 1660 OFFCURVE",
"389 1603 CURVE SMOOTH",
"389 1548 OFFCURVE",
"337 1522 OFFCURVE",
"268 1501 CURVE"
);
}
);
width = 679;
}
);
},
{
glyphname = Imacron.a;
lastChange = "2015-01-07 12:25:13 +0000";
layers = (
{
layerId = "F1FC1B3B-4EE8-4ECF-8776-11160932002C";
name = Light;
paths = (
{
closed = 1;
nodes = (
"92 0 LINE",
"583 0 LINE",
"583 119 LINE",
"408 119 LINE",
"408 1228 LINE",
"583 1228 LINE",
"583 1346 LINE",
"92 1346 LINE",
"92 1228 LINE",
"268 1228 LINE",
"268 119 LINE",
"92 119 LINE"
);
},
{
closed = 1;
nodes = (
"94 1497 LINE",
"585 1497 LINE",
"585 1596 LINE",
"94 1596 LINE"
);
}
);
width = 679;
}
);
},
{
glyphname = Iogonek.a;
lastChange = "2015-01-07 12:25:13 +0000";
layers = (
{
anchors = (
{
name = mark0;
position = "{337, 1391}";
}
);
layerId = "F1FC1B3B-4EE8-4ECF-8776-11160932002C";
name = Light;
paths = (
{
closed = 1;
nodes = (
"92 0 LINE",
"301 0 LINE",
"234 -55 OFFCURVE",
"165 -147 OFFCURVE",
"165 -254 CURVE SMOOTH",
"165 -370 OFFCURVE",
"248 -428 OFFCURVE",
"350 -428 CURVE SMOOTH",
"401 -428 OFFCURVE",
"465 -403 OFFCURVE",
"501 -375 CURVE",
"460 -297 LINE",
"434 -317 OFFCURVE",
"409 -326 OFFCURVE",
"375 -326 CURVE SMOOTH",
"325 -326 OFFCURVE",
"275 -294 OFFCURVE",
"275 -227 CURVE SMOOTH",
"275 -146 OFFCURVE",
"325 -64 OFFCURVE",
"408 0 CURVE",
"583 0 LINE",
"583 119 LINE",
"408 119 LINE",
"408 1228 LINE",
"583 1228 LINE",
"583 1346 LINE",
"92 1346 LINE",
"92 1228 LINE",
"268 1228 LINE",
"268 119 LINE",
"92 119 LINE"
);
}
);
width = 679;
}
);
},
{
glyphname = Itilde.a;
lastChange = "2015-01-07 12:25:13 +0000";
layers = (
{
layerId = "F1FC1B3B-4EE8-4ECF-8776-11160932002C";
name = Light;
paths = (
{
closed = 1;
nodes = (
"92 0 LINE",
"583 0 LINE",
"583 119 LINE",
"408 119 LINE",
"408 1228 LINE",
"583 1228 LINE",
"583 1346 LINE",
"92 1346 LINE",
"92 1228 LINE",
"268 1228 LINE",
"268 119 LINE",
"92 119 LINE"
);
},
{
closed = 1;
nodes = (
"461 1460 CURVE SMOOTH",
"556 1460 OFFCURVE",
"614 1557 OFFCURVE",
"623 1668 CURVE",
"544 1668 LINE",
"535 1600 OFFCURVE",
"502 1558 OFFCURVE",
"460 1558 CURVE SMOOTH",
"382 1558 OFFCURVE",
"325 1668 OFFCURVE",
"218 1668 CURVE SMOOTH",
"122 1668 OFFCURVE",
"65 1573 OFFCURVE",
"55 1460 CURVE",
"136 1460 LINE",
"145 1530 OFFCURVE",
"178 1571 OFFCURVE",
"218 1571 CURVE SMOOTH",
"297 1571 OFFCURVE",
"353 1460 OFFCURVE"
);
}
);
width = 679;
}
);
},
{
color = (255,153,153,1);
glyphname = a;
lastChange = "2015-01-18 15:22:48 +0000";
layers = (
{
anchors = (
{
name = _bottom;
position = "{516, 0}";
},
{
name = top;
position = "{503, 1050}";
}
);
hints = (
{
horizontal = 1;
origin = "{0, 0}";
target = "{0, 0}";
type = Tag;
name = hr01;
},
{
horizontal = 1;
origin = "{0, 8}";
target = "{0, 0}";
type = Tag;
name = hr02;
}
);
layerId = "F1FC1B3B-4EE8-4ECF-8776-11160932002C";
name = Light;
paths = (
{
closed = 1;
nodes = (
"125 254 CURVE SMOOTH",
"125 73 OFFCURVE",
"252 -25 OFFCURVE",
"421 -25 CURVE SMOOTH",
"558 -25 OFFCURVE",
"654 43 OFFCURVE",
"752 122 CURVE",
"756 122 LINE",
"769 0 LINE",
"882 0 LINE",
"882 618 LINE",
"882 859 OFFCURVE",
"788 1015 OFFCURVE",
"549 1015 CURVE SMOOTH",
"389 1015 OFFCURVE",
"247 952 OFFCURVE",
"164 898 CURVE",
"221 801 LINE",
"294 853 OFFCURVE",
"405 900 OFFCURVE",
"529 900 CURVE SMOOTH",
"703 900 OFFCURVE",
"748 775 OFFCURVE",
"746 625 CURVE",
"314 593 OFFCURVE",
"125 471 OFFCURVE"
);
},
{
closed = 1;
nodes = (
"261 262 CURVE SMOOTH",
"261 401 OFFCURVE",
"382 504 OFFCURVE",
"746 531 CURVE",
"746 231 LINE",
"640 138 OFFCURVE",
"558 87 OFFCURVE",
"455 87 CURVE SMOOTH",
"344 87 OFFCURVE",
"261 138 OFFCURVE"
);
}
);
width = 1038;
}
);
unicode = 0061;
userData = {
com.adobe.type.autohint = "ICA8aGludFNldExpc3Q+CiAgICA8aGludHNldCBw";
com.typemytype.robofont.mark = (
1,
0.6,
0.6,
1
);
};
},
{
glyphname = aogonek;
lastChange = "2015-01-16 19:41:48 +0000";
layers = (
{
hints = (
{
horizontal = 1;
origin = "{0, 0}";
target = "{0, 0}";
type = Tag;
name = hr01;
},
{
horizontal = 1;
origin = "{1, 27}";
target = "{0, 0}";
type = Tag;
name = hr02;
}
);
layerId = "F1FC1B3B-4EE8-4ECF-8776-11160932002C";
name = Light;
paths = (
{
closed = 1;
nodes = (
"261 262 CURVE SMOOTH",
"261 401 OFFCURVE",
"384 488 OFFCURVE",
"746 531 CURVE",
"746 231 LINE",
"640 138 OFFCURVE",
"552 87 OFFCURVE",
"449 87 CURVE SMOOTH",
"344 87 OFFCURVE",
"261 138 OFFCURVE"
);
},
{
closed = 1;
nodes = (
"125 252 CURVE SMOOTH",
"125 71 OFFCURVE",
"252 -25 OFFCURVE",
"415 -25 CURVE SMOOTH",
"541 -25 OFFCURVE",
"654 43 OFFCURVE",
"752 122 CURVE",
"756 122 LINE",
"770 10 LINE",
"684 -44 OFFCURVE",
"600 -140 OFFCURVE",
"600 -249 CURVE SMOOTH",
"600 -361 OFFCURVE",
"677 -420 OFFCURVE",
"777 -420 CURVE SMOOTH",
"826 -420 OFFCURVE",
"890 -396 OFFCURVE",
"926 -368 CURVE",
"887 -296 LINE",
"862 -314 OFFCURVE",
"837 -323 OFFCURVE",
"803 -323 CURVE SMOOTH",
"753 -323 OFFCURVE",
"705 -291 OFFCURVE",
"705 -224 CURVE SMOOTH",
"705 -141 OFFCURVE",
"774 -47 OFFCURVE",
"882 0 CURVE",
"882 618 LINE",
"882 851 OFFCURVE",
"790 1015 OFFCURVE",
"551 1015 CURVE SMOOTH",
"391 1015 OFFCURVE",
"253 942 OFFCURVE",
"170 887 CURVE",
"227 790 LINE",
"300 841 OFFCURVE",
"407 900 OFFCURVE",
"531 900 CURVE SMOOTH",
"705 900 OFFCURVE",
"748 761 OFFCURVE",
"746 625 CURVE",
"317 577 OFFCURVE",
"125 470 OFFCURVE"
);
}
);
width = 1038;
}
);
unicode = 0105;
userData = {
com.adobe.type.autohint = "ICA8aGludFNldExpc3Q+CiAgICA8aGludHNldCBw";
};
},
{
color = (255,153,153,1);
glyphname = ae;
lastChange = "2015-01-16 19:41:48 +0000";
layers = (
{
anchors = (
{
name = top;
position = "{827, 1050}";
}
);
hints = (
{
horizontal = 1;
origin = "{0, 0}";
target = "{0, 0}";
type = Tag;
name = hr01;
},
{
horizontal = 1;
origin = "{1, 0}";
target = "{0, 0}";
type = Tag;
name = hr02;
},
{
horizontal = 1;
origin = "{1, 35}";
target = "{0, 0}";
type = Tag;
name = hr03;
}
);
layerId = "F1FC1B3B-4EE8-4ECF-8776-11160932002C";
name = Light;
paths = (
{
closed = 1;
nodes = (
"261 262 CURVE SMOOTH",
"261 401 OFFCURVE",
"392 489 OFFCURVE",
"735 527 CURVE",
"736 478 LINE",
"736 395 OFFCURVE",
"751 310 OFFCURVE",
"777 256 CURVE",
"677 148 OFFCURVE",
"547 87 OFFCURVE",
"449 87 CURVE SMOOTH",
"344 87 OFFCURVE",
"261 138 OFFCURVE"
);
},
{
closed = 1;
nodes = (
"227 800 LINE",
"300 851 OFFCURVE",
"407 900 OFFCURVE",
"521 900 CURVE SMOOTH",
"697 900 OFFCURVE",
"737 757 OFFCURVE",
"736 621 CURVE",
"318 585 OFFCURVE",
"125 470 OFFCURVE",
"125 252 CURVE SMOOTH",
"125 71 OFFCURVE",
"252 -25 OFFCURVE",
"415 -25 CURVE SMOOTH",
"541 -25 OFFCURVE",
"691 46 OFFCURVE",
"824 169 CURVE",
"898 68 OFFCURVE",
"1005 -25 OFFCURVE",
"1175 -25 CURVE SMOOTH",
"1314 -25 OFFCURVE",
"1407 24 OFFCURVE",
"1490 76 CURVE",
"1438 174 LINE",
"1364 124 OFFCURVE",
"1291 89 OFFCURVE",
"1190 89 CURVE SMOOTH",
"1009 89 OFFCURVE",
"869 242 OFFCURVE",
"865 466 CURVE",
"1524 466 LINE",
"1528 490 OFFCURVE",
"1529 520 OFFCURVE",
"1529 552 CURVE SMOOTH",
"1529 838 OFFCURVE",
"1406 1015 OFFCURVE",
"1168 1015 CURVE SMOOTH",
"1017 1015 OFFCURVE",
"898 927 OFFCURVE",
"822 790 CURVE",
"784 927 OFFCURVE",
"700 1015 OFFCURVE",
"537 1015 CURVE SMOOTH",
"389 1015 OFFCURVE",
"253 952 OFFCURVE",
"170 897 CURVE"
);
},
{
closed = 1;
nodes = (
"865 561 LINE",
"883 768 OFFCURVE",
"1005 905 OFFCURVE",
"1165 905 CURVE SMOOTH",
"1326 905 OFFCURVE",
"1407 785 OFFCURVE",
"1407 561 CURVE"
);
}
);
width = 1607;
}
);
unicode = 00E6;
userData = {
com.adobe.type.autohint = "ICA8aGludFNldExpc3Q+CiAgICA8aGludHNldCBw";
com.typemytype.robofont.mark = (
1,
0.6,
0.6,
1
);
};
},
{
color = (255,153,153,1);
glyphname = b;
lastChange = "2015-01-15 10:08:19 +0000";
layers = (
{
anchors = (
{
name = top;
position = "{718, 1050}";
}
);
layerId = "F1FC1B3B-4EE8-4ECF-8776-11160932002C";
name = Light;
paths = (
{
closed = 1;
nodes = (
"176 0 LINE",
"287 0 LINE",
"299 96 LINE",
"306 96 LINE",
"395 20 OFFCURVE",
"501 -25 OFFCURVE",
"596 -25 CURVE SMOOTH",
"831 -25 OFFCURVE",
"1026 166 OFFCURVE",
"1026 509 CURVE SMOOTH",
"1026 820 OFFCURVE",
"901 1015 OFFCURVE",
"634 1015 CURVE SMOOTH",
"517 1015 OFFCURVE",
"403 952 OFFCURVE",
"308 870 CURVE",
"313 1055 LINE",
"313 1464 LINE",
"176 1464 LINE"
);
},
{
closed = 1;
nodes = (
"313 205 CURVE",
"313 752 LINE",
"416 847 OFFCURVE",
"511 899 OFFCURVE",
"604 899 CURVE SMOOTH",
"811 899 OFFCURVE",
"883 740 OFFCURVE",
"883 508 CURVE SMOOTH",
"883 250 OFFCURVE",
"759 92 OFFCURVE",
"577 92 CURVE SMOOTH",
"506 92 OFFCURVE",
"409 122 OFFCURVE"
);
}
);
width = 1128;
}
);
unicode = 0062;
userData = {
com.typemytype.robofont.mark = (
1,
0.6,
0.6,
1
);
};
},
{
color = (255,153,153,1);
glyphname = c;
lastChange = "2015-01-18 15:18:59 +0000";
layers = (
{
anchors = (
{
name = top;
position = "{564, 1050}";
}
);
layerId = "F1FC1B3B-4EE8-4ECF-8776-11160932002C";
name = Light;
paths = (
{
closed = 1;
nodes = (
"99 495 CURVE SMOOTH",
"99 159 OFFCURVE",
"296 -25 OFFCURVE",
"556 -25 CURVE SMOOTH",
"677 -25 OFFCURVE",
"784 22 OFFCURVE",
"871 99 CURVE",
"807 190 LINE",
"745 133 OFFCURVE",
"665 90 OFFCURVE",
"566 90 CURVE SMOOTH",
"370 90 OFFCURVE",
"240 249 OFFCURVE",
"240 495 CURVE SMOOTH",
"240 744 OFFCURVE",
"380 900 OFFCURVE",
"569 900 CURVE SMOOTH",
"655 900 OFFCURVE",
"723 862 OFFCURVE",
"785 807 CURVE",
"856 897 LINE",
"789 960 OFFCURVE",
"697 1015 OFFCURVE",
"564 1015 CURVE SMOOTH",
"314 1015 OFFCURVE",
"99 836 OFFCURVE"
);
}
);
width = 928;
}
);
unicode = 0063;
userData = {
com.typemytype.robofont.mark = (
1,
0.6,
0.6,
1
);
};
},
{
glyphname = ccedilla;
lastChange = "2015-01-16 19:41:48 +0000";
layers = (
{
hints = (
{
horizontal = 1;
origin = "{0, 0}";
target = "{0, 0}";
type = Tag;
name = hr01;
},
{
horizontal = 1;
origin = "{0, 7}";
target = "{0, 0}";
type = Tag;
name = hr02;
}
);
layerId = "F1FC1B3B-4EE8-4ECF-8776-11160932002C";
name = Light;
paths = (
{
closed = 1;
nodes = (
"602 -21 LINE",
"705 -12 OFFCURVE",
"800 37 OFFCURVE",
"877 105 CURVE",
"813 196 LINE",
"751 139 OFFCURVE",
"667 90 OFFCURVE",
"568 90 CURVE SMOOTH",
"372 90 OFFCURVE",
"241 253 OFFCURVE",
"241 493 CURVE SMOOTH",
"241 735 OFFCURVE",
"381 900 OFFCURVE",
"571 900 CURVE SMOOTH",
"657 900 OFFCURVE",
"723 860 OFFCURVE",
"785 805 CURVE",
"856 895 LINE",
"789 958 OFFCURVE",
"699 1015 OFFCURVE",
"566 1015 CURVE SMOOTH",
"316 1015 OFFCURVE",
"99 825 OFFCURVE",
"99 493 CURVE SMOOTH",
"99 187 OFFCURVE",
"273 2 OFFCURVE",
"506 -21 CURVE",
"438 -153 LINE",
"520 -173 OFFCURVE",
"572 -200 OFFCURVE",
"572 -256 CURVE SMOOTH",
"572 -312 OFFCURVE",
"495 -342 OFFCURVE",
"386 -357 CURVE",
"402 -432 LINE",
"548 -417 OFFCURVE",
"682 -363 OFFCURVE",
"682 -250 CURVE SMOOTH",
"682 -166 OFFCURVE",
"627 -128 OFFCURVE",
"560 -106 CURVE"
);
}
);
width = 928;
}
);
unicode = 00E7;
userData = {
com.adobe.type.autohint = "ICA8aGludFNldExpc3Q+CiAgICA8aGludHNldCBw";
};
},
{
color = (255,153,153,1);
glyphname = d;
lastChange = "2015-01-15 10:08:19 +0000";
layers = (
{
anchors = (
{
name = top;
position = "{333, 1050}";
}
);
layerId = "F1FC1B3B-4EE8-4ECF-8776-11160932002C";
name = Light;
paths = (
{
closed = 1;
nodes = (
"100 494 CURVE SMOOTH",
"100 154 OFFCURVE",
"263 -25 OFFCURVE",
"510 -25 CURVE SMOOTH",
"633 -25 OFFCURVE",
"740 43 OFFCURVE",
"819 121 CURVE",
"825 121 LINE",
"837 0 LINE",
"951 0 LINE",
"951 1464 LINE",
"814 1464 LINE",
"814 1072 LINE",
"821 898 LINE",
"728 971 OFFCURVE",
"651 1015 OFFCURVE",
"534 1015 CURVE SMOOTH",
"298 1015 OFFCURVE",
"100 824 OFFCURVE"
);
},
{
closed = 1;
nodes = (
"241 495 CURVE SMOOTH",
"241 737 OFFCURVE",
"373 899 OFFCURVE",
"554 899 CURVE SMOOTH",
"641 899 OFFCURVE",
"722 868 OFFCURVE",
"814 785 CURVE",
"814 239 LINE",
"723 142 OFFCURVE",
"636 92 OFFCURVE",
"537 92 CURVE SMOOTH",
"343 92 OFFCURVE",
"241 243 OFFCURVE"
);
}
);
width = 1128;
}
);
unicode = 0064;
userData = {
com.typemytype.robofont.mark = (
1,
0.6,
0.6,
1
);
};
},
{
color = (255,153,153,1);
glyphname = eth;
lastChange = "2015-01-15 10:08:19 +0000";
layers = (
{
anchors = (
{
name = top;
position = "{548, 1050}";
}
);
layerId = "F1FC1B3B-4EE8-4ECF-8776-11160932002C";
name = Light;
paths = (
{
closed = 1;
nodes = (
"552 90 CURVE SMOOTH",
"385 90 OFFCURVE",
"245 236 OFFCURVE",
"245 453 CURVE SMOOTH",
"245 646 OFFCURVE",
"355 802 OFFCURVE",
"553 802 CURVE SMOOTH",
"649 802 OFFCURVE",
"746 771 OFFCURVE",
"842 636 CURVE",
"845 599 OFFCURVE",
"847 559 OFFCURVE",
"847 518 CURVE SMOOTH",
"847 272 OFFCURVE",
"752 90 OFFCURVE"
);
},
{
closed = 1;
nodes = (
"970 1378 LINE",
"929 1451 LINE",
"638 1300 LINE",
"551 1375 OFFCURVE",
"455 1437 OFFCURVE",
"355 1490 CURVE",
"291 1402 LINE",
"377 1354 OFFCURVE",
"457 1303 OFFCURVE",
"530 1244 CURVE",
"266 1109 LINE",
"307 1036 LINE",
"597 1186 LINE",
"705 1080 OFFCURVE",
"786 949 OFFCURVE",
"823 768 CURVE",
"749 865 OFFCURVE",
"647 911 OFFCURVE",
"537 911 CURVE SMOOTH",
"294 911 OFFCURVE",
"115 727 OFFCURVE",
"115 453 CURVE SMOOTH",
"115 156 OFFCURVE",
"323 -25 OFFCURVE",
"549 -25 CURVE SMOOTH",
"807 -25 OFFCURVE",
"981 194 OFFCURVE",
"981 522 CURVE SMOOTH",
"981 850 OFFCURVE",
"866 1075 OFFCURVE",
"703 1241 CURVE"
);
}
);
width = 1108;
}
);
unicode = 00F0;
userData = {
com.typemytype.robofont.mark = (
1,
0.6,
0.6,
1
);
};
},
{
glyphname = dcroat;
lastChange = "2015-01-16 19:41:48 +0000";
layers = (
{
hints = (
{
horizontal = 1;
origin = "{0, 0}";
target = "{0, 0}";
type = Tag;
name = hr01;
},
{
horizontal = 1;
origin = "{1, 23}";
target = "{0, 0}";
type = Tag;
name = hr02;
}
);
layerId = "F1FC1B3B-4EE8-4ECF-8776-11160932002C";
name = Light;
paths = (
{
closed = 1;
nodes = (
"814 239 LINE",
"723 142 OFFCURVE",
"636 92 OFFCURVE",
"537 92 CURVE SMOOTH",
"349 92 OFFCURVE",
"243 238 OFFCURVE",
"243 474 CURVE SMOOTH",
"243 697 OFFCURVE",
"379 858 OFFCURVE",
"554 858 CURVE SMOOTH",
"641 858 OFFCURVE",
"722 827 OFFCURVE",
"814 744 CURVE"
);
},
{
closed = 1;
nodes = (
"1101 1263 LINE",
"951 1263 LINE",
"951 1464 LINE",
"814 1464 LINE",
"814 1263 LINE",
"476 1263 LINE",
"476 1178 LINE",
"814 1178 LINE",
"814 1031 LINE",
"821 857 LINE",
"728 930 OFFCURVE",
"651 974 OFFCURVE",
"534 974 CURVE SMOOTH",
"304 974 OFFCURVE",
"100 780 OFFCURVE",
"100 473 CURVE SMOOTH",
"100 154 OFFCURVE",
"261 -25 OFFCURVE",
"510 -25 CURVE SMOOTH",
"634 -25 OFFCURVE",
"740 40 OFFCURVE",
"818 119 CURVE",
"823 119 LINE",
"834 0 LINE",
"951 0 LINE",
"951 1178 LINE",
"1101 1187 LINE"
);
}
);
width = 1128;
}
);
unicode = 0111;
userData = {
com.adobe.type.autohint = "ICA8aGludFNldExpc3Q+CiAgICA8aGludHNldCBw";
};
},
{
color = (255,153,153,1);
glyphname = e;
lastChange = "2015-01-15 10:08:19 +0000";
layers = (
{
anchors = (
{
name = top;
position = "{547, 1050}";
}
);
layerId = "F1FC1B3B-4EE8-4ECF-8776-11160932002C";
name = Light;
paths = (
{
closed = 1;
nodes = (
"98 494 CURVE SMOOTH",
"98 163 OFFCURVE",
"307 -25 OFFCURVE",
"567 -25 CURVE SMOOTH",
"706 -25 OFFCURVE",
"804 19 OFFCURVE",
"886 70 CURVE",
"836 163 LINE",
"762 114 OFFCURVE",
"682 87 OFFCURVE",
"583 87 CURVE SMOOTH",
"379 87 OFFCURVE",
"244 235 OFFCURVE",
"235 468 CURVE",
"922 468 LINE",
"926 493 OFFCURVE",
"927 522 OFFCURVE",
"927 553 CURVE SMOOTH",
"927 846 OFFCURVE",
"793 1016 OFFCURVE",
"537 1016 CURVE SMOOTH",
"303 1016 OFFCURVE",
"98 823 OFFCURVE"
);
},
{
closed = 1;
nodes = (
"234 562 LINE",
"253 779 OFFCURVE",
"384 905 OFFCURVE",
"541 905 CURVE SMOOTH",
"710 905 OFFCURVE",
"805 791 OFFCURVE",
"805 562 CURVE"
);
}
);
width = 1005;
}
);
unicode = 0065;
userData = {
com.typemytype.robofont.mark = (
1,
0.6,
0.6,
1
);
};
},
{
glyphname = eogonek;
lastChange = "2015-01-15 10:08:19 +0000";
layers = (
{
layerId = "F1FC1B3B-4EE8-4ECF-8776-11160932002C";
name = Light;
paths = (
{
closed = 1;
nodes = (
"99 493 CURVE SMOOTH",
"99 169 OFFCURVE",
"307 -25 OFFCURVE",
"567 -25 CURVE SMOOTH",
"605 -25 OFFCURVE",
"641 -22 OFFCURVE",
"679 -8 CURVE",
"624 -56 OFFCURVE",
"554 -146 OFFCURVE",
"554 -249 CURVE SMOOTH",
"554 -361 OFFCURVE",
"631 -420 OFFCURVE",
"731 -420 CURVE SMOOTH",
"778 -420 OFFCURVE",
"844 -396 OFFCURVE",
"879 -368 CURVE",
"841 -296 LINE",
"815 -314 OFFCURVE",
"791 -323 OFFCURVE",
"756 -323 CURVE SMOOTH",
"704 -323 OFFCURVE",
"658 -290 OFFCURVE",
"658 -224 CURVE SMOOTH",
"658 -136 OFFCURVE",
"710 -52 OFFCURVE",
"887 76 CURVE",
"838 169 LINE",
"764 119 OFFCURVE",
"682 87 OFFCURVE",
"583 87 CURVE SMOOTH",
"379 87 OFFCURVE",
"244 240 OFFCURVE",
"235 468 CURVE",
"922 468 LINE",
"926 493 OFFCURVE",
"927 518 OFFCURVE",
"927 553 CURVE SMOOTH",
"927 840 OFFCURVE",
"784 1015 OFFCURVE",
"539 1015 CURVE SMOOTH",
"314 1015 OFFCURVE",
"99 817 OFFCURVE"
);
},
{
closed = 1;
nodes = (
"234 562 LINE",
"254 778 OFFCURVE",
"391 905 OFFCURVE",
"542 905 CURVE SMOOTH",
"707 905 OFFCURVE",
"805 785 OFFCURVE",
"805 562 CURVE"
);
}
);
width = 1005;
}
);
unicode = 0119;
},
{
color = (255,153,153,1);
glyphname = f;
lastChange = "2015-01-15 10:08:19 +0000";
layers = (
{
anchors = (
{
name = top;
position = "{345, 1050}";
}
);
layerId = "F1FC1B3B-4EE8-4ECF-8776-11160932002C";
name = Light;
paths = (
{
closed = 1;
nodes = (
"627 1456 LINE",
"582 1475 OFFCURVE",
"526 1489 OFFCURVE",
"470 1489 CURVE SMOOTH",
"290 1489 OFFCURVE",
"199 1375 OFFCURVE",
"199 1175 CURVE SMOOTH",
"199 990 LINE",
"64 981 LINE",
"64 877 LINE",
"199 877 LINE",
"199 0 LINE",
"335 0 LINE",
"335 877 LINE",
"552 877 LINE",
"552 990 LINE",
"335 990 LINE",
"335 1173 LINE",
"335 1306 OFFCURVE",
"382 1376 OFFCURVE",
"480 1376 CURVE SMOOTH",
"517 1376 OFFCURVE",
"557 1367 OFFCURVE",
"595 1350 CURVE"
);
}
);
width = 574;
}
);
unicode = 0066;
userData = {
com.typemytype.robofont.mark = (
1,
0.6,
0.6,
1
);
};
},
{
color = (255,153,153,1);
glyphname = g;
lastChange = "2015-01-15 10:08:19 +0000";
layers = (
{
anchors = (
{
name = top;
position = "{546, 1050}";
}
);
layerId = "F1FC1B3B-4EE8-4ECF-8776-11160932002C";
name = Light;
paths = (
{
closed = 1;
nodes = (
"222 -178 CURVE SMOOTH",
"222 -114 OFFCURVE",
"254 -39 OFFCURVE",
"334 16 CURVE",
"380 4 OFFCURVE",
"429 0 OFFCURVE",
"460 0 CURVE SMOOTH",
"648 0 LINE",
"791 0 OFFCURVE",
"860 -45 OFFCURVE",
"860 -144 CURVE SMOOTH",
"860 -256 OFFCURVE",
"733 -364 OFFCURVE",
"525 -364 CURVE SMOOTH",
"321 -364 OFFCURVE",
"222 -291 OFFCURVE"
);
},
{
closed = 1;
nodes = (
"98 -195 CURVE SMOOTH",
"98 -364 OFFCURVE",
"235 -465 OFFCURVE",
"505 -465 CURVE SMOOTH",
"813 -465 OFFCURVE",
"994 -304 OFFCURVE",
"994 -126 CURVE SMOOTH",
"994 36 OFFCURVE",
"902 115 OFFCURVE",
"669 115 CURVE SMOOTH",
"456 115 LINE",
"316 115 OFFCURVE",
"275 165 OFFCURVE",
"275 231 CURVE SMOOTH",
"275 291 OFFCURVE",
"307 319 OFFCURVE",
"345 352 CURVE",
"390 328 OFFCURVE",
"446 314 OFFCURVE",
"501 314 CURVE SMOOTH",
"705 314 OFFCURVE",
"857 445 OFFCURVE",
"857 660 CURVE SMOOTH",
"857 771 OFFCURVE",
"817 840 OFFCURVE",
"763 883 CURVE",
"977 883 LINE",
"977 990 LINE",
"637 990 LINE",
"602 1004 OFFCURVE",
"561 1015 OFFCURVE",
"501 1015 CURVE SMOOTH",
"296 1015 OFFCURVE",
"137 894 OFFCURVE",
"137 664 CURVE SMOOTH",
"137 540 OFFCURVE",
"200 448 OFFCURVE",
"264 395 CURVE",
"264 387 LINE",
"216 353 OFFCURVE",
"157 297 OFFCURVE",
"157 212 CURVE SMOOTH",
"157 135 OFFCURVE",
"194 82 OFFCURVE",
"244 52 CURVE",
"244 44 LINE",
"153 -17 OFFCURVE",
"98 -107 OFFCURVE"
);
},
{
closed = 1;
nodes = (
"501 410 CURVE SMOOTH",
"376 410 OFFCURVE",
"271 504 OFFCURVE",
"271 664 CURVE SMOOTH",
"271 831 OFFCURVE",
"368 912 OFFCURVE",
"501 912 CURVE SMOOTH",
"633 912 OFFCURVE",
"729 834 OFFCURVE",
"729 664 CURVE SMOOTH",
"729 502 OFFCURVE",
"623 410 OFFCURVE"
);
}
);
width = 1018;
}
);
unicode = 0067;
userData = {
com.typemytype.robofont.mark = (
1,
0.6,
0.6,
1
);
};
},
{
color = (167,255,153,1);
glyphname = gbreve;
lastChange = "2015-01-15 10:08:19 +0000";
layers = (
{
components = (
{
name = g;
transform = "{1, 0, 0, 1, 0, 0}";
}
);
layerId = "F1FC1B3B-4EE8-4ECF-8776-11160932002C";
name = Light;
paths = (
{
closed = 1;
nodes = (
"509 1179 CURVE SMOOTH",
"682 1179 OFFCURVE",
"751 1318 OFFCURVE",
"761 1432 CURVE",
"672 1432 LINE",
"661 1349 OFFCURVE",
"610 1267 OFFCURVE",
"509 1267 CURVE SMOOTH",
"408 1267 OFFCURVE",
"357 1349 OFFCURVE",
"346 1432 CURVE",
"257 1432 LINE",
"267 1318 OFFCURVE",
"336 1179 OFFCURVE"
);
}
);
width = 1018;
}
);
unicode = 011F;
userData = {
com.typemytype.robofont.mark = (
0.656,
1,
0.6,
1
);
};
},
{
color = (167,255,153,1);
glyphname = gcircumflex;
lastChange = "2015-01-15 10:08:19 +0000";
layers = (
{
components = (
{
name = g;
transform = "{1, 0, 0, 1, 0, 0}";
}
);
layerId = "F1FC1B3B-4EE8-4ECF-8776-11160932002C";
name = Light;
paths = (
{
closed = 1;
nodes = (
"258 1173 LINE",
"361 1173 LINE",
"505 1366 LINE",
"513 1366 LINE",
"657 1173 LINE",
"760 1173 LINE",
"566 1457 LINE",
"452 1457 LINE"
);
}
);
width = 1018;
}
);
unicode = 011D;
userData = {
com.typemytype.robofont.mark = (
0.656,
1,
0.6,
1
);
};
},
{
color = (167,255,153,1);
glyphname = gdotaccent;
lastChange = "2015-01-16 19:41:48 +0000";
layers = (
{
components = (
{
name = g;
transform = "{1, 0, 0, 1, 0, 0}";
}
);
hints = (
{
horizontal = 1;
origin = "{0, 0}";
target = "{0, 0}";
type = Tag;
name = hr00;
}
);
layerId = "F1FC1B3B-4EE8-4ECF-8776-11160932002C";
name = Light;
paths = (
{
closed = 1;
nodes = (
"509 1209 CURVE SMOOTH",
"565 1209 OFFCURVE",
"606 1248 OFFCURVE",
"606 1309 CURVE SMOOTH",
"606 1365 OFFCURVE",
"565 1406 OFFCURVE",
"509 1406 CURVE SMOOTH",
"453 1406 OFFCURVE",
"412 1365 OFFCURVE",
"412 1309 CURVE SMOOTH",
"412 1248 OFFCURVE",
"453 1209 OFFCURVE"
);
}
);
width = 1018;
}
);
unicode = 0121;
userData = {
com.adobe.type.autohint = "ICA8aGludFNldExpc3Q+CiAgICA8aGludHNldCBw";
com.typemytype.robofont.mark = (
0.656,
1,
0.6,
1
);
};
},
{
color = (255,153,153,1);
glyphname = h;
lastChange = "2015-01-15 10:08:19 +0000";
layers = (
{
anchors = (
{
name = top;
position = "{560, 1050}";
}
);
layerId = "F1FC1B3B-4EE8-4ECF-8776-11160932002C";
name = Light;
paths = (
{
closed = 1;
nodes = (
"176 0 LINE",
"313 0 LINE",
"313 729 LINE",
"421 839 OFFCURVE",
"497 895 OFFCURVE",
"605 895 CURVE SMOOTH",
"751 895 OFFCURVE",
"808 810 OFFCURVE",
"808 614 CURVE SMOOTH",
"808 0 LINE",
"944 0 LINE",
"944 633 LINE",
"944 887 OFFCURVE",
"854 1015 OFFCURVE",
"644 1015 CURVE SMOOTH",
"507 1015 OFFCURVE",
"406 940 OFFCURVE",
"309 845 CURVE",
"313 1055 LINE",
"313 1464 LINE",
"176 1464 LINE"
);
}
);
width = 1100;
}
);
unicode = 0068;
userData = {
com.typemytype.robofont.mark = (
1,
0.6,
0.6,
1
);
};
},
{
glyphname = hbar;
lastChange = "2015-01-16 19:41:48 +0000";
layers = (
{
hints = (
{
horizontal = 1;
origin = "{0, 0}";
target = "{0, 0}";
type = Tag;
name = hr00;
}
);
layerId = "F1FC1B3B-4EE8-4ECF-8776-11160932002C";
name = Light;
paths = (
{
closed = 1;
nodes = (
"313 1014 LINE",
"313 1178 LINE",
"692 1178 LINE",
"692 1263 LINE",
"313 1263 LINE",
"313 1464 LINE",
"176 1464 LINE",
"176 1263 LINE",
"22 1254 LINE",
"22 1178 LINE",
"176 1178 LINE",
"176 0 LINE",
"313 0 LINE",
"313 688 LINE",
"421 798 OFFCURVE",
"497 855 OFFCURVE",
"605 855 CURVE SMOOTH",
"748 855 OFFCURVE",
"808 767 OFFCURVE",
"808 572 CURVE SMOOTH",
"808 0 LINE",
"944 0 LINE",
"944 590 LINE",
"944 844 OFFCURVE",
"850 974 OFFCURVE",
"644 974 CURVE SMOOTH",
"507 974 OFFCURVE",
"406 899 OFFCURVE",
"309 804 CURVE"
);
}
);
width = 1100;
}
);
unicode = 0127;
userData = {
com.adobe.type.autohint = "ICA8aGludFNldExpc3Q+CiAgICA8aGludHNldCBw";
};
},
{
color = (167,255,153,1);
glyphname = hcircumflex;
lastChange = "2015-01-15 10:08:19 +0000";
layers = (
{
layerId = "F1FC1B3B-4EE8-4ECF-8776-11160932002C";
name = Light;
paths = (
{
closed = 1;
nodes = (
"176 0 LINE",
"313 0 LINE",
"313 729 LINE",
"421 839 OFFCURVE",
"497 895 OFFCURVE",
"605 895 CURVE SMOOTH",
"748 895 OFFCURVE",
"808 808 OFFCURVE",
"808 612 CURVE SMOOTH",
"808 0 LINE",
"944 0 LINE",
"944 631 LINE",
"944 885 OFFCURVE",
"850 1015 OFFCURVE",
"644 1015 CURVE SMOOTH",
"507 1015 OFFCURVE",
"406 940 OFFCURVE",
"309 845 CURVE",
"313 1055 LINE",
"313 1464 LINE",
"176 1464 LINE"
);
},
{
closed = 1;
nodes = (
"99 1533 LINE",
"243 1676 LINE",
"251 1676 LINE",
"395 1533 LINE",
"508 1533 LINE",
"312 1756 LINE",
"181 1756 LINE",
"-16 1533 LINE"
);
}
);
width = 1100;
}
);
unicode = 0125;
userData = {
com.typemytype.robofont.mark = (
0.656,
1,
0.6,
1
);
};
},
{
color = (255,153,153,1);
glyphname = i;
lastChange = "2015-01-15 10:08:19 +0000";
layers = (
{
anchors = (
{
name = top;
position = "{246, 1050}";
}
);
layerId = "F1FC1B3B-4EE8-4ECF-8776-11160932002C";
name = Light;
paths = (
{
closed = 1;
nodes = (
"247 1209 CURVE SMOOTH",
"303 1209 OFFCURVE",
"349 1248 OFFCURVE",
"349 1305 CURVE SMOOTH",
"349 1365 OFFCURVE",
"303 1403 OFFCURVE",
"247 1403 CURVE SMOOTH",
"189 1403 OFFCURVE",
"144 1365 OFFCURVE",
"144 1305 CURVE SMOOTH",
"144 1248 OFFCURVE",
"189 1209 OFFCURVE"
);
},
{
closed = 1;
nodes = (
"176 0 LINE",
"313 0 LINE",
"313 990 LINE",
"176 990 LINE"
);
}
);
width = 490;
}
);
unicode = 0069;
userData = {
com.typemytype.robofont.mark = (
1,
0.6,
0.6,
1
);
};
},
{
color = (255,153,153,1);
glyphname = dotlessi;
lastChange = "2015-01-15 10:08:19 +0000";
layers = (
{
anchors = (
{
name = top;
position = "{244, 1050}";
}
);
layerId = "F1FC1B3B-4EE8-4ECF-8776-11160932002C";
name = Light;
paths = (
{
closed = 1;
nodes = (
"176 0 LINE",
"313 0 LINE",
"313 990 LINE",
"176 990 LINE"
);
}
);
width = 490;
}
);
unicode = 0131;
userData = {
com.typemytype.robofont.mark = (
1,
0.6,
0.6,
1
);
};
},
{
glyphname = iogonek;
lastChange = "2015-01-15 10:08:19 +0000";
layers = (
{
layerId = "F1FC1B3B-4EE8-4ECF-8776-11160932002C";
name = Light;
paths = (
{
closed = 1;
nodes = (
"176 0 LINE",
"207 0 LINE",
"148 -61 OFFCURVE",
"77 -140 OFFCURVE",
"77 -249 CURVE SMOOTH",
"77 -361 OFFCURVE",
"155 -420 OFFCURVE",
"255 -420 CURVE SMOOTH",
"303 -420 OFFCURVE",
"368 -396 OFFCURVE",
"404 -368 CURVE",
"365 -296 LINE",
"337 -314 OFFCURVE",
"313 -323 OFFCURVE",
"281 -323 CURVE SMOOTH",
"230 -323 OFFCURVE",
"183 -290 OFFCURVE",
"183 -224 CURVE SMOOTH",
"183 -141 OFFCURVE",
"237 -64 OFFCURVE",
"313 0 CURVE",
"313 990 LINE",
"176 990 LINE"
);
},
{
closed = 1;
nodes = (
"243 1209 CURVE SMOOTH",
"299 1209 OFFCURVE",
"346 1248 OFFCURVE",
"346 1305 CURVE SMOOTH",
"346 1365 OFFCURVE",
"299 1403 OFFCURVE",
"243 1403 CURVE SMOOTH",
"187 1403 OFFCURVE",
"141 1365 OFFCURVE",
"141 1305 CURVE SMOOTH",
"141 1248 OFFCURVE",
"187 1209 OFFCURVE"
);
}
);
width = 490;
}
);
unicode = 012F;
},
{
color = (255,153,153,1);
glyphname = j;
lastChange = "2015-01-16 19:41:48 +0000";
layers = (
{
anchors = (
{
name = top;
position = "{137, 1050}";
}
);
hints = (
{
horizontal = 1;
origin = "{0, 0}";
target = "{0, 0}";
type = Tag;
name = hr01;
},
{
horizontal = 1;
origin = "{0, 7}";
target = "{0, 0}";
type = Tag;
name = hr02;
},
{
horizontal = 1;
origin = "{0, 10}";
target = "{0, 0}";
type = Tag;
name = hr03;
},
{
horizontal = 1;
origin = "{1, 0}";
target = "{0, 0}";
type = Tag;
name = hr04;
}
);
layerId = "F1FC1B3B-4EE8-4ECF-8776-11160932002C";
name = Light;
paths = (
{
closed = 1;
nodes = (
"177 -142 LINE",
"177 -264 OFFCURVE",
"154 -341 OFFCURVE",
"51 -341 CURVE SMOOTH",
"14 -341 OFFCURVE",
"-22 -332 OFFCURVE",
"-46 -324 CURVE",
"-76 -429 LINE",
"-43 -442 OFFCURVE",
"7 -454 OFFCURVE",
"63 -454 CURVE SMOOTH",
"242 -454 OFFCURVE",
"315 -343 OFFCURVE",
"315 -145 CURVE SMOOTH",
"315 990 LINE",
"177 990 LINE"
);
},
{
closed = 1;
nodes = (
"248 1209 CURVE SMOOTH",
"303 1209 OFFCURVE",
"350 1248 OFFCURVE",
"350 1305 CURVE SMOOTH",
"350 1365 OFFCURVE",
"303 1403 OFFCURVE",
"248 1403 CURVE SMOOTH",
"191 1403 OFFCURVE",
"145 1365 OFFCURVE",
"145 1305 CURVE SMOOTH",
"145 1248 OFFCURVE",
"191 1209 OFFCURVE"
);
}
);
width = 491;
}
);
unicode = 006A;
userData = {
com.adobe.type.autohint = "ICA8aGludFNldExpc3Q+CiAgICA8aGludHNldCBw";
com.typemytype.robofont.mark = (
1,
0.6,
0.6,
1
);
};
},
{
color = (255,153,153,1);
glyphname = dotlessj;
lastChange = "2015-01-15 10:08:19 +0000";
layers = (
{
anchors = (
{
name = top;
position = "{248, 1050}";
}
);
layerId = "F1FC1B3B-4EE8-4ECF-8776-11160932002C";
name = Light;
paths = (
{
closed = 1;
nodes = (
"177 -142 LINE",
"177 -264 OFFCURVE",
"154 -341 OFFCURVE",
"51 -341 CURVE SMOOTH",
"14 -341 OFFCURVE",
"-22 -332 OFFCURVE",
"-46 -324 CURVE",
"-76 -429 LINE",
"-43 -442 OFFCURVE",
"7 -454 OFFCURVE",
"63 -454 CURVE SMOOTH",
"242 -454 OFFCURVE",
"315 -343 OFFCURVE",
"315 -145 CURVE SMOOTH",
"315 990 LINE",
"177 990 LINE"
);
}
);
width = 491;
}
);
unicode = 0237;
userData = {
com.typemytype.robofont.mark = (
1,
0.6,
0.6,
1
);
};
},
{
color = (255,153,153,1);
glyphname = k;
lastChange = "2015-01-15 10:08:19 +0000";
layers = (
{
anchors = (
{
name = top;
position = "{571, 1050}";
}
);
layerId = "F1FC1B3B-4EE8-4ECF-8776-11160932002C";
name = Light;
paths = (
{
closed = 1;
nodes = (
"176 0 LINE",
"311 0 LINE",
"311 264 LINE",
"512 498 LINE",
"817 0 LINE",
"967 0 LINE",
"590 595 LINE",
"918 990 LINE",
"766 990 LINE",
"317 437 LINE",
"311 437 LINE",
"311 1464 LINE",
"176 1464 LINE"
);
}
);
width = 988;
}
);
unicode = 006B;
userData = {
com.typemytype.robofont.mark = (
1,
0.6,
0.6,
1
);
};
},
{
glyphname = kgreenlandic;
lastChange = "2015-01-16 19:41:48 +0000";
layers = (
{
hints = (
{
horizontal = 1;
origin = "{0, 0}";
target = "{0, 0}";
type = Tag;
name = hr00;
}
);
layerId = "F1FC1B3B-4EE8-4ECF-8776-11160932002C";
name = Light;
paths = (
{
closed = 1;
nodes = (
"176 0 LINE",
"313 0 LINE",
"313 260 LINE",
"512 495 LINE",
"817 0 LINE",
"967 0 LINE",
"593 595 LINE",
"918 990 LINE",
"766 990 LINE",
"319 434 LINE",
"313 434 LINE",
"313 990 LINE",
"176 990 LINE"
);
}
);
width = 988;
}
);
unicode = 0138;
userData = {
com.adobe.type.autohint = "ICA8aGludFNldExpc3Q+CiAgICA8aGludHNldCBw";
};
},
{
color = (255,153,153,1);
glyphname = l;
lastChange = "2015-01-18 15:20:24 +0000";
layers = (
{
anchors = (
{
name = bottom;
position = "{254, 0}";
},
{
name = top;
position = "{295, 1050}";
},
{
name = topright;
position = "{487, 1140}";
}
);
layerId = "F1FC1B3B-4EE8-4ECF-8776-11160932002C";
name = Light;
paths = (
{
closed = 1;
nodes = (
"176 172 LINE",
"176 43 OFFCURVE",
"223 -25 OFFCURVE",
"331 -25 CURVE SMOOTH",
"369 -25 OFFCURVE",
"394 -19 OFFCURVE",
"415 -10 CURVE",
"395 94 LINE",
"375 90 OFFCURVE",
"367 90 OFFCURVE",
"358 90 CURVE SMOOTH",
"333 90 OFFCURVE",
"313 111 OFFCURVE",
"313 160 CURVE SMOOTH",
"313 1464 LINE",
"176 1464 LINE"
);
}
);
width = 507;
}
);
unicode = 006C;
userData = {
com.typemytype.robofont.mark = (
1,
0.6,
0.6,
1
);
};
},
{
color = (167,255,153,1);
glyphname = lcaron;
lastChange = "2015-01-16 19:41:48 +0000";
layers = (
{
components = (
{
name = uni030C.a;
transform = "{1, 0, 0, 1, 530, 0}";
}
);
hints = (
{
horizontal = 1;
origin = "{0, 0}";
target = "{0, 0}";
type = Tag;
name = hr01;
},
{
horizontal = 1;
origin = "{0, 3}";
target = "{0, 0}";
type = Tag;
name = hr02;
}
);
layerId = "F1FC1B3B-4EE8-4ECF-8776-11160932002C";
name = Light;
paths = (
{
closed = 1;
nodes = (
"176 172 LINE SMOOTH",
"176 43 OFFCURVE",
"223 -25 OFFCURVE",
"331 -25 CURVE SMOOTH",
"369 -25 OFFCURVE",
"394 -19 OFFCURVE",
"415 -10 CURVE",
"395 94 LINE",
"375 90 OFFCURVE",
"367 90 OFFCURVE",
"358 90 CURVE SMOOTH",
"333 90 OFFCURVE",
"313 111 OFFCURVE",
"313 160 CURVE SMOOTH",
"313 1464 LINE",
"176 1464 LINE"
);
}
);
width = 563;
}
);
unicode = 013E;
userData = {
com.adobe.type.autohint = "ICA8aGludFNldExpc3Q+CiAgICA8aGludHNldCBw";
com.typemytype.robofont.mark = (
0.656,
1,
0.6,
1
);
};
},
{
glyphname = lslash;
lastChange = "2015-01-16 19:41:48 +0000";
layers = (
{
hints = (
{
horizontal = 1;
origin = "{0, 0}";
target = "{0, 0}";
type = Tag;
name = hr01;
},
{
horizontal = 1;
origin = "{0, 12}";
target = "{0, 0}";
type = Tag;
name = hr02;
}
);
layerId = "F1FC1B3B-4EE8-4ECF-8776-11160932002C";
name = Light;
paths = (
{
closed = 1;
nodes = (
"466 873 LINE",
"466 994 LINE",
"320 899 LINE",
"320 1464 LINE",
"182 1464 LINE",
"182 825 LINE",
"51 741 LINE",
"51 621 LINE",
"182 705 LINE",
"182 172 LINE",
"182 43 OFFCURVE",
"230 -25 OFFCURVE",
"336 -25 CURVE SMOOTH",
"376 -25 OFFCURVE",
"399 -19 OFFCURVE",
"422 -10 CURVE",
"401 94 LINE",
"382 90 OFFCURVE",
"374 90 OFFCURVE",
"365 90 CURVE SMOOTH",
"340 90 OFFCURVE",
"320 111 OFFCURVE",
"320 160 CURVE SMOOTH",
"320 779 LINE"
);
}
);
width = 517;
}
);
unicode = 0142;
userData = {
com.adobe.type.autohint = "ICA8aGludFNldExpc3Q+CiAgICA8aGludHNldCBw";
};
},
{
color = (255,153,153,1);
glyphname = m;
lastChange = "2015-01-15 10:08:19 +0000";
layers = (
{
anchors = (
{
name = top;
position = "{848, 1050}";
}
);
layerId = "F1FC1B3B-4EE8-4ECF-8776-11160932002C";
name = Light;
paths = (
{
closed = 1;
nodes = (
"176 0 LINE",
"313 0 LINE",
"313 729 LINE",
"411 840 OFFCURVE",
"501 895 OFFCURVE",
"581 895 CURVE SMOOTH",
"724 895 OFFCURVE",
"781 811 OFFCURVE",
"781 615 CURVE SMOOTH",
"781 0 LINE",
"917 0 LINE",
"917 732 LINE",
"1016 843 OFFCURVE",
"1102 895 OFFCURVE",
"1186 895 CURVE SMOOTH",
"1327 895 OFFCURVE",
"1384 811 OFFCURVE",
"1384 615 CURVE SMOOTH",
"1384 0 LINE",
"1521 0 LINE",
"1521 634 LINE",
"1521 888 OFFCURVE",
"1429 1015 OFFCURVE",
"1221 1015 CURVE SMOOTH",
"1104 1015 OFFCURVE",
"999 940 OFFCURVE",
"891 823 CURVE",
"852 943 OFFCURVE",
"777 1015 OFFCURVE",
"618 1015 CURVE SMOOTH",
"503 1015 OFFCURVE",
"396 940 OFFCURVE",
"309 843 CURVE",
"302 843 LINE",
"290 990 LINE",
"176 990 LINE"
);
}
);
width = 1684;
}
);
unicode = 006D;
userData = {
com.typemytype.robofont.mark = (
1,
0.6,
0.6,
1
);
};
},
{
color = (255,153,153,1);
glyphname = n;
lastChange = "2015-01-15 10:08:19 +0000";
layers = (
{
anchors = (
{
name = top;
position = "{560, 1050}";
}
);
layerId = "F1FC1B3B-4EE8-4ECF-8776-11160932002C";
name = Light;
paths = (
{
closed = 1;
nodes = (
"176 0 LINE",
"313 0 LINE",
"313 729 LINE",
"421 839 OFFCURVE",
"497 895 OFFCURVE",
"605 895 CURVE SMOOTH",
"754 895 OFFCURVE",
"808 811 OFFCURVE",
"808 615 CURVE SMOOTH",
"808 0 LINE",
"944 0 LINE",
"944 634 LINE",
"944 888 OFFCURVE",
"856 1015 OFFCURVE",
"644 1015 CURVE SMOOTH",
"507 1015 OFFCURVE",
"405 940 OFFCURVE",
"309 843 CURVE",
"302 843 LINE",
"290 990 LINE",
"176 990 LINE"
);
}
);
width = 1108;
}
);
unicode = 006E;
userData = {
com.typemytype.robofont.mark = (
1,
0.6,
0.6,
1
);
};
},
{
color = (255,153,153,1);
glyphname = o;
lastChange = "2015-01-15 10:08:19 +0000";
layers = (
{
anchors = (
{
name = top;
position = "{552, 1050}";
}
);
layerId = "F1FC1B3B-4EE8-4ECF-8776-11160932002C";
name = Light;
paths = (
{
closed = 1;
nodes = (
"100 494 CURVE SMOOTH",
"100 162 OFFCURVE",
"306 -25 OFFCURVE",
"551 -25 CURVE SMOOTH",
"797 -25 OFFCURVE",
"1005 162 OFFCURVE",
"1005 494 CURVE SMOOTH",
"1005 831 OFFCURVE",
"797 1015 OFFCURVE",
"551 1015 CURVE SMOOTH",
"306 1015 OFFCURVE",
"100 831 OFFCURVE"
);
},
{
closed = 1;
nodes = (
"241 494 CURVE SMOOTH",
"241 739 OFFCURVE",
"366 900 OFFCURVE",
"551 900 CURVE SMOOTH",
"737 900 OFFCURVE",
"864 739 OFFCURVE",
"864 494 CURVE SMOOTH",
"864 251 OFFCURVE",
"737 90 OFFCURVE",
"551 90 CURVE SMOOTH",
"366 90 OFFCURVE",
"241 251 OFFCURVE"
);
}
);
width = 1104;
}
);
unicode = 006F;
userData = {
com.typemytype.robofont.mark = (
1,
0.6,
0.6,
1
);
};
},
{
glyphname = ohorn;
lastChange = "2015-01-16 19:41:48 +0000";
layers = (
{
hints = (
{
horizontal = 1;
origin = "{0, 0}";
target = "{0, 0}";
type = Tag;
name = hr01;
},
{
horizontal = 1;
origin = "{1, 0}";
target = "{0, 0}";
type = Tag;
name = hr02;
},
{
horizontal = 1;
origin = "{1, 18}";
target = "{0, 0}";
type = Tag;
name = hr03;
},
{
horizontal = 1;
origin = "{1, 24}";
target = "{0, 0}";
type = Tag;
name = hr04;
}
);
layerId = "F1FC1B3B-4EE8-4ECF-8776-11160932002C";
name = Light;
paths = (
{
closed = 1;
nodes = (
"552 90 CURVE SMOOTH",
"370 90 OFFCURVE",
"241 253 OFFCURVE",
"241 493 CURVE SMOOTH",
"241 735 OFFCURVE",
"370 900 OFFCURVE",
"552 900 CURVE SMOOTH",
"734 900 OFFCURVE",
"864 735 OFFCURVE",
"864 493 CURVE SMOOTH",
"864 253 OFFCURVE",
"734 90 OFFCURVE"
);
},
{
closed = 1;
nodes = (
"874 1191 LINE",
"894 1164 OFFCURVE",
"905 1136 OFFCURVE",
"905 1108 CURVE SMOOTH",
"905 1031 OFFCURVE",
"847 987 OFFCURVE",
"743 972 CURVE",
"684 1001 OFFCURVE",
"619 1015 OFFCURVE",
"552 1015 CURVE SMOOTH",
"311 1015 OFFCURVE",
"99 825 OFFCURVE",
"99 493 CURVE SMOOTH",
"99 165 OFFCURVE",
"311 -25 OFFCURVE",
"552 -25 CURVE SMOOTH",
"793 -25 OFFCURVE",
"1005 165 OFFCURVE",
"1005 493 CURVE SMOOTH",
"1005 682 OFFCURVE",
"936 824 OFFCURVE",
"833 913 CURVE",
"930 941 OFFCURVE",
"1020 997 OFFCURVE",
"1020 1117 CURVE SMOOTH",
"1020 1165 OFFCURVE",
"1003 1206 OFFCURVE",
"976 1243 CURVE"
);
}
);
width = 1104;
}
);
unicode = 01A1;
userData = {
com.adobe.type.autohint = "ICA8aGludFNldExpc3Q+CiAgICA8aGludHNldCBw";
};
},
{
glyphname = oslash;
lastChange = "2015-01-16 19:41:48 +0000";
layers = (
{
hints = (
{
horizontal = 1;
origin = "{0, 0}";
target = "{0, 0}";
type = Tag;
name = hr00;
}
);
layerId = "F1FC1B3B-4EE8-4ECF-8776-11160932002C";
name = Light;
paths = (
{
closed = 1;
nodes = (
"810 742 LINE",
"849 674 OFFCURVE",
"869 589 OFFCURVE",
"869 488 CURVE SMOOTH",
"869 250 OFFCURVE",
"734 87 OFFCURVE",
"552 87 CURVE SMOOTH",
"471 87 OFFCURVE",
"399 119 OFFCURVE",
"344 176 CURVE"
);
},
{
closed = 1;
nodes = (
"293 247 LINE",
"255 314 OFFCURVE",
"235 399 OFFCURVE",
"235 499 CURVE SMOOTH",
"235 738 OFFCURVE",
"370 903 OFFCURVE",
"552 903 CURVE SMOOTH",
"634 903 OFFCURVE",
"706 871 OFFCURVE",
"760 812 CURVE"
);
},
{
closed = 1;
nodes = (
"1010 983 LINE",
"944 1035 LINE",
"839 908 LINE",
"759 978 OFFCURVE",
"657 1015 OFFCURVE",
"552 1015 CURVE SMOOTH",
"311 1015 OFFCURVE",
"99 825 OFFCURVE",
"99 493 CURVE SMOOTH",
"99 348 OFFCURVE",
"141 231 OFFCURVE",
"208 143 CURVE",
"94 6 LINE",
"161 -46 LINE",
"265 82 LINE",
"345 12 OFFCURVE",
"446 -25 OFFCURVE",
"552 -25 CURVE SMOOTH",
"793 -25 OFFCURVE",
"1005 165 OFFCURVE",
"1005 493 CURVE SMOOTH",
"1005 640 OFFCURVE",
"963 759 OFFCURVE",
"896 847 CURVE"
);
}
);
width = 1104;
}
);
unicode = 00F8;
userData = {
com.adobe.type.autohint = "ICA8aGludFNldExpc3Q+CiAgICA8aGludHNldCBw";
};
},
{
color = (255,153,153,1);
glyphname = oe;
lastChange = "2015-01-15 10:08:19 +0000";
layers = (
{
anchors = (
{
name = top;
position = "{874, 1050}";
}
);
layerId = "F1FC1B3B-4EE8-4ECF-8776-11160932002C";
name = Light;
paths = (
{
closed = 1;
nodes = (
"239 493 CURVE SMOOTH",
"239 735 OFFCURVE",
"367 900 OFFCURVE",
"543 900 CURVE SMOOTH",
"720 900 OFFCURVE",
"845 735 OFFCURVE",
"845 493 CURVE SMOOTH",
"845 253 OFFCURVE",
"720 90 OFFCURVE",
"543 90 CURVE SMOOTH",
"367 90 OFFCURVE",
"239 253 OFFCURVE"
);
},
{
closed = 1;
nodes = (
"99 493 CURVE SMOOTH",
"99 165 OFFCURVE",
"304 -25 OFFCURVE",
"540 -25 CURVE SMOOTH",
"707 -25 OFFCURVE",
"836 65 OFFCURVE",
"913 240 CURVE",
"986 77 OFFCURVE",
"1126 -25 OFFCURVE",
"1288 -25 CURVE SMOOTH",
"1427 -25 OFFCURVE",
"1527 24 OFFCURVE",
"1609 76 CURVE",
"1557 174 LINE",
"1483 124 OFFCURVE",
"1404 89 OFFCURVE",
"1304 89 CURVE SMOOTH",
"1122 89 OFFCURVE",
"979 242 OFFCURVE",
"974 466 CURVE",
"1643 466 LINE",
"1647 490 OFFCURVE",
"1649 520 OFFCURVE",
"1649 552 CURVE SMOOTH",
"1649 838 OFFCURVE",
"1508 1015 OFFCURVE",
"1268 1015 CURVE SMOOTH",
"1117 1015 OFFCURVE",
"985 913 OFFCURVE",
"911 748 CURVE",
"841 923 OFFCURVE",
"696 1015 OFFCURVE",
"543 1015 CURVE SMOOTH",
"305 1015 OFFCURVE",
"99 825 OFFCURVE"
);
},
{
closed = 1;
nodes = (
"974 561 LINE",
"993 768 OFFCURVE",
"1117 905 OFFCURVE",
"1265 905 CURVE SMOOTH",
"1426 905 OFFCURVE",
"1527 785 OFFCURVE",
"1527 561 CURVE"
);
}
);
width = 1726;
}
);
unicode = 0153;
userData = {
com.typemytype.robofont.mark = (
1,
0.6,
0.6,
1
);
};
},
{
color = (255,153,153,1);
glyphname = p;
lastChange = "2015-01-15 10:08:19 +0000";
layers = (
{
anchors = (
{
name = top;
position = "{601, 1050}";
}
);
layerId = "F1FC1B3B-4EE8-4ECF-8776-11160932002C";
name = Light;
paths = (
{
closed = 1;
nodes = (
"310 92 LINE",
"406 19 OFFCURVE",
"499 -25 OFFCURVE",
"593 -25 CURVE SMOOTH",
"826 -25 OFFCURVE",
"1026 167 OFFCURVE",
"1026 508 CURVE SMOOTH",
"1026 820 OFFCURVE",
"895 1015 OFFCURVE",
"632 1015 CURVE SMOOTH",
"512 1015 OFFCURVE",
"401 948 OFFCURVE",
"309 872 CURVE",
"302 872 LINE",
"290 990 LINE",
"176 990 LINE",
"176 -430 LINE",
"313 -430 LINE",
"313 -85 LINE"
);
},
{
closed = 1;
nodes = (
"313 205 CURVE",
"313 752 LINE",
"419 847 OFFCURVE",
"509 899 OFFCURVE",
"600 899 CURVE SMOOTH",
"807 899 OFFCURVE",
"883 741 OFFCURVE",
"883 508 CURVE SMOOTH",
"883 251 OFFCURVE",
"754 92 OFFCURVE",
"574 92 CURVE SMOOTH",
"503 92 OFFCURVE",
"412 122 OFFCURVE"
);
}
);
width = 1128;
}
);
unicode = 0070;
userData = {
com.typemytype.robofont.mark = (
1,
0.6,
0.6,
1
);
};
},
{
color = (255,153,153,1);
glyphname = thorn;
lastChange = "2015-01-15 10:08:19 +0000";
layers = (
{
anchors = (
{
name = top;
position = "{601, 1050}";
}
);
layerId = "F1FC1B3B-4EE8-4ECF-8776-11160932002C";
name = Light;
paths = (
{
closed = 1;
nodes = (
"313 -85 LINE",
"311 89 LINE",
"406 17 OFFCURVE",
"498 -25 OFFCURVE",
"594 -25 CURVE SMOOTH",
"823 -25 OFFCURVE",
"1026 173 OFFCURVE",
"1026 510 CURVE SMOOTH",
"1026 817 OFFCURVE",
"890 1015 OFFCURVE",
"627 1015 CURVE SMOOTH",
"513 1015 OFFCURVE",
"404 952 OFFCURVE",
"311 879 CURVE",
"313 1056 LINE",
"313 1464 LINE",
"176 1464 LINE",
"176 -430 LINE",
"313 -430 LINE"
);
},
{
closed = 1;
nodes = (
"313 205 CURVE",
"313 752 LINE",
"419 847 OFFCURVE",
"511 899 OFFCURVE",
"601 899 CURVE SMOOTH",
"805 899 OFFCURVE",
"883 738 OFFCURVE",
"883 510 CURVE SMOOTH",
"883 255 OFFCURVE",
"753 92 OFFCURVE",
"575 92 CURVE SMOOTH",
"506 92 OFFCURVE",
"412 122 OFFCURVE"
);
}
);
width = 1128;
}
);
unicode = 00FE;
userData = {
com.typemytype.robofont.mark = (
1,
0.6,
0.6,
1
);
};
},
{
color = (255,153,153,1);
glyphname = q;
lastChange = "2015-01-15 10:08:19 +0000";
layers = (
{
anchors = (
{
name = top;
position = "{525, 1050}";
}
);
layerId = "F1FC1B3B-4EE8-4ECF-8776-11160932002C";
name = Light;
paths = (
{
closed = 1;
nodes = (
"100 492 CURVE SMOOTH",
"100 154 OFFCURVE",
"257 -25 OFFCURVE",
"511 -25 CURVE SMOOTH",
"635 -25 OFFCURVE",
"737 40 OFFCURVE",
"821 117 CURVE",
"814 -66 LINE",
"814 -430 LINE",
"951 -430 LINE",
"951 990 LINE",
"841 990 LINE",
"826 898 LINE",
"822 898 LINE",
"731 973 OFFCURVE",
"654 1015 OFFCURVE",
"535 1015 CURVE SMOOTH",
"301 1015 OFFCURVE",
"100 819 OFFCURVE"
);
},
{
closed = 1;
nodes = (
"243 493 CURVE SMOOTH",
"243 733 OFFCURVE",
"377 899 OFFCURVE",
"555 899 CURVE SMOOTH",
"645 899 OFFCURVE",
"722 868 OFFCURVE",
"814 785 CURVE",
"814 239 LINE",
"723 142 OFFCURVE",
"640 92 OFFCURVE",
"539 92 CURVE SMOOTH",
"346 92 OFFCURVE",
"243 241 OFFCURVE"
);
}
);
width = 1115;
}
);
unicode = 0071;
userData = {
com.typemytype.robofont.mark = (
1,
0.6,
0.6,
1
);
};
},
{
color = (255,153,153,1);
glyphname = r;
lastChange = "2015-01-15 10:08:19 +0000";
layers = (
{
anchors = (
{
name = top;
position = "{361, 1050}";
}
);
layerId = "F1FC1B3B-4EE8-4ECF-8776-11160932002C";
name = Light;
paths = (
{
closed = 1;
nodes = (
"176 0 LINE",
"313 0 LINE",
"313 652 LINE",
"383 826 OFFCURVE",
"486 890 OFFCURVE",
"571 890 CURVE SMOOTH",
"611 890 OFFCURVE",
"632 885 OFFCURVE",
"665 874 CURVE",
"692 994 LINE",
"660 1010 OFFCURVE",
"630 1015 OFFCURVE",
"589 1015 CURVE SMOOTH",
"475 1015 OFFCURVE",
"375 933 OFFCURVE",
"309 809 CURVE",
"302 809 LINE",
"290 990 LINE",
"176 990 LINE"
);
}
);
width = 686;
}
);
unicode = 0072;
userData = {
com.typemytype.robofont.mark = (
1,
0.6,
0.6,
1
);
};
},
{
color = (255,153,153,1);
glyphname = s;
lastChange = "2015-01-15 10:08:19 +0000";
layers = (
{
anchors = (
{
name = top;
position = "{421, 1050}";
}
);
layerId = "F1FC1B3B-4EE8-4ECF-8776-11160932002C";
name = Light;
paths = (
{
closed = 1;
nodes = (
"64 112 LINE",
"156 36 OFFCURVE",
"285 -25 OFFCURVE",
"427 -25 CURVE SMOOTH",
"654 -25 OFFCURVE",
"779 106 OFFCURVE",
"779 261 CURVE SMOOTH",
"779 452 OFFCURVE",
"615 510 OFFCURVE",
"467 565 CURVE SMOOTH",
"353 608 OFFCURVE",
"242 654 OFFCURVE",
"242 753 CURVE SMOOTH",
"242 835 OFFCURVE",
"305 906 OFFCURVE",
"441 906 CURVE SMOOTH",
"534 906 OFFCURVE",
"604 870 OFFCURVE",
"671 820 CURVE",
"739 909 LINE",
"664 970 OFFCURVE",
"557 1015 OFFCURVE",
"441 1015 CURVE SMOOTH",
"230 1015 OFFCURVE",
"109 895 OFFCURVE",
"109 742 CURVE SMOOTH",
"109 574 OFFCURVE",
"268 507 OFFCURVE",
"412 455 CURVE SMOOTH",
"523 414 OFFCURVE",
"645 365 OFFCURVE",
"645 254 CURVE SMOOTH",
"645 160 OFFCURVE",
"574 84 OFFCURVE",
"433 84 CURVE SMOOTH",
"305 84 OFFCURVE",
"220 137 OFFCURVE",
"135 206 CURVE"
);
}
);
width = 846;
}
);
unicode = 0073;
userData = {
com.typemytype.robofont.mark = (
1,
0.6,
0.6,
1
);
};
},
{
color = (255,153,153,1);
glyphname = germandbls;
lastChange = "2015-01-16 19:41:48 +0000";
layers = (
{
anchors = (
{
name = top;
position = "{634, 1050}";
}
);
hints = (
{
horizontal = 1;
origin = "{0, 0}";
target = "{0, 0}";
type = Tag;
name = hr01;
},
{
horizontal = 1;
origin = "{0, 17}";
target = "{0, 0}";
type = Tag;
name = hr02;
}
);
layerId = "F1FC1B3B-4EE8-4ECF-8776-11160932002C";
name = Light;
paths = (
{
closed = 1;
nodes = (
"176 0 LINE",
"313 0 LINE",
"313 1038 LINE",
"313 1263 OFFCURVE",
"405 1371 OFFCURVE",
"555 1371 CURVE SMOOTH",
"674 1371 OFFCURVE",
"735 1292 OFFCURVE",
"735 1182 CURVE SMOOTH",
"735 1005 OFFCURVE",
"546 944 OFFCURVE",
"546 753 CURVE SMOOTH",
"546 464 OFFCURVE",
"960 522 OFFCURVE",
"960 264 CURVE SMOOTH",
"960 171 OFFCURVE",
"896 84 OFFCURVE",
"773 84 CURVE SMOOTH",
"692 84 OFFCURVE",
"624 114 OFFCURVE",
"549 175 CURVE",
"491 78 LINE",
"573 15 OFFCURVE",
"666 -25 OFFCURVE",
"776 -25 CURVE SMOOTH",
"967 -25 OFFCURVE",
"1092 104 OFFCURVE",
"1092 272 CURVE SMOOTH",
"1092 609 OFFCURVE",
"678 555 OFFCURVE",
"678 768 CURVE SMOOTH",
"678 919 OFFCURVE",
"870 989 OFFCURVE",
"870 1196 CURVE SMOOTH",
"870 1354 OFFCURVE",
"757 1485 OFFCURVE",
"557 1485 CURVE SMOOTH",
"318 1485 OFFCURVE",
"176 1323 OFFCURVE",
"176 1069 CURVE SMOOTH"
);
}
);
width = 1151;
}
);
unicode = 00DF;
userData = {
com.adobe.type.autohint = "ICA8aGludFNldExpc3Q+CiAgICA8aGludHNldCBw";
com.typemytype.robofont.mark = (
1,
0.6,
0.6,
1
);
};
},
{
color = (167,255,153,1);
glyphname = uni0259;
lastChange = "2015-01-15 10:08:19 +0000";
layers = (
{
layerId = "F1FC1B3B-4EE8-4ECF-8776-11160932002C";
name = Light;
paths = (
{
closed = 1;
nodes = (
"77 453 CURVE SMOOTH",
"77 151 OFFCURVE",
"239 -25 OFFCURVE",
"481 -25 CURVE SMOOTH",
"721 -25 OFFCURVE",
"906 173 OFFCURVE",
"906 498 CURVE SMOOTH",
"906 825 OFFCURVE",
"722 1015 OFFCURVE",
"476 1015 CURVE SMOOTH",
"334 1015 OFFCURVE",
"227 969 OFFCURVE",
"139 908 CURVE",
"190 815 LINE",
"268 868 OFFCURVE",
"350 905 OFFCURVE",
"456 905 CURVE SMOOTH",
"649 905 OFFCURVE",
"761 754 OFFCURVE",
"769 538 CURVE",
"83 538 LINE",
"79 513 OFFCURVE",
"77 484 OFFCURVE"
);
},
{
closed = 1;
nodes = (
"199 443 CURVE",
"770 443 LINE",
"751 218 OFFCURVE",
"644 87 OFFCURVE",
"478 87 CURVE SMOOTH",
"312 87 OFFCURVE",
"199 201 OFFCURVE"
);
}
);
width = 1005;
}
);
unicode = 0259;
userData = {
com.typemytype.robofont.mark = (
0.656,
1,
0.6,
1
);
};
},
{
color = (255,153,153,1);
glyphname = t;
lastChange = "2015-01-15 10:08:19 +0000";
layers = (
{
anchors = (
{
name = top;
position = "{348, 1050}";
}
);
layerId = "F1FC1B3B-4EE8-4ECF-8776-11160932002C";
name = Light;
paths = (
{
closed = 1;
nodes = (
"203 293 LINE",
"203 105 OFFCURVE",
"267 -25 OFFCURVE",
"471 -25 CURVE SMOOTH",
"525 -25 OFFCURVE",
"589 -7 OFFCURVE",
"645 12 CURVE",
"616 117 LINE",
"582 104 OFFCURVE",
"535 89 OFFCURVE",
"499 89 CURVE SMOOTH",
"376 89 OFFCURVE",
"341 164 OFFCURVE",
"341 288 CURVE SMOOTH",
"341 877 LINE",
"616 877 LINE",
"616 990 LINE",
"341 990 LINE",
"341 1272 LINE",
"225 1272 LINE",
"208 990 LINE",
"52 981 LINE",
"52 877 LINE",
"203 877 LINE"
);
}
);
width = 670;
}
);
unicode = 0074;
userData = {
com.typemytype.robofont.mark = (
1,
0.6,
0.6,
1
);
};
},
{
color = (255,153,153,1);
glyphname = u;
lastChange = "2015-01-15 10:08:19 +0000";
layers = (
{
anchors = (
{
name = top;
position = "{543, 1050}";
}
);
layerId = "F1FC1B3B-4EE8-4ECF-8776-11160932002C";
name = Light;
paths = (
{
closed = 1;
nodes = (
"162 357 LINE",
"162 103 OFFCURVE",
"250 -25 OFFCURVE",
"464 -25 CURVE SMOOTH",
"606 -25 OFFCURVE",
"700 49 OFFCURVE",
"794 159 CURVE",
"800 159 LINE",
"812 0 LINE",
"925 0 LINE",
"925 990 LINE",
"789 990 LINE",
"789 276 LINE",
"686 150 OFFCURVE",
"615 95 OFFCURVE",
"501 95 CURVE SMOOTH",
"353 95 OFFCURVE",
"299 180 OFFCURVE",
"299 376 CURVE SMOOTH",
"299 990 LINE",
"162 990 LINE"
);
}
);
width = 1101;
}
);
unicode = 0075;
userData = {
com.typemytype.robofont.mark = (
1,
0.6,
0.6,
1
);
};
},
{
glyphname = uhorn;
lastChange = "2015-01-15 10:08:19 +0000";
layers = (
{
layerId = "F1FC1B3B-4EE8-4ECF-8776-11160932002C";
name = Light;
paths = (
{
closed = 1;
nodes = (
"966 1212 LINE",
"983 1185 OFFCURVE",
"994 1157 OFFCURVE",
"994 1128 CURVE SMOOTH",
"994 1039 OFFCURVE",
"921 1002 OFFCURVE",
"820 990 CURVE",
"789 990 LINE",
"789 276 LINE",
"686 150 OFFCURVE",
"609 95 OFFCURVE",
"501 95 CURVE SMOOTH",
"359 95 OFFCURVE",
"299 183 OFFCURVE",
"299 378 CURVE SMOOTH",
"299 990 LINE",
"162 990 LINE",
"162 360 LINE",
"162 106 OFFCURVE",
"256 -25 OFFCURVE",
"464 -25 CURVE SMOOTH",
"600 -25 OFFCURVE",
"700 49 OFFCURVE",
"794 159 CURVE",
"800 159 LINE",
"812 0 LINE",
"925 0 LINE",
"925 934 LINE",
"1013 958 OFFCURVE",
"1110 1014 OFFCURVE",
"1110 1138 CURVE SMOOTH",
"1110 1185 OFFCURVE",
"1092 1226 OFFCURVE",
"1066 1263 CURVE"
);
}
);
width = 1101;
}
);
unicode = 01B0;
},
{
glyphname = uni015F;
lastChange = "2015-01-15 10:08:19 +0000";
layers = (
{
layerId = "F1FC1B3B-4EE8-4ECF-8776-11160932002C";
name = Light;
paths = (
{
closed = 1;
nodes = (
"739 906 LINE",
"664 967 OFFCURVE",
"557 1015 OFFCURVE",
"441 1015 CURVE SMOOTH",
"230 1015 OFFCURVE",
"109 894 OFFCURVE",
"109 740 CURVE SMOOTH",
"109 573 OFFCURVE",
"268 509 OFFCURVE",
"412 457 CURVE SMOOTH",
"523 416 OFFCURVE",
"645 367 OFFCURVE",
"645 256 CURVE SMOOTH",
"645 162 OFFCURVE",
"574 84 OFFCURVE",
"433 84 CURVE SMOOTH",
"305 84 OFFCURVE",
"217 137 OFFCURVE",
"132 206 CURVE",
"61 112 LINE",
"147 40 OFFCURVE",
"269 -17 OFFCURVE",
"403 -25 CURVE",
"336 -153 LINE",
"419 -173 OFFCURVE",
"470 -200 OFFCURVE",
"470 -256 CURVE SMOOTH",
"470 -312 OFFCURVE",
"393 -342 OFFCURVE",
"285 -357 CURVE",
"300 -432 LINE",
"444 -417 OFFCURVE",
"579 -363 OFFCURVE",
"579 -250 CURVE SMOOTH",
"579 -166 OFFCURVE",
"524 -128 OFFCURVE",
"457 -106 CURVE",
"500 -20 LINE",
"680 5 OFFCURVE",
"779 125 OFFCURVE",
"779 264 CURVE SMOOTH",
"779 454 OFFCURVE",
"615 510 OFFCURVE",
"467 565 CURVE SMOOTH",
"353 608 OFFCURVE",
"242 649 OFFCURVE",
"242 748 CURVE SMOOTH",
"242 830 OFFCURVE",
"305 906 OFFCURVE",
"441 906 CURVE SMOOTH",
"534 906 OFFCURVE",
"604 868 OFFCURVE",
"671 818 CURVE"
);
}
);
width = 846;
}
);
unicode = 015F;
},
{
glyphname = uni0163;
lastChange = "2015-01-15 10:08:19 +0000";
layers = (
{
layerId = "F1FC1B3B-4EE8-4ECF-8776-11160932002C";
name = Light;
paths = (
{
closed = 1;
nodes = (
"482 -25 LINE",
"489 -24 OFFCURVE",
"498 -23 OFFCURVE",
"505 -22 CURVE SMOOTH",
"548 -18 OFFCURVE",
"599 -3 OFFCURVE",
"645 12 CURVE",
"616 117 LINE",
"582 104 OFFCURVE",
"535 89 OFFCURVE",
"499 89 CURVE SMOOTH",
"376 89 OFFCURVE",
"341 164 OFFCURVE",
"341 288 CURVE SMOOTH",
"341 877 LINE",
"616 877 LINE",
"616 990 LINE",
"341 990 LINE",
"341 1272 LINE",
"225 1272 LINE",
"208 990 LINE",
"52 981 LINE",
"52 877 LINE",
"203 877 LINE",
"203 293 LINE",
"203 133 OFFCURVE",
"250 15 OFFCURVE",
"390 -16 CURVE",
"319 -153 LINE",
"401 -173 OFFCURVE",
"453 -200 OFFCURVE",
"453 -256 CURVE SMOOTH",
"453 -312 OFFCURVE",
"376 -342 OFFCURVE",
"267 -357 CURVE",
"282 -432 LINE",
"427 -417 OFFCURVE",
"561 -363 OFFCURVE",
"561 -250 CURVE SMOOTH",
"561 -166 OFFCURVE",
"507 -128 OFFCURVE",
"440 -106 CURVE"
);
}
);
width = 670;
}
);
unicode = 0163;
},
{
glyphname = uni0180;
lastChange = "2015-01-15 10:08:19 +0000";
layers = (
{
layerId = "F1FC1B3B-4EE8-4ECF-8776-11160932002C";
name = Light;
paths = (
{
closed = 1;
nodes = (
"313 711 LINE",
"416 807 OFFCURVE",
"511 858 OFFCURVE",
"601 858 CURVE SMOOTH",
"805 858 OFFCURVE",
"883 705 OFFCURVE",
"883 489 CURVE SMOOTH",
"883 247 OFFCURVE",
"753 92 OFFCURVE",
"575 92 CURVE SMOOTH",
"506 92 OFFCURVE",
"409 122 OFFCURVE",
"313 205 CURVE"
);
},
{
closed = 1;
nodes = (
"313 1014 LINE",
"313 1178 LINE",
"692 1178 LINE",
"692 1263 LINE",
"313 1263 LINE",
"313 1464 LINE",
"176 1464 LINE",
"176 1263 LINE",
"22 1254 LINE",
"22 1178 LINE",
"176 1178 LINE",
"176 0 LINE",
"287 0 LINE",
"299 96 LINE",
"306 96 LINE",
"395 20 OFFCURVE",
"501 -25 OFFCURVE",
"594 -25 CURVE SMOOTH",
"823 -25 OFFCURVE",
"1026 165 OFFCURVE",
"1026 490 CURVE SMOOTH",
"1026 784 OFFCURVE",
"891 974 OFFCURVE",
"631 974 CURVE SMOOTH",
"516 974 OFFCURVE",
"403 911 OFFCURVE",
"308 829 CURVE"
);
}
);
width = 1100;
}
);
unicode = 0180;
},
{
glyphname = uni01EB;
lastChange = "2015-01-15 10:08:19 +0000";
layers = (
{
layerId = "F1FC1B3B-4EE8-4ECF-8776-11160932002C";
name = Light;
paths = (
{
closed = 1;
nodes = (
"427 -249 CURVE SMOOTH",
"427 -361 OFFCURVE",
"505 -420 OFFCURVE",
"603 -420 CURVE SMOOTH",
"653 -420 OFFCURVE",
"718 -396 OFFCURVE",
"753 -368 CURVE",
"714 -296 LINE",
"688 -314 OFFCURVE",
"663 -323 OFFCURVE",
"629 -323 CURVE SMOOTH",
"579 -323 OFFCURVE",
"532 -291 OFFCURVE",
"532 -224 CURVE SMOOTH",
"532 -143 OFFCURVE",
"590 -53 OFFCURVE",
"681 -10 CURVE SMOOTH",
"874 77 OFFCURVE",
"1005 215 OFFCURVE",
"1005 493 CURVE SMOOTH",
"1005 825 OFFCURVE",
"793 1015 OFFCURVE",
"552 1015 CURVE SMOOTH",
"311 1015 OFFCURVE",
"99 825 OFFCURVE",
"99 493 CURVE SMOOTH",
"99 175 OFFCURVE",
"300 -14 OFFCURVE",
"542 -24 CURVE",
"495 -61 OFFCURVE",
"427 -146 OFFCURVE"
);
},
{
closed = 1;
nodes = (
"241 493 CURVE SMOOTH",
"241 735 OFFCURVE",
"370 900 OFFCURVE",
"552 900 CURVE SMOOTH",
"734 900 OFFCURVE",
"864 735 OFFCURVE",
"864 493 CURVE SMOOTH",
"864 253 OFFCURVE",
"734 90 OFFCURVE",
"552 90 CURVE SMOOTH",
"370 90 OFFCURVE",
"241 253 OFFCURVE"
);
}
);
width = 1104;
}
);
unicode = 01EB;
},
{
glyphname = uni0251;
lastChange = "2015-01-07 12:25:14 +0000";
layers = (
{
anchors = (
{
name = mark0;
position = "{571, -45}";
}
);
layerId = "F1FC1B3B-4EE8-4ECF-8776-11160932002C";
name = Light;
paths = (
{
closed = 1;
nodes = (
"243 494 CURVE SMOOTH",
"243 730 OFFCURVE",
"379 899 OFFCURVE",
"554 899 CURVE SMOOTH",
"641 899 OFFCURVE",
"722 868 OFFCURVE",
"814 785 CURVE",
"814 239 LINE",
"723 142 OFFCURVE",
"636 92 OFFCURVE",
"537 92 CURVE SMOOTH",
"349 92 OFFCURVE",
"243 247 OFFCURVE"
);
},
{
closed = 1;
nodes = (
"100 493 CURVE SMOOTH",
"100 162 OFFCURVE",
"261 -25 OFFCURVE",
"510 -25 CURVE SMOOTH",
"633 -25 OFFCURVE",
"740 43 OFFCURVE",
"819 121 CURVE",
"825 121 LINE",
"837 0 LINE",
"951 0 LINE",
"951 990 LINE",
"837 990 LINE",
"826 895 LINE",
"822 895 LINE",
"731 973 OFFCURVE",
"650 1015 OFFCURVE",
"536 1015 CURVE SMOOTH",
"305 1015 OFFCURVE",
"100 814 OFFCURVE"
);
}
);
width = 1128;
}
);
unicode = 0251;
},
{
glyphname = uni0261;
lastChange = "2015-01-07 12:25:14 +0000";
layers = (
{
anchors = (
{
name = mark0;
position = "{554, -456}";
}
);
layerId = "F1FC1B3B-4EE8-4ECF-8776-11160932002C";
name = Light;
paths = (
{
closed = 1;
nodes = (
"231 -246 CURVE",
"178 -345 LINE",
"280 -413 OFFCURVE",
"403 -453 OFFCURVE",
"529 -453 CURVE SMOOTH",
"800 -453 OFFCURVE",
"954 -305 OFFCURVE",
"954 -64 CURVE SMOOTH",
"954 990 LINE",
"837 990 LINE",
"826 899 LINE",
"820 899 LINE",
"735 973 OFFCURVE",
"653 1015 OFFCURVE",
"539 1015 CURVE SMOOTH",
"310 1015 OFFCURVE",
"105 820 OFFCURVE",
"105 509 CURVE SMOOTH",
"105 191 OFFCURVE",
"264 6 OFFCURVE",
"513 6 CURVE SMOOTH",
"636 6 OFFCURVE",
"741 71 OFFCURVE",
"820 147 CURVE",
"818 -56 LINE",
"814 -232 OFFCURVE",
"720 -341 OFFCURVE",
"529 -341 CURVE SMOOTH",
"432 -341 OFFCURVE",
"330 -314 OFFCURVE"
);
},
{
closed = 1;
nodes = (
"540 121 CURVE SMOOTH",
"352 121 OFFCURVE",
"245 274 OFFCURVE",
"245 510 CURVE SMOOTH",
"245 734 OFFCURVE",
"382 899 OFFCURVE",
"556 899 CURVE SMOOTH",
"644 899 OFFCURVE",
"725 868 OFFCURVE",
"818 785 CURVE",
"818 269 LINE",
"725 171 OFFCURVE",
"639 121 OFFCURVE"
);
}
);
width = 1133;
}
);
unicode = 0261;
},
{
glyphname = uogonek;
lastChange = "2015-01-15 10:08:19 +0000";
layers = (
{
layerId = "F1FC1B3B-4EE8-4ECF-8776-11160932002C";
name = Light;
paths = (
{
closed = 1;
nodes = (
"162 360 LINE",
"162 106 OFFCURVE",
"256 -25 OFFCURVE",
"464 -25 CURVE SMOOTH",
"600 -25 OFFCURVE",
"700 49 OFFCURVE",
"794 159 CURVE",
"800 159 LINE",
"813 10 LINE",
"718 -58 OFFCURVE",
"642 -140 OFFCURVE",
"642 -249 CURVE SMOOTH",
"642 -361 OFFCURVE",
"720 -420 OFFCURVE",
"820 -420 CURVE SMOOTH",
"868 -420 OFFCURVE",
"933 -396 OFFCURVE",
"969 -368 CURVE",
"930 -296 LINE",
"905 -314 OFFCURVE",
"878 -323 OFFCURVE",
"844 -323 CURVE SMOOTH",
"796 -323 OFFCURVE",
"748 -290 OFFCURVE",
"748 -224 CURVE SMOOTH",
"748 -141 OFFCURVE",
"807 -64 OFFCURVE",
"925 0 CURVE",
"925 990 LINE",
"789 990 LINE",
"789 276 LINE",
"686 150 OFFCURVE",
"609 95 OFFCURVE",
"501 95 CURVE SMOOTH",
"357 95 OFFCURVE",
"299 183 OFFCURVE",
"299 378 CURVE SMOOTH",
"299 990 LINE",
"162 990 LINE"
);
}
);
width = 1101;
}
);
unicode = 0173;
},
{
color = (255,153,153,1);
glyphname = v;
lastChange = "2015-01-15 10:08:19 +0000";
layers = (
{
anchors = (
{
name = top;
position = "{464, 1050}";
}
);
layerId = "F1FC1B3B-4EE8-4ECF-8776-11160932002C";
name = Light;
paths = (
{
closed = 1;
nodes = (
"387 0 LINE",
"547 0 LINE",
"904 990 LINE",
"768 990 LINE",
"567 404 LINE",
"536 307 OFFCURVE",
"502 208 OFFCURVE",
"472 115 CURVE",
"464 115 LINE",
"434 208 OFFCURVE",
"399 307 OFFCURVE",
"369 404 CURVE",
"168 990 LINE",
"25 990 LINE"
);
}
);
width = 929;
}
);
unicode = 0076;
userData = {
com.typemytype.robofont.mark = (
1,
0.6,
0.6,
1
);
};
},
{
color = (255,153,153,1);
glyphname = w;
lastChange = "2015-01-15 10:08:19 +0000";
layers = (
{
anchors = (
{
name = top;
position = "{721, 1050}";
}
);
layerId = "F1FC1B3B-4EE8-4ECF-8776-11160932002C";
name = Light;
paths = (
{
closed = 1;
nodes = (
"332 0 LINE",
"492 0 LINE",
"644 562 LINE",
"672 657 OFFCURVE",
"695 751 OFFCURVE",
"717 850 CURVE",
"725 850 LINE",
"751 751 OFFCURVE",
"770 660 OFFCURVE",
"796 566 CURVE SMOOTH",
"951 0 LINE",
"1121 0 LINE",
"1394 990 LINE",
"1262 990 LINE",
"1104 390 LINE",
"1083 297 OFFCURVE",
"1062 210 OFFCURVE",
"1040 119 CURVE",
"1032 119 LINE",
"1008 210 OFFCURVE",
"985 297 OFFCURVE",
"960 390 CURVE SMOOTH",
"795 990 LINE",
"654 990 LINE",
"490 390 LINE",
"465 298 OFFCURVE",
"444 210 OFFCURVE",
"421 119 CURVE",
"413 119 LINE",
"394 210 OFFCURVE",
"373 297 OFFCURVE",
"351 390 CURVE",
"191 990 LINE",
"49 990 LINE"
);
}
);
width = 1443;
}
);
unicode = 0077;
userData = {
com.typemytype.robofont.mark = (
1,
0.6,
0.6,
1
);
};
},
{
color = (255,153,153,1);
glyphname = x;
lastChange = "2015-01-15 10:08:19 +0000";
layers = (
{
anchors = (
{
name = top;
position = "{440, 1050}";
}
);
layerId = "F1FC1B3B-4EE8-4ECF-8776-11160932002C";
name = Light;
paths = (
{
closed = 1;
nodes = (
"29 0 LINE",
"172 0 LINE",
"321 246 LINE",
"356 308 OFFCURVE",
"390 368 OFFCURVE",
"426 426 CURVE",
"435 426 LINE",
"473 368 OFFCURVE",
"511 307 OFFCURVE",
"546 246 CURVE",
"703 0 LINE",
"852 0 LINE",
"524 504 LINE",
"827 990 LINE",
"684 990 LINE",
"550 758 LINE",
"518 705 OFFCURVE",
"487 649 OFFCURVE",
"456 594 CURVE",
"448 594 LINE",
"412 649 OFFCURVE",
"378 705 OFFCURVE",
"347 758 CURVE SMOOTH",
"203 990 LINE",
"54 990 LINE",
"357 518 LINE"
);
}
);
width = 881;
}
);
unicode = 0078;
userData = {
com.typemytype.robofont.mark = (
1,
0.6,
0.6,
1
);
};
},
{
color = (255,153,153,1);
glyphname = y;
lastChange = "2015-01-15 10:08:19 +0000";
layers = (
{
anchors = (
{
name = top;
position = "{465, 1050}";
}
);
layerId = "F1FC1B3B-4EE8-4ECF-8776-11160932002C";
name = Light;
paths = (
{
closed = 1;
nodes = (
"88 -304 CURVE",
"60 -416 LINE",
"90 -428 OFFCURVE",
"128 -437 OFFCURVE",
"170 -437 CURVE SMOOTH",
"361 -437 OFFCURVE",
"461 -282 OFFCURVE",
"525 -99 CURVE SMOOTH",
"906 990 LINE",
"769 990 LINE",
"579 412 LINE",
"552 326 OFFCURVE",
"523 222 OFFCURVE",
"493 134 CURVE",
"485 134 LINE",
"452 223 OFFCURVE",
"415 327 OFFCURVE",
"384 412 CURVE SMOOTH",
"168 990 LINE",
"25 990 LINE",
"426 -9 LINE",
"401 -87 LINE",
"357 -222 OFFCURVE",
"281 -320 OFFCURVE",
"165 -320 CURVE SMOOTH",
"139 -320 OFFCURVE",
"108 -312 OFFCURVE"
);
}
);
width = 930;
}
);
unicode = 0079;
userData = {
com.typemytype.robofont.mark = (
1,
0.6,
0.6,
1
);
};
},
{
color = (255,153,153,1);
glyphname = z;
lastChange = "2015-01-16 19:41:48 +0000";
layers = (
{
anchors = (
{
name = top;
position = "{429, 1050}";
}
);
hints = (
{
horizontal = 1;
origin = "{0, 0}";
target = "{0, 0}";
type = Tag;
name = hr00;
}
);
layerId = "F1FC1B3B-4EE8-4ECF-8776-11160932002C";
name = Light;
paths = (
{
closed = 1;
nodes = (
"60 0 LINE",
"799 0 LINE",
"799 114 LINE",
"234 114 LINE",
"782 918 LINE",
"782 990 LINE",
"120 990 LINE",
"120 877 LINE",
"608 877 LINE",
"60 73 LINE"
);
}
);
width = 852;
}
);
unicode = 007A;
userData = {
com.adobe.type.autohint = "ICA8aGludFNldExpc3Q+CiAgICA8aGludHNldCBw";
com.typemytype.robofont.mark = (
1,
0.6,
0.6,
1
);
};
},
{
glyphname = a.a;
lastChange = "2015-01-07 12:25:14 +0000";
layers = (
{
anchors = (
{
name = mark0;
position = "{796, 0}";
}
);
layerId = "F1FC1B3B-4EE8-4ECF-8776-11160932002C";
name = Light;
paths = (
{
closed = 1;
nodes = (
"243 493 CURVE SMOOTH",
"243 732 OFFCURVE",
"377 900 OFFCURVE",
"558 900 CURVE SMOOTH",
"648 900 OFFCURVE",
"722 868 OFFCURVE",
"814 785 CURVE",
"814 239 LINE",
"723 142 OFFCURVE",
"643 92 OFFCURVE",
"541 92 CURVE SMOOTH",
"347 92 OFFCURVE",
"243 244 OFFCURVE"
);
},
{
closed = 1;
nodes = (
"100 492 CURVE SMOOTH",
"100 157 OFFCURVE",
"256 -25 OFFCURVE",
"513 -25 CURVE SMOOTH",
"640 -25 OFFCURVE",
"740 43 OFFCURVE",
"819 121 CURVE",
"825 121 LINE",
"837 0 LINE",
"951 0 LINE",
"951 990 LINE",
"837 990 LINE",
"826 895 LINE",
"822 895 LINE",
"731 973 OFFCURVE",
"656 1016 OFFCURVE",
"539 1016 CURVE SMOOTH",
"301 1016 OFFCURVE",
"100 817 OFFCURVE"
);
}
);
width = 1128;
}
);
userData = {
com.typemytype.robofont.layerData = {
};
};
},
{
glyphname = aacute.a;
lastChange = "2015-01-07 12:25:14 +0000";
layers = (
{
layerId = "F1FC1B3B-4EE8-4ECF-8776-11160932002C";
name = Light;
paths = (
{
closed = 1;
nodes = (
"243 494 CURVE SMOOTH",
"243 730 OFFCURVE",
"379 899 OFFCURVE",
"554 899 CURVE SMOOTH",
"641 899 OFFCURVE",
"722 868 OFFCURVE",
"814 785 CURVE",
"814 239 LINE",
"723 142 OFFCURVE",
"636 92 OFFCURVE",
"537 92 CURVE SMOOTH",
"349 92 OFFCURVE",
"243 247 OFFCURVE"
);
},
{
closed = 1;
nodes = (
"100 493 CURVE SMOOTH",
"100 162 OFFCURVE",
"261 -25 OFFCURVE",
"510 -25 CURVE SMOOTH",
"633 -25 OFFCURVE",
"740 43 OFFCURVE",
"819 121 CURVE",
"825 121 LINE",
"837 0 LINE",
"951 0 LINE",
"951 990 LINE",
"837 990 LINE",
"826 895 LINE",
"822 895 LINE",
"731 973 OFFCURVE",
"650 1015 OFFCURVE",
"536 1015 CURVE SMOOTH",
"305 1015 OFFCURVE",
"100 814 OFFCURVE"
);
},
{
closed = 1;
nodes = (
"779 1457 LINE",
"632 1457 LINE",
"444 1173 LINE",
"553 1173 LINE"
);
}
);
width = 1128;
}
);
},
{
glyphname = abreve.a;
lastChange = "2015-01-07 12:25:14 +0000";
layers = (
{
layerId = "F1FC1B3B-4EE8-4ECF-8776-11160932002C";
name = Light;
paths = (
{
closed = 1;
nodes = (
"243 494 CURVE SMOOTH",
"243 730 OFFCURVE",
"379 899 OFFCURVE",
"554 899 CURVE SMOOTH",
"641 899 OFFCURVE",
"722 868 OFFCURVE",
"814 785 CURVE",
"814 239 LINE",
"723 142 OFFCURVE",
"636 92 OFFCURVE",
"537 92 CURVE SMOOTH",
"349 92 OFFCURVE",
"243 247 OFFCURVE"
);
},
{
closed = 1;
nodes = (
"100 493 CURVE SMOOTH",
"100 162 OFFCURVE",
"261 -25 OFFCURVE",
"510 -25 CURVE SMOOTH",
"633 -25 OFFCURVE",
"740 43 OFFCURVE",
"819 121 CURVE",
"825 121 LINE",
"837 0 LINE",
"951 0 LINE",
"951 990 LINE",
"837 990 LINE",
"826 895 LINE",
"822 895 LINE",
"731 973 OFFCURVE",
"650 1015 OFFCURVE",
"536 1015 CURVE SMOOTH",
"305 1015 OFFCURVE",
"100 814 OFFCURVE"
);
},
{
closed = 1;
nodes = (
"571 1179 CURVE SMOOTH",
"743 1179 OFFCURVE",
"812 1318 OFFCURVE",
"824 1432 CURVE",
"734 1432 LINE",
"723 1349 OFFCURVE",
"672 1267 OFFCURVE",
"571 1267 CURVE SMOOTH",
"469 1267 OFFCURVE",
"419 1349 OFFCURVE",
"407 1432 CURVE",
"317 1432 LINE",
"329 1318 OFFCURVE",
"398 1179 OFFCURVE"
);
}
);
width = 1128;
}
);
},
{
glyphname = uni1EAF.a;
lastChange = "2015-01-07 12:25:14 +0000";
layers = (
{
layerId = "F1FC1B3B-4EE8-4ECF-8776-11160932002C";
name = Light;
paths = (
{
closed = 1;
nodes = (
"243 494 CURVE SMOOTH",
"243 730 OFFCURVE",
"379 899 OFFCURVE",
"554 899 CURVE SMOOTH",
"641 899 OFFCURVE",
"722 868 OFFCURVE",
"814 785 CURVE",
"814 239 LINE",
"723 142 OFFCURVE",
"636 92 OFFCURVE",
"537 92 CURVE SMOOTH",
"349 92 OFFCURVE",
"243 247 OFFCURVE"
);
},
{
closed = 1;
nodes = (
"100 493 CURVE SMOOTH",
"100 162 OFFCURVE",
"261 -25 OFFCURVE",
"510 -25 CURVE SMOOTH",
"633 -25 OFFCURVE",
"740 43 OFFCURVE",
"819 121 CURVE",
"825 121 LINE",
"837 0 LINE",
"951 0 LINE",
"951 990 LINE",
"837 990 LINE",
"826 895 LINE",
"822 895 LINE",
"731 973 OFFCURVE",
"650 1015 OFFCURVE",
"536 1015 CURVE SMOOTH",
"305 1015 OFFCURVE",
"100 814 OFFCURVE"
);
},
{
closed = 1;
nodes = (
"499 1378 LINE",
"585 1378 LINE",
"763 1606 LINE",
"642 1606 LINE"
);
},
{
closed = 1;
nodes = (
"571 1179 CURVE SMOOTH",
"743 1179 OFFCURVE",
"812 1318 OFFCURVE",
"824 1432 CURVE",
"744 1432 LINE",
"732 1345 OFFCURVE",
"678 1261 OFFCURVE",
"571 1261 CURVE SMOOTH",
"462 1261 OFFCURVE",
"409 1345 OFFCURVE",
"397 1432 CURVE",
"317 1432 LINE",
"329 1318 OFFCURVE",
"398 1179 OFFCURVE"
);
}
);
width = 1128;
}
);
},
{
glyphname = uni1EB7.a;
lastChange = "2015-01-07 12:25:14 +0000";
layers = (
{
layerId = "F1FC1B3B-4EE8-4ECF-8776-11160932002C";
name = Light;
paths = (
{
closed = 1;
nodes = (
"243 494 CURVE SMOOTH",
"243 730 OFFCURVE",
"379 899 OFFCURVE",
"554 899 CURVE SMOOTH",
"641 899 OFFCURVE",
"722 868 OFFCURVE",
"814 785 CURVE",
"814 239 LINE",
"723 142 OFFCURVE",
"636 92 OFFCURVE",
"537 92 CURVE SMOOTH",
"349 92 OFFCURVE",
"243 247 OFFCURVE"
);
},
{
closed = 1;
nodes = (
"100 493 CURVE SMOOTH",
"100 162 OFFCURVE",
"261 -25 OFFCURVE",
"510 -25 CURVE SMOOTH",
"633 -25 OFFCURVE",
"740 43 OFFCURVE",
"819 121 CURVE",
"825 121 LINE",
"837 0 LINE",
"951 0 LINE",
"951 990 LINE",
"837 990 LINE",
"826 895 LINE",
"822 895 LINE",
"731 973 OFFCURVE",
"650 1015 OFFCURVE",
"536 1015 CURVE SMOOTH",
"305 1015 OFFCURVE",
"100 814 OFFCURVE"
);
},
{
closed = 1;
nodes = (
"571 1179 CURVE SMOOTH",
"743 1179 OFFCURVE",
"812 1318 OFFCURVE",
"824 1432 CURVE",
"734 1432 LINE",
"723 1349 OFFCURVE",
"672 1267 OFFCURVE",
"571 1267 CURVE SMOOTH",
"469 1267 OFFCURVE",
"419 1349 OFFCURVE",
"407 1432 CURVE",
"317 1432 LINE",
"329 1318 OFFCURVE",
"398 1179 OFFCURVE"
);
},
{
closed = 1;
nodes = (
"573 -412 CURVE SMOOTH",
"628 -412 OFFCURVE",
"670 -372 OFFCURVE",
"670 -312 CURVE SMOOTH",
"670 -255 OFFCURVE",
"628 -215 OFFCURVE",
"573 -215 CURVE SMOOTH",
"517 -215 OFFCURVE",
"476 -255 OFFCURVE",
"476 -312 CURVE SMOOTH",
"476 -372 OFFCURVE",
"517 -412 OFFCURVE"
);
}
);
width = 1128;
}
);
},
{
glyphname = uni1EB1.a;
lastChange = "2015-01-07 12:25:14 +0000";
layers = (
{
layerId = "F1FC1B3B-4EE8-4ECF-8776-11160932002C";
name = Light;
paths = (
{
closed = 1;
nodes = (
"243 494 CURVE SMOOTH",
"243 730 OFFCURVE",
"379 899 OFFCURVE",
"554 899 CURVE SMOOTH",
"641 899 OFFCURVE",
"722 868 OFFCURVE",
"814 785 CURVE",
"814 239 LINE",
"723 142 OFFCURVE",
"636 92 OFFCURVE",
"537 92 CURVE SMOOTH",
"349 92 OFFCURVE",
"243 247 OFFCURVE"
);
},
{
closed = 1;
nodes = (
"100 493 CURVE SMOOTH",
"100 162 OFFCURVE",
"261 -25 OFFCURVE",
"510 -25 CURVE SMOOTH",
"633 -25 OFFCURVE",
"740 43 OFFCURVE",
"819 121 CURVE",
"825 121 LINE",
"837 0 LINE",
"951 0 LINE",
"951 990 LINE",
"837 990 LINE",
"826 895 LINE",
"822 895 LINE",
"731 973 OFFCURVE",
"650 1015 OFFCURVE",
"536 1015 CURVE SMOOTH",
"305 1015 OFFCURVE",
"100 814 OFFCURVE"
);
},
{
closed = 1;
nodes = (
"498 1606 LINE",
"378 1606 LINE",
"555 1378 LINE",
"643 1378 LINE"
);
},
{
closed = 1;
nodes = (
"571 1179 CURVE SMOOTH",
"743 1179 OFFCURVE",
"812 1318 OFFCURVE",
"824 1432 CURVE",
"744 1432 LINE",
"732 1345 OFFCURVE",
"678 1261 OFFCURVE",
"571 1261 CURVE SMOOTH",
"462 1261 OFFCURVE",
"409 1345 OFFCURVE",
"397 1432 CURVE",
"317 1432 LINE",
"329 1318 OFFCURVE",
"398 1179 OFFCURVE"
);
}
);
width = 1128;
}
);
},
{
glyphname = uni1EB3.a;
lastChange = "2015-01-07 12:25:14 +0000";
layers = (
{
layerId = "F1FC1B3B-4EE8-4ECF-8776-11160932002C";
name = Light;
paths = (
{
closed = 1;
nodes = (
"243 494 CURVE SMOOTH",
"243 730 OFFCURVE",
"379 899 OFFCURVE",
"554 899 CURVE SMOOTH",
"641 899 OFFCURVE",
"722 868 OFFCURVE",
"814 785 CURVE",
"814 239 LINE",
"723 142 OFFCURVE",
"636 92 OFFCURVE",
"537 92 CURVE SMOOTH",
"349 92 OFFCURVE",
"243 247 OFFCURVE"
);
},
{
closed = 1;
nodes = (
"100 493 CURVE SMOOTH",
"100 162 OFFCURVE",
"261 -25 OFFCURVE",
"510 -25 CURVE SMOOTH",
"633 -25 OFFCURVE",
"740 43 OFFCURVE",
"819 121 CURVE",
"825 121 LINE",
"837 0 LINE",
"951 0 LINE",
"951 990 LINE",
"837 990 LINE",
"826 895 LINE",
"822 895 LINE",
"731 973 OFFCURVE",
"650 1015 OFFCURVE",
"536 1015 CURVE SMOOTH",
"305 1015 OFFCURVE",
"100 814 OFFCURVE"
);
},
{
closed = 1;
nodes = (
"571 1179 CURVE SMOOTH",
"743 1179 OFFCURVE",
"812 1318 OFFCURVE",
"824 1432 CURVE",
"744 1432 LINE",
"732 1345 OFFCURVE",
"678 1261 OFFCURVE",
"571 1261 CURVE SMOOTH",
"462 1261 OFFCURVE",
"409 1345 OFFCURVE",
"397 1432 CURVE",
"317 1432 LINE",
"329 1318 OFFCURVE",
"398 1179 OFFCURVE"
);
},
{
closed = 1;
nodes = (
"520 1392 LINE",
"609 1415 OFFCURVE",
"699 1453 OFFCURVE",
"699 1557 CURVE SMOOTH",
"699 1654 OFFCURVE",
"608 1699 OFFCURVE",
"464 1703 CURVE",
"453 1629 LINE",
"552 1625 OFFCURVE",
"596 1599 OFFCURVE",
"596 1541 CURVE SMOOTH",
"596 1496 OFFCURVE",
"556 1472 OFFCURVE",
"503 1456 CURVE"
);
}
);
width = 1128;
}
);
},
{
glyphname = uni1EB5.a;
lastChange = "2015-01-07 12:25:14 +0000";
layers = (
{
layerId = "F1FC1B3B-4EE8-4ECF-8776-11160932002C";
name = Light;
paths = (
{
closed = 1;
nodes = (
"243 494 CURVE SMOOTH",
"243 730 OFFCURVE",
"379 899 OFFCURVE",
"554 899 CURVE SMOOTH",
"641 899 OFFCURVE",
"722 868 OFFCURVE",
"814 785 CURVE",
"814 239 LINE",
"723 142 OFFCURVE",
"636 92 OFFCURVE",
"537 92 CURVE SMOOTH",
"349 92 OFFCURVE",
"243 247 OFFCURVE"
);
},
{
closed = 1;
nodes = (
"100 493 CURVE SMOOTH",
"100 162 OFFCURVE",
"261 -25 OFFCURVE",
"510 -25 CURVE SMOOTH",
"633 -25 OFFCURVE",
"740 43 OFFCURVE",
"819 121 CURVE",
"825 121 LINE",
"837 0 LINE",
"951 0 LINE",
"951 990 LINE",
"837 990 LINE",
"826 895 LINE",
"822 895 LINE",
"731 973 OFFCURVE",
"650 1015 OFFCURVE",
"536 1015 CURVE SMOOTH",
"305 1015 OFFCURVE",
"100 814 OFFCURVE"
);
},
{
closed = 1;
nodes = (
"571 1179 CURVE SMOOTH",
"743 1179 OFFCURVE",
"809 1287 OFFCURVE",
"821 1391 CURVE",
"740 1391 LINE",
"728 1323 OFFCURVE",
"676 1259 OFFCURVE",
"571 1259 CURVE SMOOTH",
"466 1259 OFFCURVE",
"414 1323 OFFCURVE",
"402 1391 CURVE",
"322 1391 LINE",
"331 1287 OFFCURVE",
"398 1179 OFFCURVE"
);
},
{
closed = 1;
nodes = (
"310 1452 CURVE",
"386 1452 LINE",
"395 1512 OFFCURVE",
"425 1542 OFFCURVE",
"467 1542 CURVE SMOOTH",
"535 1542 OFFCURVE",
"575 1452 OFFCURVE",
"676 1452 CURVE SMOOTH",
"771 1452 OFFCURVE",
"822 1531 OFFCURVE",
"830 1626 CURVE",
"755 1626 LINE",
"747 1566 OFFCURVE",
"716 1536 OFFCURVE",
"673 1536 CURVE SMOOTH",
"605 1536 OFFCURVE",
"567 1626 OFFCURVE",
"464 1626 CURVE SMOOTH",
"370 1626 OFFCURVE",
"319 1548 OFFCURVE"
);
}
);
width = 1128;
}
);
},
{
glyphname = uni01CE.a;
lastChange = "2015-01-07 12:25:14 +0000";
layers = (
{
layerId = "F1FC1B3B-4EE8-4ECF-8776-11160932002C";
name = Light;
paths = (
{
closed = 1;
nodes = (
"243 494 CURVE SMOOTH",
"243 730 OFFCURVE",
"379 899 OFFCURVE",
"554 899 CURVE SMOOTH",
"641 899 OFFCURVE",
"722 868 OFFCURVE",
"814 785 CURVE",
"814 239 LINE",
"723 142 OFFCURVE",
"636 92 OFFCURVE",
"537 92 CURVE SMOOTH",
"349 92 OFFCURVE",
"243 247 OFFCURVE"
);
},
{
closed = 1;
nodes = (
"100 493 CURVE SMOOTH",
"100 162 OFFCURVE",
"261 -25 OFFCURVE",
"510 -25 CURVE SMOOTH",
"633 -25 OFFCURVE",
"740 43 OFFCURVE",
"819 121 CURVE",
"825 121 LINE",
"837 0 LINE",
"951 0 LINE",
"951 990 LINE",
"837 990 LINE",
"826 895 LINE",
"822 895 LINE",
"731 973 OFFCURVE",
"650 1015 OFFCURVE",
"536 1015 CURVE SMOOTH",
"305 1015 OFFCURVE",
"100 814 OFFCURVE"
);
},
{
closed = 1;
nodes = (
"513 1173 LINE",
"627 1173 LINE",
"821 1457 LINE",
"719 1457 LINE",
"575 1263 LINE",
"567 1263 LINE",
"423 1457 LINE",
"320 1457 LINE"
);
}
);
width = 1128;
}
);
},
{
glyphname = acircumflex.a;
lastChange = "2015-01-07 12:25:14 +0000";
layers = (
{
layerId = "F1FC1B3B-4EE8-4ECF-8776-11160932002C";
name = Light;
paths = (
{
closed = 1;
nodes = (
"243 494 CURVE SMOOTH",
"243 730 OFFCURVE",
"379 899 OFFCURVE",
"554 899 CURVE SMOOTH",
"641 899 OFFCURVE",
"722 868 OFFCURVE",
"814 785 CURVE",
"814 239 LINE",
"723 142 OFFCURVE",
"636 92 OFFCURVE",
"537 92 CURVE SMOOTH",
"349 92 OFFCURVE",
"243 247 OFFCURVE"
);
},
{
closed = 1;
nodes = (
"100 493 CURVE SMOOTH",
"100 162 OFFCURVE",
"261 -25 OFFCURVE",
"510 -25 CURVE SMOOTH",
"633 -25 OFFCURVE",
"740 43 OFFCURVE",
"819 121 CURVE",
"825 121 LINE",
"837 0 LINE",
"951 0 LINE",
"951 990 LINE",
"837 990 LINE",
"826 895 LINE",
"822 895 LINE",
"731 973 OFFCURVE",
"650 1015 OFFCURVE",
"536 1015 CURVE SMOOTH",
"305 1015 OFFCURVE",
"100 814 OFFCURVE"
);
},
{
closed = 1;
nodes = (
"320 1173 LINE",
"423 1173 LINE",
"567 1366 LINE",
"575 1366 LINE",
"719 1173 LINE",
"821 1173 LINE",
"627 1457 LINE",
"513 1457 LINE"
);
}
);
width = 1128;
}
);
},
{
glyphname = uni1EA5.a;
lastChange = "2015-01-07 12:25:14 +0000";
layers = (
{
anchors = (
{
name = mark0;
position = "{549, -45}";
}
);
layerId = "F1FC1B3B-4EE8-4ECF-8776-11160932002C";
name = Light;
paths = (
{
closed = 1;
nodes = (
"243 494 CURVE SMOOTH",
"243 730 OFFCURVE",
"379 899 OFFCURVE",
"554 899 CURVE SMOOTH",
"641 899 OFFCURVE",
"722 868 OFFCURVE",
"814 785 CURVE",
"814 239 LINE",
"723 142 OFFCURVE",
"636 92 OFFCURVE",
"537 92 CURVE SMOOTH",
"349 92 OFFCURVE",
"243 247 OFFCURVE"
);
},
{
closed = 1;
nodes = (
"100 493 CURVE SMOOTH",
"100 162 OFFCURVE",
"261 -25 OFFCURVE",
"510 -25 CURVE SMOOTH",
"633 -25 OFFCURVE",
"740 43 OFFCURVE",
"819 121 CURVE",
"825 121 LINE",
"837 0 LINE",
"951 0 LINE",
"951 990 LINE",
"837 990 LINE",
"826 895 LINE",
"822 895 LINE",
"731 973 OFFCURVE",
"650 1015 OFFCURVE",
"536 1015 CURVE SMOOTH",
"305 1015 OFFCURVE",
"100 814 OFFCURVE"
);
},
{
closed = 1;
nodes = (
"343 1173 LINE",
"441 1173 LINE",
"567 1326 LINE",
"575 1326 LINE",
"700 1173 LINE",
"798 1173 LINE",
"627 1412 LINE",
"513 1412 LINE"
);
},
{
closed = 1;
nodes = (
"743 1309 LINE",
"832 1309 LINE",
"1021 1539 LINE",
"897 1539 LINE"
);
}
);
width = 1128;
}
);
},
{
glyphname = uni1EAD.a;
lastChange = "2015-01-07 12:25:14 +0000";
layers = (
{
layerId = "F1FC1B3B-4EE8-4ECF-8776-11160932002C";
name = Light;
paths = (
{
closed = 1;
nodes = (
"243 494 CURVE SMOOTH",
"243 730 OFFCURVE",
"379 899 OFFCURVE",
"554 899 CURVE SMOOTH",
"641 899 OFFCURVE",
"722 868 OFFCURVE",
"814 785 CURVE",
"814 239 LINE",
"723 142 OFFCURVE",
"636 92 OFFCURVE",
"537 92 CURVE SMOOTH",
"349 92 OFFCURVE",
"243 247 OFFCURVE"
);
},
{
closed = 1;
nodes = (
"100 493 CURVE SMOOTH",
"100 162 OFFCURVE",
"261 -25 OFFCURVE",
"510 -25 CURVE SMOOTH",
"633 -25 OFFCURVE",
"740 43 OFFCURVE",
"819 121 CURVE",
"825 121 LINE",
"837 0 LINE",
"951 0 LINE",
"951 990 LINE",
"837 990 LINE",
"826 895 LINE",
"822 895 LINE",
"731 973 OFFCURVE",
"650 1015 OFFCURVE",
"536 1015 CURVE SMOOTH",
"305 1015 OFFCURVE",
"100 814 OFFCURVE"
);
},
{
closed = 1;
nodes = (
"320 1173 LINE",
"423 1173 LINE",
"567 1366 LINE",
"575 1366 LINE",
"719 1173 LINE",
"821 1173 LINE",
"627 1457 LINE",
"513 1457 LINE"
);
},
{
closed = 1;
nodes = (
"573 -412 CURVE SMOOTH",
"628 -412 OFFCURVE",
"670 -372 OFFCURVE",
"670 -312 CURVE SMOOTH",
"670 -255 OFFCURVE",
"628 -215 OFFCURVE",
"573 -215 CURVE SMOOTH",
"517 -215 OFFCURVE",
"476 -255 OFFCURVE",
"476 -312 CURVE SMOOTH",
"476 -372 OFFCURVE",
"517 -412 OFFCURVE"
);
}
);
width = 1128;
}
);
},
{
glyphname = uni1EA7.a;
lastChange = "2015-01-07 12:25:14 +0000";
layers = (
{
layerId = "F1FC1B3B-4EE8-4ECF-8776-11160932002C";
name = Light;
paths = (
{
closed = 1;
nodes = (
"243 494 CURVE SMOOTH",
"243 730 OFFCURVE",
"379 899 OFFCURVE",
"554 899 CURVE SMOOTH",
"641 899 OFFCURVE",
"722 868 OFFCURVE",
"814 785 CURVE",
"814 239 LINE",
"723 142 OFFCURVE",
"636 92 OFFCURVE",
"537 92 CURVE SMOOTH",
"349 92 OFFCURVE",
"243 247 OFFCURVE"
);
},
{
closed = 1;
nodes = (
"100 493 CURVE SMOOTH",
"100 162 OFFCURVE",
"261 -25 OFFCURVE",
"510 -25 CURVE SMOOTH",
"633 -25 OFFCURVE",
"740 43 OFFCURVE",
"819 121 CURVE",
"825 121 LINE",
"837 0 LINE",
"951 0 LINE",
"951 990 LINE",
"837 990 LINE",
"826 895 LINE",
"822 895 LINE",
"731 973 OFFCURVE",
"650 1015 OFFCURVE",
"536 1015 CURVE SMOOTH",
"305 1015 OFFCURVE",
"100 814 OFFCURVE"
);
},
{
closed = 1;
nodes = (
"343 1173 LINE",
"441 1173 LINE",
"567 1326 LINE",
"575 1326 LINE",
"700 1173 LINE",
"798 1173 LINE",
"627 1412 LINE",
"513 1412 LINE"
);
},
{
closed = 1;
nodes = (
"806 1539 LINE",
"681 1539 LINE",
"870 1309 LINE",
"958 1309 LINE"
);
}
);
width = 1128;
}
);
},
{
glyphname = uni1EA9.a;
lastChange = "2015-01-07 12:25:14 +0000";
layers = (
{
layerId = "F1FC1B3B-4EE8-4ECF-8776-11160932002C";
name = Light;
paths = (
{
closed = 1;
nodes = (
"243 494 CURVE SMOOTH",
"243 730 OFFCURVE",
"379 899 OFFCURVE",
"554 899 CURVE SMOOTH",
"641 899 OFFCURVE",
"722 868 OFFCURVE",
"814 785 CURVE",
"814 239 LINE",
"723 142 OFFCURVE",
"636 92 OFFCURVE",
"537 92 CURVE SMOOTH",
"349 92 OFFCURVE",
"243 247 OFFCURVE"
);
},
{
closed = 1;
nodes = (
"100 493 CURVE SMOOTH",
"100 162 OFFCURVE",
"261 -25 OFFCURVE",
"510 -25 CURVE SMOOTH",
"633 -25 OFFCURVE",
"740 43 OFFCURVE",
"819 121 CURVE",
"825 121 LINE",
"837 0 LINE",
"951 0 LINE",
"951 990 LINE",
"837 990 LINE",
"826 895 LINE",
"822 895 LINE",
"731 973 OFFCURVE",
"650 1015 OFFCURVE",
"536 1015 CURVE SMOOTH",
"305 1015 OFFCURVE",
"100 814 OFFCURVE"
);
},
{
closed = 1;
nodes = (
"343 1173 LINE",
"441 1173 LINE",
"567 1326 LINE",
"575 1326 LINE",
"700 1173 LINE",
"798 1173 LINE",
"627 1412 LINE",
"513 1412 LINE"
);
},
{
closed = 1;
nodes = (
"797 1286 LINE",
"886 1310 OFFCURVE",
"976 1347 OFFCURVE",
"976 1450 CURVE SMOOTH",
"976 1547 OFFCURVE",
"884 1592 OFFCURVE",
"740 1597 CURVE",
"729 1524 LINE",
"829 1518 OFFCURVE",
"872 1492 OFFCURVE",
"872 1436 CURVE SMOOTH",
"872 1390 OFFCURVE",
"833 1366 OFFCURVE",
"780 1349 CURVE"
);
}
);
width = 1128;
}
);
},
{
glyphname = uni1EAB.a;
lastChange = "2015-01-07 12:25:14 +0000";
layers = (
{
layerId = "F1FC1B3B-4EE8-4ECF-8776-11160932002C";
name = Light;
paths = (
{
closed = 1;
nodes = (
"243 494 CURVE SMOOTH",
"243 730 OFFCURVE",
"379 899 OFFCURVE",
"554 899 CURVE SMOOTH",
"641 899 OFFCURVE",
"722 868 OFFCURVE",
"814 785 CURVE",
"814 239 LINE",
"723 142 OFFCURVE",
"636 92 OFFCURVE",
"537 92 CURVE SMOOTH",
"349 92 OFFCURVE",
"243 247 OFFCURVE"
);
},
{
closed = 1;
nodes = (
"100 493 CURVE SMOOTH",
"100 162 OFFCURVE",
"261 -25 OFFCURVE",
"510 -25 CURVE SMOOTH",
"633 -25 OFFCURVE",
"740 43 OFFCURVE",
"819 121 CURVE",
"825 121 LINE",
"837 0 LINE",
"951 0 LINE",
"951 990 LINE",
"837 990 LINE",
"826 895 LINE",
"822 895 LINE",
"731 973 OFFCURVE",
"650 1015 OFFCURVE",
"536 1015 CURVE SMOOTH",
"305 1015 OFFCURVE",
"100 814 OFFCURVE"
);
},
{
closed = 1;
nodes = (
"310 1452 CURVE",
"386 1452 LINE",
"395 1512 OFFCURVE",
"425 1542 OFFCURVE",
"467 1542 CURVE SMOOTH",
"535 1542 OFFCURVE",
"575 1452 OFFCURVE",
"676 1452 CURVE SMOOTH",
"771 1452 OFFCURVE",
"822 1531 OFFCURVE",
"830 1626 CURVE",
"755 1626 LINE",
"747 1566 OFFCURVE",
"716 1536 OFFCURVE",
"673 1536 CURVE SMOOTH",
"605 1536 OFFCURVE",
"567 1626 OFFCURVE",
"464 1626 CURVE SMOOTH",
"370 1626 OFFCURVE",
"319 1548 OFFCURVE"
);
},
{
closed = 1;
nodes = (
"327 1168 LINE",
"427 1168 LINE",
"567 1305 LINE",
"575 1305 LINE",
"714 1168 LINE",
"814 1168 LINE",
"632 1378 LINE",
"508 1378 LINE"
);
}
);
width = 1128;
}
);
},
{
glyphname = adieresis.a;
lastChange = "2015-01-07 12:25:14 +0000";
layers = (
{
layerId = "F1FC1B3B-4EE8-4ECF-8776-11160932002C";
name = Light;
paths = (
{
closed = 1;
nodes = (
"243 494 CURVE SMOOTH",
"243 730 OFFCURVE",
"379 899 OFFCURVE",
"554 899 CURVE SMOOTH",
"641 899 OFFCURVE",
"722 868 OFFCURVE",
"814 785 CURVE",
"814 239 LINE",
"723 142 OFFCURVE",
"636 92 OFFCURVE",
"537 92 CURVE SMOOTH",
"349 92 OFFCURVE",
"243 247 OFFCURVE"
);
},
{
closed = 1;
nodes = (
"100 493 CURVE SMOOTH",
"100 162 OFFCURVE",
"261 -25 OFFCURVE",
"510 -25 CURVE SMOOTH",
"633 -25 OFFCURVE",
"740 43 OFFCURVE",
"819 121 CURVE",
"825 121 LINE",
"837 0 LINE",
"951 0 LINE",
"951 990 LINE",
"837 990 LINE",
"826 895 LINE",
"822 895 LINE",
"731 973 OFFCURVE",
"650 1015 OFFCURVE",
"536 1015 CURVE SMOOTH",
"305 1015 OFFCURVE",
"100 814 OFFCURVE"
);
},
{
closed = 1;
nodes = (
"399 1213 CURVE SMOOTH",
"452 1213 OFFCURVE",
"490 1251 OFFCURVE",
"490 1303 CURVE SMOOTH",
"490 1353 OFFCURVE",
"452 1392 OFFCURVE",
"399 1392 CURVE SMOOTH",
"348 1392 OFFCURVE",
"310 1353 OFFCURVE",
"310 1303 CURVE SMOOTH",
"310 1251 OFFCURVE",
"348 1213 OFFCURVE"
);
},
{
closed = 1;
nodes = (
"742 1213 CURVE SMOOTH",
"792 1213 OFFCURVE",
"831 1251 OFFCURVE",
"831 1303 CURVE SMOOTH",
"831 1353 OFFCURVE",
"792 1392 OFFCURVE",
"742 1392 CURVE SMOOTH",
"690 1392 OFFCURVE",
"651 1353 OFFCURVE",
"651 1303 CURVE SMOOTH",
"651 1251 OFFCURVE",
"690 1213 OFFCURVE"
);
}
);
width = 1128;
}
);
},
{
glyphname = uni1EA1.a;
lastChange = "2015-01-07 12:25:14 +0000";
layers = (
{
layerId = "F1FC1B3B-4EE8-4ECF-8776-11160932002C";
name = Light;
paths = (
{
closed = 1;
nodes = (
"243 494 CURVE SMOOTH",
"243 730 OFFCURVE",
"379 899 OFFCURVE",
"554 899 CURVE SMOOTH",
"641 899 OFFCURVE",
"722 868 OFFCURVE",
"814 785 CURVE",
"814 239 LINE",
"723 142 OFFCURVE",
"636 92 OFFCURVE",
"537 92 CURVE SMOOTH",
"349 92 OFFCURVE",
"243 247 OFFCURVE"
);
},
{
closed = 1;
nodes = (
"100 493 CURVE SMOOTH",
"100 162 OFFCURVE",
"261 -25 OFFCURVE",
"510 -25 CURVE SMOOTH",
"633 -25 OFFCURVE",
"740 43 OFFCURVE",
"819 121 CURVE",
"825 121 LINE",
"837 0 LINE",
"951 0 LINE",
"951 990 LINE",
"837 990 LINE",
"826 895 LINE",
"822 895 LINE",
"731 973 OFFCURVE",
"650 1015 OFFCURVE",
"536 1015 CURVE SMOOTH",
"305 1015 OFFCURVE",
"100 814 OFFCURVE"
);
},
{
closed = 1;
nodes = (
"573 -412 CURVE SMOOTH",
"628 -412 OFFCURVE",
"670 -372 OFFCURVE",
"670 -312 CURVE SMOOTH",
"670 -255 OFFCURVE",
"628 -215 OFFCURVE",
"573 -215 CURVE SMOOTH",
"517 -215 OFFCURVE",
"476 -255 OFFCURVE",
"476 -312 CURVE SMOOTH",
"476 -372 OFFCURVE",
"517 -412 OFFCURVE"
);
}
);
width = 1128;
}
);
},
{
glyphname = agrave.a;
lastChange = "2015-01-07 12:25:14 +0000";
layers = (
{
layerId = "F1FC1B3B-4EE8-4ECF-8776-11160932002C";
name = Light;
paths = (
{
closed = 1;
nodes = (
"243 494 CURVE SMOOTH",
"243 730 OFFCURVE",
"379 899 OFFCURVE",
"554 899 CURVE SMOOTH",
"641 899 OFFCURVE",
"722 868 OFFCURVE",
"814 785 CURVE",
"814 239 LINE",
"723 142 OFFCURVE",
"636 92 OFFCURVE",
"537 92 CURVE SMOOTH",
"349 92 OFFCURVE",
"243 247 OFFCURVE"
);
},
{
closed = 1;
nodes = (
"100 493 CURVE SMOOTH",
"100 162 OFFCURVE",
"261 -25 OFFCURVE",
"510 -25 CURVE SMOOTH",
"633 -25 OFFCURVE",
"740 43 OFFCURVE",
"819 121 CURVE",
"825 121 LINE",
"837 0 LINE",
"951 0 LINE",
"951 990 LINE",
"837 990 LINE",
"826 895 LINE",
"822 895 LINE",
"731 973 OFFCURVE",
"650 1015 OFFCURVE",
"536 1015 CURVE SMOOTH",
"305 1015 OFFCURVE",
"100 814 OFFCURVE"
);
},
{
closed = 1;
nodes = (
"589 1173 LINE",
"696 1173 LINE",
"509 1457 LINE",
"362 1457 LINE"
);
}
);
width = 1128;
}
);
},
{
glyphname = uni1EA3.a;
lastChange = "2015-01-07 12:25:14 +0000";
layers = (
{
layerId = "F1FC1B3B-4EE8-4ECF-8776-11160932002C";
name = Light;
paths = (
{
closed = 1;
nodes = (
"243 494 CURVE SMOOTH",
"243 730 OFFCURVE",
"379 899 OFFCURVE",
"554 899 CURVE SMOOTH",
"641 899 OFFCURVE",
"722 868 OFFCURVE",
"814 785 CURVE",
"814 239 LINE",
"723 142 OFFCURVE",
"636 92 OFFCURVE",
"537 92 CURVE SMOOTH",
"349 92 OFFCURVE",
"243 247 OFFCURVE"
);
},
{
closed = 1;
nodes = (
"100 493 CURVE SMOOTH",
"100 162 OFFCURVE",
"261 -25 OFFCURVE",
"510 -25 CURVE SMOOTH",
"633 -25 OFFCURVE",
"740 43 OFFCURVE",
"819 121 CURVE",
"825 121 LINE",
"837 0 LINE",
"951 0 LINE",
"951 990 LINE",
"837 990 LINE",
"826 895 LINE",
"822 895 LINE",
"731 973 OFFCURVE",
"650 1015 OFFCURVE",
"536 1015 CURVE SMOOTH",
"305 1015 OFFCURVE",
"100 814 OFFCURVE"
);
},
{
closed = 1;
nodes = (
"517 1131 LINE",
"627 1154 OFFCURVE",
"730 1202 OFFCURVE",
"730 1316 CURVE SMOOTH",
"730 1420 OFFCURVE",
"623 1470 OFFCURVE",
"462 1476 CURVE",
"449 1392 LINE",
"560 1387 OFFCURVE",
"620 1357 OFFCURVE",
"620 1300 CURVE SMOOTH",
"620 1246 OFFCURVE",
"567 1219 OFFCURVE",
"499 1199 CURVE"
);
}
);
width = 1128;
}
);
},
{
glyphname = amacron.a;
lastChange = "2015-01-07 12:25:14 +0000";
layers = (
{
layerId = "F1FC1B3B-4EE8-4ECF-8776-11160932002C";
name = Light;
paths = (
{
closed = 1;
nodes = (
"243 494 CURVE SMOOTH",
"243 730 OFFCURVE",
"379 899 OFFCURVE",
"554 899 CURVE SMOOTH",
"641 899 OFFCURVE",
"722 868 OFFCURVE",
"814 785 CURVE",
"814 239 LINE",
"723 142 OFFCURVE",
"636 92 OFFCURVE",
"537 92 CURVE SMOOTH",
"349 92 OFFCURVE",
"243 247 OFFCURVE"
);
},
{
closed = 1;
nodes = (
"100 493 CURVE SMOOTH",
"100 162 OFFCURVE",
"261 -25 OFFCURVE",
"510 -25 CURVE SMOOTH",
"633 -25 OFFCURVE",
"740 43 OFFCURVE",
"819 121 CURVE",
"825 121 LINE",
"837 0 LINE",
"951 0 LINE",
"951 990 LINE",
"837 990 LINE",
"826 895 LINE",
"822 895 LINE",
"731 973 OFFCURVE",
"650 1015 OFFCURVE",
"536 1015 CURVE SMOOTH",
"305 1015 OFFCURVE",
"100 814 OFFCURVE"
);
},
{
closed = 1;
nodes = (
"327 1235 LINE",
"813 1235 LINE",
"813 1334 LINE",
"327 1334 LINE"
);
}
);
width = 1128;
}
);
},
{
glyphname = aogonek.a;
lastChange = "2015-01-07 12:25:14 +0000";
layers = (
{
anchors = (
{
name = mark0;
position = "{569, 1035}";
}
);
layerId = "F1FC1B3B-4EE8-4ECF-8776-11160932002C";
name = Light;
paths = (
{
closed = 1;
nodes = (
"243 494 CURVE SMOOTH",
"243 730 OFFCURVE",
"379 899 OFFCURVE",
"554 899 CURVE SMOOTH",
"641 899 OFFCURVE",
"722 868 OFFCURVE",
"814 785 CURVE",
"814 239 LINE",
"723 142 OFFCURVE",
"636 92 OFFCURVE",
"537 92 CURVE SMOOTH",
"349 92 OFFCURVE",
"243 247 OFFCURVE"
);
},
{
closed = 1;
nodes = (
"100 493 CURVE SMOOTH",
"100 162 OFFCURVE",
"261 -25 OFFCURVE",
"510 -25 CURVE SMOOTH",
"633 -25 OFFCURVE",
"740 43 OFFCURVE",
"819 121 CURVE",
"825 121 LINE",
"838 10 LINE",
"742 -58 OFFCURVE",
"668 -140 OFFCURVE",
"668 -249 CURVE SMOOTH",
"668 -361 OFFCURVE",
"746 -420 OFFCURVE",
"846 -420 CURVE SMOOTH",
"894 -420 OFFCURVE",
"959 -396 OFFCURVE",
"995 -368 CURVE",
"956 -296 LINE",
"930 -314 OFFCURVE",
"904 -323 OFFCURVE",
"871 -323 CURVE SMOOTH",
"820 -323 OFFCURVE",
"774 -290 OFFCURVE",
"774 -224 CURVE SMOOTH",
"774 -141 OFFCURVE",
"833 -64 OFFCURVE",
"951 0 CURVE",
"951 990 LINE",
"837 990 LINE",
"826 895 LINE",
"822 895 LINE",
"731 973 OFFCURVE",
"650 1015 OFFCURVE",
"536 1015 CURVE SMOOTH",
"305 1015 OFFCURVE",
"100 814 OFFCURVE"
);
}
);
width = 1128;
}
);
},
{
glyphname = aring.a;
lastChange = "2015-01-07 12:25:14 +0000";
layers = (
{
layerId = "F1FC1B3B-4EE8-4ECF-8776-11160932002C";
name = Light;
paths = (
{
closed = 1;
nodes = (
"243 494 CURVE SMOOTH",
"243 730 OFFCURVE",
"379 899 OFFCURVE",
"554 899 CURVE SMOOTH",
"641 899 OFFCURVE",
"722 868 OFFCURVE",
"814 785 CURVE",
"814 239 LINE",
"723 142 OFFCURVE",
"636 92 OFFCURVE",
"537 92 CURVE SMOOTH",
"349 92 OFFCURVE",
"243 247 OFFCURVE"
);
},
{
closed = 1;
nodes = (
"100 493 CURVE SMOOTH",
"100 162 OFFCURVE",
"261 -25 OFFCURVE",
"510 -25 CURVE SMOOTH",
"633 -25 OFFCURVE",
"740 43 OFFCURVE",
"819 121 CURVE",
"825 121 LINE",
"837 0 LINE",
"951 0 LINE",
"951 990 LINE",
"837 990 LINE",
"826 895 LINE",
"822 895 LINE",
"731 973 OFFCURVE",
"650 1015 OFFCURVE",
"536 1015 CURVE SMOOTH",
"305 1015 OFFCURVE",
"100 814 OFFCURVE"
);
},
{
closed = 1;
nodes = (
"571 1108 CURVE SMOOTH",
"676 1108 OFFCURVE",
"752 1182 OFFCURVE",
"752 1292 CURVE SMOOTH",
"752 1402 OFFCURVE",
"676 1476 OFFCURVE",
"571 1476 CURVE SMOOTH",
"465 1476 OFFCURVE",
"388 1402 OFFCURVE",
"388 1292 CURVE SMOOTH",
"388 1182 OFFCURVE",
"465 1108 OFFCURVE"
);
},
{
closed = 1;
nodes = (
"571 1174 CURVE SMOOTH",
"514 1174 OFFCURVE",
"469 1221 OFFCURVE",
"469 1292 CURVE SMOOTH",
"469 1363 OFFCURVE",
"514 1410 OFFCURVE",
"571 1410 CURVE SMOOTH",
"627 1410 OFFCURVE",
"673 1363 OFFCURVE",
"673 1292 CURVE SMOOTH",
"673 1221 OFFCURVE",
"627 1174 OFFCURVE"
);
}
);
width = 1128;
}
);
},
{
glyphname = atilde.a;
lastChange = "2015-01-07 12:25:14 +0000";
layers = (
{
layerId = "F1FC1B3B-4EE8-4ECF-8776-11160932002C";
name = Light;
paths = (
{
closed = 1;
nodes = (
"243 494 CURVE SMOOTH",
"243 730 OFFCURVE",
"379 899 OFFCURVE",
"554 899 CURVE SMOOTH",
"641 899 OFFCURVE",
"722 868 OFFCURVE",
"814 785 CURVE",
"814 239 LINE",
"723 142 OFFCURVE",
"636 92 OFFCURVE",
"537 92 CURVE SMOOTH",
"349 92 OFFCURVE",
"243 247 OFFCURVE"
);
},
{
closed = 1;
nodes = (
"100 493 CURVE SMOOTH",
"100 162 OFFCURVE",
"261 -25 OFFCURVE",
"510 -25 CURVE SMOOTH",
"633 -25 OFFCURVE",
"740 43 OFFCURVE",
"819 121 CURVE",
"825 121 LINE",
"837 0 LINE",
"951 0 LINE",
"951 990 LINE",
"837 990 LINE",
"826 895 LINE",
"822 895 LINE",
"731 973 OFFCURVE",
"650 1015 OFFCURVE",
"536 1015 CURVE SMOOTH",
"305 1015 OFFCURVE",
"100 814 OFFCURVE"
);
},
{
closed = 1;
nodes = (
"298 1188 CURVE",
"380 1188 LINE",
"391 1258 OFFCURVE",
"414 1295 OFFCURVE",
"456 1295 CURVE SMOOTH",
"526 1295 OFFCURVE",
"585 1188 OFFCURVE",
"686 1188 CURVE SMOOTH",
"786 1188 OFFCURVE",
"834 1282 OFFCURVE",
"843 1390 CURVE",
"761 1390 LINE",
"751 1321 OFFCURVE",
"726 1282 OFFCURVE",
"686 1282 CURVE SMOOTH",
"617 1282 OFFCURVE",
"556 1390 OFFCURVE",
"455 1390 CURVE SMOOTH",
"354 1390 OFFCURVE",
"307 1296 OFFCURVE"
);
}
);
width = 1128;
}
);
},
{
glyphname = g.a;
lastChange = "2015-01-07 12:25:14 +0000";
layers = (
{
anchors = (
{
name = mark0;
position = "{898, -446}";
}
);
layerId = "F1FC1B3B-4EE8-4ECF-8776-11160932002C";
name = Light;
paths = (
{
closed = 1;
nodes = (
"231 -249 CURVE",
"178 -348 LINE",
"280 -416 OFFCURVE",
"403 -453 OFFCURVE",
"529 -453 CURVE SMOOTH",
"800 -453 OFFCURVE",
"954 -305 OFFCURVE",
"954 -64 CURVE SMOOTH",
"954 990 LINE",
"837 990 LINE",
"826 899 LINE",
"820 899 LINE",
"735 973 OFFCURVE",
"659 1015 OFFCURVE",
"541 1015 CURVE SMOOTH",
"305 1015 OFFCURVE",
"105 823 OFFCURVE",
"105 509 CURVE SMOOTH",
"105 189 OFFCURVE",
"259 6 OFFCURVE",
"515 6 CURVE SMOOTH",
"641 6 OFFCURVE",
"741 71 OFFCURVE",
"820 147 CURVE",
"818 -56 LINE",
"814 -232 OFFCURVE",
"720 -341 OFFCURVE",
"529 -341 CURVE SMOOTH",
"432 -341 OFFCURVE",
"330 -317 OFFCURVE"
);
},
{
closed = 1;
nodes = (
"543 121 CURVE SMOOTH",
"350 121 OFFCURVE",
"245 273 OFFCURVE",
"245 510 CURVE SMOOTH",
"245 737 OFFCURVE",
"380 899 OFFCURVE",
"560 899 CURVE SMOOTH",
"650 899 OFFCURVE",
"725 868 OFFCURVE",
"818 785 CURVE",
"818 269 LINE",
"725 171 OFFCURVE",
"645 121 OFFCURVE"
);
}
);
width = 1133;
}
);
userData = {
com.typemytype.robofont.layerData = {
};
};
},
{
glyphname = gbreve.a;
lastChange = "2015-01-07 12:25:14 +0000";
layers = (
{
layerId = "F1FC1B3B-4EE8-4ECF-8776-11160932002C";
name = Light;
paths = (
{
closed = 1;
nodes = (
"231 -246 CURVE",
"178 -345 LINE",
"280 -413 OFFCURVE",
"403 -453 OFFCURVE",
"529 -453 CURVE SMOOTH",
"800 -453 OFFCURVE",
"954 -305 OFFCURVE",
"954 -64 CURVE SMOOTH",
"954 990 LINE",
"837 990 LINE",
"826 899 LINE",
"820 899 LINE",
"735 973 OFFCURVE",
"653 1015 OFFCURVE",
"539 1015 CURVE SMOOTH",
"310 1015 OFFCURVE",
"105 820 OFFCURVE",
"105 509 CURVE SMOOTH",
"105 191 OFFCURVE",
"264 6 OFFCURVE",
"513 6 CURVE SMOOTH",
"636 6 OFFCURVE",
"741 71 OFFCURVE",
"820 147 CURVE",
"818 -56 LINE",
"814 -232 OFFCURVE",
"720 -341 OFFCURVE",
"529 -341 CURVE SMOOTH",
"432 -341 OFFCURVE",
"330 -314 OFFCURVE"
);
},
{
closed = 1;
nodes = (
"540 121 CURVE SMOOTH",
"352 121 OFFCURVE",
"245 274 OFFCURVE",
"245 510 CURVE SMOOTH",
"245 734 OFFCURVE",
"382 899 OFFCURVE",
"556 899 CURVE SMOOTH",
"644 899 OFFCURVE",
"725 868 OFFCURVE",
"818 785 CURVE",
"818 269 LINE",
"725 171 OFFCURVE",
"639 121 OFFCURVE"
);
},
{
closed = 1;
nodes = (
"583 1179 CURVE SMOOTH",
"756 1179 OFFCURVE",
"824 1318 OFFCURVE",
"835 1432 CURVE",
"746 1432 LINE",
"735 1349 OFFCURVE",
"683 1267 OFFCURVE",
"583 1267 CURVE SMOOTH",
"481 1267 OFFCURVE",
"431 1349 OFFCURVE",
"419 1432 CURVE",
"330 1432 LINE",
"341 1318 OFFCURVE",
"411 1179 OFFCURVE"
);
}
);
width = 1133;
}
);
},
{
glyphname = gcaron.a;
lastChange = "2015-01-07 12:25:14 +0000";
layers = (
{
layerId = "F1FC1B3B-4EE8-4ECF-8776-11160932002C";
name = Light;
paths = (
{
closed = 1;
nodes = (
"231 -246 CURVE",
"178 -345 LINE",
"280 -413 OFFCURVE",
"403 -453 OFFCURVE",
"529 -453 CURVE SMOOTH",
"800 -453 OFFCURVE",
"954 -305 OFFCURVE",
"954 -64 CURVE SMOOTH",
"954 990 LINE",
"837 990 LINE",
"826 899 LINE",
"820 899 LINE",
"735 973 OFFCURVE",
"653 1015 OFFCURVE",
"539 1015 CURVE SMOOTH",
"310 1015 OFFCURVE",
"105 820 OFFCURVE",
"105 509 CURVE SMOOTH",
"105 191 OFFCURVE",
"264 6 OFFCURVE",
"513 6 CURVE SMOOTH",
"636 6 OFFCURVE",
"741 71 OFFCURVE",
"820 147 CURVE",
"818 -56 LINE",
"814 -232 OFFCURVE",
"720 -341 OFFCURVE",
"529 -341 CURVE SMOOTH",
"432 -341 OFFCURVE",
"330 -314 OFFCURVE"
);
},
{
closed = 1;
nodes = (
"540 121 CURVE SMOOTH",
"352 121 OFFCURVE",
"245 274 OFFCURVE",
"245 510 CURVE SMOOTH",
"245 734 OFFCURVE",
"382 899 OFFCURVE",
"556 899 CURVE SMOOTH",
"644 899 OFFCURVE",
"725 868 OFFCURVE",
"818 785 CURVE",
"818 269 LINE",
"725 171 OFFCURVE",
"639 121 OFFCURVE"
);
},
{
closed = 1;
nodes = (
"525 1173 LINE",
"640 1173 LINE",
"834 1457 LINE",
"731 1457 LINE",
"587 1263 LINE",
"579 1263 LINE",
"435 1457 LINE",
"332 1457 LINE"
);
}
);
width = 1133;
}
);
},
{
glyphname = gcircumflex.a;
lastChange = "2015-01-07 12:25:14 +0000";
layers = (
{
layerId = "F1FC1B3B-4EE8-4ECF-8776-11160932002C";
name = Light;
paths = (
{
closed = 1;
nodes = (
"231 -246 CURVE",
"178 -345 LINE",
"280 -413 OFFCURVE",
"403 -453 OFFCURVE",
"529 -453 CURVE SMOOTH",
"800 -453 OFFCURVE",
"954 -305 OFFCURVE",
"954 -64 CURVE SMOOTH",
"954 990 LINE",
"837 990 LINE",
"826 899 LINE",
"820 899 LINE",
"735 973 OFFCURVE",
"653 1015 OFFCURVE",
"539 1015 CURVE SMOOTH",
"310 1015 OFFCURVE",
"105 820 OFFCURVE",
"105 509 CURVE SMOOTH",
"105 191 OFFCURVE",
"264 6 OFFCURVE",
"513 6 CURVE SMOOTH",
"636 6 OFFCURVE",
"741 71 OFFCURVE",
"820 147 CURVE",
"818 -56 LINE",
"814 -232 OFFCURVE",
"720 -341 OFFCURVE",
"529 -341 CURVE SMOOTH",
"432 -341 OFFCURVE",
"330 -314 OFFCURVE"
);
},
{
closed = 1;
nodes = (
"540 121 CURVE SMOOTH",
"352 121 OFFCURVE",
"245 274 OFFCURVE",
"245 510 CURVE SMOOTH",
"245 734 OFFCURVE",
"382 899 OFFCURVE",
"556 899 CURVE SMOOTH",
"644 899 OFFCURVE",
"725 868 OFFCURVE",
"818 785 CURVE",
"818 269 LINE",
"725 171 OFFCURVE",
"639 121 OFFCURVE"
);
},
{
closed = 1;
nodes = (
"332 1173 LINE",
"435 1173 LINE",
"579 1366 LINE",
"587 1366 LINE",
"731 1173 LINE",
"834 1173 LINE",
"640 1457 LINE",
"525 1457 LINE"
);
}
);
width = 1133;
}
);
},
{
glyphname = uni0123.a;
lastChange = "2015-01-07 12:25:14 +0000";
layers = (
{
layerId = "F1FC1B3B-4EE8-4ECF-8776-11160932002C";
name = Light;
paths = (
{
closed = 1;
nodes = (
"231 -246 CURVE",
"178 -345 LINE",
"280 -413 OFFCURVE",
"403 -453 OFFCURVE",
"529 -453 CURVE SMOOTH",
"800 -453 OFFCURVE",
"954 -305 OFFCURVE",
"954 -64 CURVE SMOOTH",
"954 990 LINE",
"837 990 LINE",
"826 899 LINE",
"820 899 LINE",
"735 973 OFFCURVE",
"653 1015 OFFCURVE",
"539 1015 CURVE SMOOTH",
"310 1015 OFFCURVE",
"105 820 OFFCURVE",
"105 509 CURVE SMOOTH",
"105 191 OFFCURVE",
"264 6 OFFCURVE",
"513 6 CURVE SMOOTH",
"636 6 OFFCURVE",
"741 71 OFFCURVE",
"820 147 CURVE",
"818 -56 LINE",
"814 -232 OFFCURVE",
"720 -341 OFFCURVE",
"529 -341 CURVE SMOOTH",
"432 -341 OFFCURVE",
"330 -314 OFFCURVE"
);
},
{
closed = 1;
nodes = (
"540 121 CURVE SMOOTH",
"352 121 OFFCURVE",
"245 274 OFFCURVE",
"245 510 CURVE SMOOTH",
"245 734 OFFCURVE",
"382 899 OFFCURVE",
"556 899 CURVE SMOOTH",
"644 899 OFFCURVE",
"725 868 OFFCURVE",
"818 785 CURVE",
"818 269 LINE",
"725 171 OFFCURVE",
"639 121 OFFCURVE"
);
},
{
closed = 1;
nodes = (
"637 1106 CURVE",
"669 1177 LINE",
"611 1190 OFFCURVE",
"559 1214 OFFCURVE",
"559 1272 CURVE SMOOTH",
"559 1325 OFFCURVE",
"635 1354 OFFCURVE",
"744 1368 CURVE",
"729 1443 LINE",
"583 1428 OFFCURVE",
"448 1374 OFFCURVE",
"448 1261 CURVE SMOOTH",
"448 1173 OFFCURVE",
"509 1127 OFFCURVE"
);
}
);
width = 1133;
}
);
},
{
glyphname = gdotaccent.a;
lastChange = "2015-01-07 12:25:14 +0000";
layers = (
{
layerId = "F1FC1B3B-4EE8-4ECF-8776-11160932002C";
name = Light;
paths = (
{
closed = 1;
nodes = (
"231 -246 CURVE",
"178 -345 LINE",
"280 -413 OFFCURVE",
"403 -453 OFFCURVE",
"529 -453 CURVE SMOOTH",
"800 -453 OFFCURVE",
"954 -305 OFFCURVE",
"954 -64 CURVE SMOOTH",
"954 990 LINE",
"837 990 LINE",
"826 899 LINE",
"820 899 LINE",
"735 973 OFFCURVE",
"653 1015 OFFCURVE",
"539 1015 CURVE SMOOTH",
"310 1015 OFFCURVE",
"105 820 OFFCURVE",
"105 509 CURVE SMOOTH",
"105 191 OFFCURVE",
"264 6 OFFCURVE",
"513 6 CURVE SMOOTH",
"636 6 OFFCURVE",
"741 71 OFFCURVE",
"820 147 CURVE",
"818 -56 LINE",
"814 -232 OFFCURVE",
"720 -341 OFFCURVE",
"529 -341 CURVE SMOOTH",
"432 -341 OFFCURVE",
"330 -314 OFFCURVE"
);
},
{
closed = 1;
nodes = (
"540 121 CURVE SMOOTH",
"352 121 OFFCURVE",
"245 274 OFFCURVE",
"245 510 CURVE SMOOTH",
"245 734 OFFCURVE",
"382 899 OFFCURVE",
"556 899 CURVE SMOOTH",
"644 899 OFFCURVE",
"725 868 OFFCURVE",
"818 785 CURVE",
"818 269 LINE",
"725 171 OFFCURVE",
"639 121 OFFCURVE"
);
},
{
closed = 1;
nodes = (
"583 1209 CURVE SMOOTH",
"639 1209 OFFCURVE",
"680 1248 OFFCURVE",
"680 1309 CURVE SMOOTH",
"680 1365 OFFCURVE",
"639 1406 OFFCURVE",
"583 1406 CURVE SMOOTH",
"526 1406 OFFCURVE",
"486 1365 OFFCURVE",
"486 1309 CURVE SMOOTH",
"486 1248 OFFCURVE",
"526 1209 OFFCURVE"
);
}
);
width = 1133;
}
);
},
{
glyphname = uni1E21.a;
lastChange = "2015-01-07 12:25:14 +0000";
layers = (
{
layerId = "F1FC1B3B-4EE8-4ECF-8776-11160932002C";
name = Light;
paths = (
{
closed = 1;
nodes = (
"231 -246 CURVE",
"178 -345 LINE",
"280 -413 OFFCURVE",
"403 -453 OFFCURVE",
"529 -453 CURVE SMOOTH",
"800 -453 OFFCURVE",
"954 -305 OFFCURVE",
"954 -64 CURVE SMOOTH",
"954 990 LINE",
"837 990 LINE",
"826 899 LINE",
"820 899 LINE",
"735 973 OFFCURVE",
"653 1015 OFFCURVE",
"539 1015 CURVE SMOOTH",
"310 1015 OFFCURVE",
"105 820 OFFCURVE",
"105 509 CURVE SMOOTH",
"105 191 OFFCURVE",
"264 6 OFFCURVE",
"513 6 CURVE SMOOTH",
"636 6 OFFCURVE",
"741 71 OFFCURVE",
"820 147 CURVE",
"818 -56 LINE",
"814 -232 OFFCURVE",
"720 -341 OFFCURVE",
"529 -341 CURVE SMOOTH",
"432 -341 OFFCURVE",
"330 -314 OFFCURVE"
);
},
{
closed = 1;
nodes = (
"540 121 CURVE SMOOTH",
"352 121 OFFCURVE",
"245 274 OFFCURVE",
"245 510 CURVE SMOOTH",
"245 734 OFFCURVE",
"382 899 OFFCURVE",
"556 899 CURVE SMOOTH",
"644 899 OFFCURVE",
"725 868 OFFCURVE",
"818 785 CURVE",
"818 269 LINE",
"725 171 OFFCURVE",
"639 121 OFFCURVE"
);
},
{
closed = 1;
nodes = (
"339 1235 LINE",
"826 1235 LINE",
"826 1334 LINE",
"339 1334 LINE"
);
}
);
width = 1133;
}
);
},
{
glyphname = l.a;
lastChange = "2015-01-07 12:25:14 +0000";
layers = (
{
anchors = (
{
name = mark0;
position = "{245, -45}";
}
);
layerId = "F1FC1B3B-4EE8-4ECF-8776-11160932002C";
name = Light;
paths = (
{
closed = 1;
nodes = (
"176 0 LINE",
"313 0 LINE",
"313 1464 LINE",
"176 1464 LINE"
);
}
);
width = 490;
}
);
},
{
glyphname = lacute.a;
lastChange = "2015-01-07 12:25:14 +0000";
layers = (
{
layerId = "F1FC1B3B-4EE8-4ECF-8776-11160932002C";
name = Light;
paths = (
{
closed = 1;
nodes = (
"176 0 LINE",
"313 0 LINE",
"313 1464 LINE",
"176 1464 LINE"
);
},
{
closed = 1;
nodes = (
"490 1779 LINE",
"329 1779 LINE",
"143 1555 LINE",
"261 1555 LINE"
);
}
);
width = 490;
}
);
},
{
glyphname = lcaron.a;
lastChange = "2015-01-07 12:25:14 +0000";
layers = (
{
layerId = "F1FC1B3B-4EE8-4ECF-8776-11160932002C";
name = Light;
paths = (
{
closed = 1;
nodes = (
"176 0 LINE",
"313 0 LINE",
"313 1464 LINE",
"176 1464 LINE"
);
},
{
closed = 1;
nodes = (
"508 1122 LINE",
"532 1441 LINE",
"532 1551 LINE",
"430 1551 LINE",
"436 1122 LINE"
);
}
);
width = 517;
}
);
},
{
glyphname = uni013C.a;
lastChange = "2015-01-07 12:25:14 +0000";
layers = (
{
layerId = "F1FC1B3B-4EE8-4ECF-8776-11160932002C";
name = Light;
paths = (
{
closed = 1;
nodes = (
"176 0 LINE",
"313 0 LINE",
"313 1464 LINE",
"176 1464 LINE"
);
},
{
closed = 1;
nodes = (
"188 -100 CURVE",
"157 -171 LINE",
"214 -184 OFFCURVE",
"265 -208 OFFCURVE",
"265 -265 CURVE SMOOTH",
"265 -319 OFFCURVE",
"189 -348 OFFCURVE",
"80 -363 CURVE",
"95 -436 LINE",
"241 -423 OFFCURVE",
"375 -369 OFFCURVE",
"375 -255 CURVE SMOOTH",
"375 -166 OFFCURVE",
"316 -122 OFFCURVE"
);
}
);
width = 490;
}
);
},
{
glyphname = ldot.a;
lastChange = "2015-01-07 12:25:14 +0000";
layers = (
{
layerId = "F1FC1B3B-4EE8-4ECF-8776-11160932002C";
name = Light;
paths = (
{
closed = 1;
nodes = (
"176 0 LINE",
"313 0 LINE",
"313 1464 LINE",
"176 1464 LINE"
);
},
{
closed = 1;
nodes = (
"485 664 CURVE SMOOTH",
"485 596 OFFCURVE",
"534 551 OFFCURVE",
"593 551 CURVE SMOOTH",
"651 551 OFFCURVE",
"700 596 OFFCURVE",
"700 664 CURVE SMOOTH",
"700 734 OFFCURVE",
"651 779 OFFCURVE",
"593 779 CURVE SMOOTH",
"534 779 OFFCURVE",
"485 734 OFFCURVE"
);
}
);
width = 696;
}
);
},
{
glyphname = uni1E37.a;
lastChange = "2015-01-07 12:25:14 +0000";
layers = (
{
layerId = "F1FC1B3B-4EE8-4ECF-8776-11160932002C";
name = Light;
paths = (
{
closed = 1;
nodes = (
"176 0 LINE",
"313 0 LINE",
"313 1464 LINE",
"176 1464 LINE"
);
},
{
closed = 1;
nodes = (
"245 -412 CURVE SMOOTH",
"302 -412 OFFCURVE",
"342 -372 OFFCURVE",
"342 -312 CURVE SMOOTH",
"342 -255 OFFCURVE",
"302 -215 OFFCURVE",
"245 -215 CURVE SMOOTH",
"189 -215 OFFCURVE",
"148 -255 OFFCURVE",
"148 -312 CURVE SMOOTH",
"148 -372 OFFCURVE",
"189 -412 OFFCURVE"
);
}
);
width = 490;
}
);
},
{
glyphname = uni1E39.a;
lastChange = "2015-01-07 12:25:14 +0000";
layers = (
{
layerId = "F1FC1B3B-4EE8-4ECF-8776-11160932002C";
name = Light;
paths = (
{
closed = 1;
nodes = (
"176 0 LINE",
"313 0 LINE",
"313 1464 LINE",
"176 1464 LINE"
);
},
{
closed = 1;
nodes = (
"1 1690 LINE",
"488 1690 LINE",
"488 1791 LINE",
"1 1791 LINE"
);
},
{
closed = 1;
nodes = (
"245 -412 CURVE SMOOTH",
"302 -412 OFFCURVE",
"342 -372 OFFCURVE",
"342 -312 CURVE SMOOTH",
"342 -255 OFFCURVE",
"302 -215 OFFCURVE",
"245 -215 CURVE SMOOTH",
"189 -215 OFFCURVE",
"148 -255 OFFCURVE",
"148 -312 CURVE SMOOTH",
"148 -372 OFFCURVE",
"189 -412 OFFCURVE"
);
}
);
width = 490;
}
);
},
{
glyphname = uni1E3B.a;
lastChange = "2015-01-07 12:25:14 +0000";
layers = (
{
layerId = "F1FC1B3B-4EE8-4ECF-8776-11160932002C";
name = Light;
paths = (
{
closed = 1;
nodes = (
"176 0 LINE",
"313 0 LINE",
"313 1464 LINE",
"176 1464 LINE"
);
},
{
closed = 1;
nodes = (
"488 -240 LINE",
"-2 -240 LINE",
"-2 -341 LINE",
"488 -341 LINE"
);
}
);
width = 490;
}
);
},
{
glyphname = lslash.a;
lastChange = "2015-01-07 12:25:14 +0000";
layers = (
{
layerId = "F1FC1B3B-4EE8-4ECF-8776-11160932002C";
name = Light;
paths = (
{
closed = 1;
nodes = (
"466 994 LINE",
"313 895 LINE",
"313 1464 LINE",
"176 1464 LINE",
"176 822 LINE",
"51 741 LINE",
"51 621 LINE",
"176 702 LINE",
"176 0 LINE",
"313 0 LINE",
"313 774 LINE",
"466 873 LINE"
);
}
);
width = 504;
}
);
},
{
glyphname = iogonek.d;
lastChange = "2015-01-15 10:08:19 +0000";
layers = (
{
layerId = "F1FC1B3B-4EE8-4ECF-8776-11160932002C";
name = Light;
paths = (
{
closed = 1;
nodes = (
"176 0 LINE",
"207 0 LINE",
"148 -61 OFFCURVE",
"77 -140 OFFCURVE",
"77 -249 CURVE SMOOTH",
"77 -361 OFFCURVE",
"155 -420 OFFCURVE",
"255 -420 CURVE SMOOTH",
"303 -420 OFFCURVE",
"368 -396 OFFCURVE",
"404 -368 CURVE",
"365 -296 LINE",
"337 -314 OFFCURVE",
"313 -323 OFFCURVE",
"281 -323 CURVE SMOOTH",
"230 -323 OFFCURVE",
"183 -290 OFFCURVE",
"183 -224 CURVE SMOOTH",
"183 -141 OFFCURVE",
"237 -64 OFFCURVE",
"313 0 CURVE",
"313 990 LINE",
"176 990 LINE"
);
}
);
width = 490;
}
);
},
{
glyphname = a.supa;
lastChange = "2015-01-07 12:25:14 +0000";
layers = (
{
layerId = "F1FC1B3B-4EE8-4ECF-8776-11160932002C";
name = Light;
paths = (
{
closed = 1;
nodes = (
"181 872 CURVE SMOOTH",
"181 1015 OFFCURVE",
"268 1116 OFFCURVE",
"372 1116 CURVE SMOOTH",
"425 1116 OFFCURVE",
"483 1095 OFFCURVE",
"542 1042 CURVE",
"542 698 LINE",
"481 639 OFFCURVE",
"430 609 OFFCURVE",
"374 609 CURVE SMOOTH",
"242 609 OFFCURVE",
"181 705 OFFCURVE"
);
},
{
closed = 1;
nodes = (
"71 868 CURVE SMOOTH",
"71 644 OFFCURVE",
"177 516 OFFCURVE",
"351 516 CURVE SMOOTH",
"430 516 OFFCURVE",
"488 558 OFFCURVE",
"543 606 CURVE",
"551 606 LINE",
"561 532 LINE",
"648 532 LINE",
"648 1189 LINE",
"566 1189 LINE",
"555 1124 LINE",
"547 1124 LINE",
"491 1176 OFFCURVE",
"431 1205 OFFCURVE",
"360 1205 CURVE SMOOTH",
"209 1205 OFFCURVE",
"71 1076 OFFCURVE"
);
}
);
width = 760;
}
);
},
{
glyphname = g.supa;
lastChange = "2015-01-07 12:25:14 +0000";
layers = (
{
layerId = "F1FC1B3B-4EE8-4ECF-8776-11160932002C";
name = Light;
paths = (
{
closed = 1;
nodes = (
"159 381 CURVE",
"117 305 LINE",
"187 259 OFFCURVE",
"272 230 OFFCURVE",
"353 230 CURVE SMOOTH",
"540 230 OFFCURVE",
"650 337 OFFCURVE",
"650 503 CURVE SMOOTH",
"650 1189 LINE",
"566 1189 LINE",
"555 1125 LINE",
"549 1125 LINE",
"494 1177 OFFCURVE",
"433 1205 OFFCURVE",
"362 1205 CURVE SMOOTH",
"210 1205 OFFCURVE",
"72 1076 OFFCURVE",
"72 871 CURVE SMOOTH",
"72 674 OFFCURVE",
"180 546 OFFCURVE",
"354 546 CURVE SMOOTH",
"430 546 OFFCURVE",
"486 583 OFFCURVE",
"549 635 CURVE",
"545 542 LINE",
"545 510 LINE",
"545 398 OFFCURVE",
"477 320 OFFCURVE",
"355 320 CURVE SMOOTH",
"290 320 OFFCURVE",
"220 339 OFFCURVE"
);
},
{
closed = 1;
nodes = (
"375 637 CURVE SMOOTH",
"244 637 OFFCURVE",
"183 733 OFFCURVE",
"183 874 CURVE SMOOTH",
"183 1015 OFFCURVE",
"269 1113 OFFCURVE",
"374 1113 CURVE SMOOTH",
"426 1113 OFFCURVE",
"487 1093 OFFCURVE",
"545 1042 CURVE",
"545 726 LINE",
"482 667 OFFCURVE",
"431 637 OFFCURVE"
);
}
);
width = 764;
}
);
},
{
glyphname = l.supa;
lastChange = "2015-01-16 19:41:48 +0000";
layers = (
{
hints = (
{
horizontal = 1;
origin = "{0, 0}";
target = "{0, 0}";
type = Tag;
name = hr00;
}
);
layerId = "F1FC1B3B-4EE8-4ECF-8776-11160932002C";
name = Light;
paths = (
{
closed = 1;
nodes = (
"111 532 LINE",
"217 532 LINE",
"217 1496 LINE",
"111 1496 LINE"
);
}
);
width = 329;
}
);
userData = {
com.adobe.type.autohint = "ICA8aGludFNldExpc3Q+CiAgICA8aGludHNldCBw";
};
},
{
glyphname = a.sups;
lastChange = "2015-01-16 19:41:48 +0000";
layers = (
{
hints = (
{
horizontal = 1;
origin = "{0, 0}";
target = "{0, 0}";
type = Tag;
name = hr00;
}
);
layerId = "F1FC1B3B-4EE8-4ECF-8776-11160932002C";
name = Light;
paths = (
{
closed = 1;
nodes = (
"281 516 CURVE SMOOTH",
"367 516 OFFCURVE",
"436 561 OFFCURVE",
"492 610 CURVE",
"501 610 LINE",
"514 532 LINE",
"599 532 LINE",
"599 937 LINE",
"599 1104 OFFCURVE",
"535 1205 OFFCURVE",
"374 1205 CURVE SMOOTH",
"267 1205 OFFCURVE",
"169 1157 OFFCURVE",
"107 1117 CURVE",
"148 1043 LINE",
"200 1076 OFFCURVE",
"284 1116 OFFCURVE",
"360 1116 CURVE SMOOTH",
"463 1116 OFFCURVE",
"491 1044 OFFCURVE",
"493 949 CURVE",
"207 923 OFFCURVE",
"80 850 OFFCURVE",
"80 706 CURVE SMOOTH",
"80 591 OFFCURVE",
"162 516 OFFCURVE"
);
},
{
closed = 1;
nodes = (
"310 603 CURVE SMOOTH",
"235 603 OFFCURVE",
"187 638 OFFCURVE",
"187 715 CURVE SMOOTH",
"187 797 OFFCURVE",
"265 856 OFFCURVE",
"493 880 CURVE",
"493 693 LINE",
"428 632 OFFCURVE",
"369 603 OFFCURVE"
);
}
);
width = 700;
}
);
unicode = 1D43;
userData = {
com.adobe.type.autohint = "ICA8aGludFNldExpc3Q+CiAgICA8aGludHNldCBw";
};
},
{
glyphname = b.sups;
lastChange = "2015-01-15 10:08:19 +0000";
layers = (
{
layerId = "F1FC1B3B-4EE8-4ECF-8776-11160932002C";
name = Light;
paths = (
{
closed = 1;
nodes = (
"111 532 LINE",
"194 532 LINE",
"204 597 LINE",
"213 597 LINE",
"271 545 OFFCURVE",
"341 516 OFFCURVE",
"403 516 CURVE SMOOTH",
"556 516 OFFCURVE",
"689 647 OFFCURVE",
"689 872 CURVE SMOOTH",
"689 1075 OFFCURVE",
"597 1205 OFFCURVE",
"423 1205 CURVE SMOOTH",
"344 1205 OFFCURVE",
"276 1161 OFFCURVE",
"212 1108 CURVE",
"217 1230 LINE",
"217 1496 LINE",
"111 1496 LINE"
);
},
{
closed = 1;
nodes = (
"217 677 CURVE",
"217 1021 LINE",
"280 1080 OFFCURVE",
"343 1115 OFFCURVE",
"400 1115 CURVE SMOOTH",
"525 1115 OFFCURVE",
"579 1018 OFFCURVE",
"579 871 CURVE SMOOTH",
"579 705 OFFCURVE",
"498 606 OFFCURVE",
"391 606 CURVE SMOOTH",
"340 606 OFFCURVE",
"276 625 OFFCURVE"
);
}
);
width = 760;
}
);
unicode = 1D47;
},
{
glyphname = c.sups;
lastChange = "2015-01-15 10:08:19 +0000";
layers = (
{
layerId = "F1FC1B3B-4EE8-4ECF-8776-11160932002C";
name = Light;
paths = (
{
closed = 1;
nodes = (
"376 516 CURVE SMOOTH",
"477 516 OFFCURVE",
"541 554 OFFCURVE",
"589 594 CURVE",
"543 665 LINE",
"503 632 OFFCURVE",
"457 606 OFFCURVE",
"384 606 CURVE SMOOTH",
"260 606 OFFCURVE",
"172 710 OFFCURVE",
"172 860 CURVE SMOOTH",
"172 1010 OFFCURVE",
"264 1116 OFFCURVE",
"383 1116 CURVE SMOOTH",
"448 1116 OFFCURVE",
"482 1096 OFFCURVE",
"525 1061 CURVE",
"578 1132 LINE",
"536 1168 OFFCURVE",
"473 1205 OFFCURVE",
"379 1205 CURVE SMOOTH",
"212 1205 OFFCURVE",
"64 1079 OFFCURVE",
"64 860 CURVE SMOOTH",
"64 640 OFFCURVE",
"196 516 OFFCURVE"
);
}
);
width = 623;
}
);
unicode = 1D9C;
},
{
glyphname = d.sups;
lastChange = "2015-01-15 10:08:19 +0000";
layers = (
{
layerId = "F1FC1B3B-4EE8-4ECF-8776-11160932002C";
name = Light;
paths = (
{
closed = 1;
nodes = (
"351 516 CURVE SMOOTH",
"430 516 OFFCURVE",
"488 558 OFFCURVE",
"543 606 CURVE",
"550 606 LINE",
"563 532 LINE",
"648 532 LINE",
"648 1496 LINE",
"542 1496 LINE",
"542 1244 LINE",
"548 1128 LINE",
"489 1176 OFFCURVE",
"431 1205 OFFCURVE",
"359 1205 CURVE SMOOTH",
"209 1205 OFFCURVE",
"71 1076 OFFCURVE",
"71 872 CURVE SMOOTH",
"71 644 OFFCURVE",
"177 516 OFFCURVE"
);
},
{
closed = 1;
nodes = (
"374 606 CURVE SMOOTH",
"242 606 OFFCURVE",
"181 705 OFFCURVE",
"181 872 CURVE SMOOTH",
"181 1015 OFFCURVE",
"268 1116 OFFCURVE",
"372 1116 CURVE SMOOTH",
"425 1116 OFFCURVE",
"483 1095 OFFCURVE",
"542 1042 CURVE",
"542 698 LINE",
"481 639 OFFCURVE",
"430 606 OFFCURVE"
);
}
);
width = 760;
}
);
unicode = 1D48;
},
{
glyphname = e.sups;
lastChange = "2015-01-15 10:08:19 +0000";
layers = (
{
layerId = "F1FC1B3B-4EE8-4ECF-8776-11160932002C";
name = Light;
paths = (
{
closed = 1;
nodes = (
"378 516 CURVE SMOOTH",
"470 516 OFFCURVE",
"544 550 OFFCURVE",
"604 587 CURVE",
"561 658 LINE",
"515 626 OFFCURVE",
"456 603 OFFCURVE",
"388 603 CURVE SMOOTH",
"257 603 OFFCURVE",
"171 694 OFFCURVE",
"165 838 CURVE",
"621 838 LINE",
"626 869 OFFCURVE",
"627 880 OFFCURVE",
"627 906 CURVE SMOOTH",
"627 1027 OFFCURVE",
"568 1205 OFFCURVE",
"362 1205 CURVE SMOOTH",
"198 1205 OFFCURVE",
"59 1071 OFFCURVE",
"59 860 CURVE SMOOTH",
"59 639 OFFCURVE",
"201 516 OFFCURVE"
);
},
{
closed = 1;
nodes = (
"164 911 LINE",
"181 1039 OFFCURVE",
"255 1117 OFFCURVE",
"362 1117 CURVE SMOOTH",
"489 1117 OFFCURVE",
"531 1009 OFFCURVE",
"531 911 CURVE"
);
}
);
width = 683;
}
);
unicode = 1D49;
},
{
glyphname = eacute.sups;
lastChange = "2015-01-16 19:41:48 +0000";
layers = (
{
hints = (
{
horizontal = 1;
origin = "{0, 0}";
target = "{0, 0}";
type = Tag;
name = hr00;
}
);
layerId = "F1FC1B3B-4EE8-4ECF-8776-11160932002C";
name = Light;
paths = (
{
closed = 1;
nodes = (
"272 1308 LINE",
"361 1308 LINE",
"512 1498 LINE",
"396 1498 LINE"
);
},
{
closed = 1;
nodes = (
"378 516 CURVE SMOOTH",
"470 516 OFFCURVE",
"544 550 OFFCURVE",
"604 587 CURVE",
"561 658 LINE",
"515 626 OFFCURVE",
"456 603 OFFCURVE",
"388 603 CURVE SMOOTH",
"257 603 OFFCURVE",
"171 694 OFFCURVE",
"165 838 CURVE",
"621 838 LINE",
"626 869 OFFCURVE",
"627 880 OFFCURVE",
"627 906 CURVE SMOOTH",
"627 1027 OFFCURVE",
"568 1205 OFFCURVE",
"362 1205 CURVE SMOOTH",
"198 1205 OFFCURVE",
"59 1071 OFFCURVE",
"59 860 CURVE SMOOTH",
"59 639 OFFCURVE",
"201 516 OFFCURVE"
);
},
{
closed = 1;
nodes = (
"164 911 LINE",
"181 1039 OFFCURVE",
"255 1117 OFFCURVE",
"362 1117 CURVE SMOOTH",
"489 1117 OFFCURVE",
"531 1009 OFFCURVE",
"531 911 CURVE"
);
}
);
width = 683;
}
);
userData = {
com.adobe.type.autohint = "ICA8aGludFNldExpc3Q+CiAgICA8aGludHNldCBw";
};
},
{
glyphname = egrave.sups;
lastChange = "2015-01-16 19:41:48 +0000";
layers = (
{
hints = (
{
horizontal = 1;
origin = "{0, 0}";
target = "{0, 0}";
type = Tag;
name = hr00;
}
);
layerId = "F1FC1B3B-4EE8-4ECF-8776-11160932002C";
name = Light;
paths = (
{
closed = 1;
nodes = (
"365 1308 LINE",
"453 1308 LINE",
"331 1498 LINE",
"216 1498 LINE"
);
},
{
closed = 1;
nodes = (
"378 516 CURVE SMOOTH",
"470 516 OFFCURVE",
"544 550 OFFCURVE",
"604 587 CURVE",
"561 658 LINE",
"515 626 OFFCURVE",
"456 603 OFFCURVE",
"388 603 CURVE SMOOTH",
"257 603 OFFCURVE",
"171 694 OFFCURVE",
"165 838 CURVE",
"621 838 LINE",
"626 869 OFFCURVE",
"627 880 OFFCURVE",
"627 906 CURVE SMOOTH",
"627 1027 OFFCURVE",
"568 1205 OFFCURVE",
"362 1205 CURVE SMOOTH",
"198 1205 OFFCURVE",
"59 1071 OFFCURVE",
"59 860 CURVE SMOOTH",
"59 639 OFFCURVE",
"201 516 OFFCURVE"
);
},
{
closed = 1;
nodes = (
"164 911 LINE",
"181 1039 OFFCURVE",
"255 1117 OFFCURVE",
"362 1117 CURVE SMOOTH",
"489 1117 OFFCURVE",
"531 1009 OFFCURVE",
"531 911 CURVE"
);
}
);
width = 683;
}
);
userData = {
com.adobe.type.autohint = "ICA8aGludFNldExpc3Q+CiAgICA8aGludHNldCBw";
};
},
{
glyphname = f.sups;
lastChange = "2015-01-16 19:41:48 +0000";
layers = (
{
hints = (
{
horizontal = 1;
origin = "{0, 0}";
target = "{0, 0}";
type = Tag;
name = hr01;
},
{
horizontal = 1;
origin = "{0, 8}";
target = "{0, 0}";
type = Tag;
name = hr02;
},
{
horizontal = 1;
origin = "{0, 9}";
target = "{0, 0}";
type = Tag;
name = hr03;
}
);
layerId = "F1FC1B3B-4EE8-4ECF-8776-11160932002C";
name = Light;
paths = (
{
closed = 1;
nodes = (
"435 1495 LINE",
"399 1509 OFFCURVE",
"367 1517 OFFCURVE",
"325 1517 CURVE SMOOTH",
"196 1517 OFFCURVE",
"133 1422 OFFCURVE",
"133 1289 CURVE SMOOTH",
"133 1189 LINE",
"41 1183 LINE",
"41 1103 LINE",
"133 1103 LINE",
"133 532 LINE",
"240 532 LINE",
"240 1103 LINE",
"384 1103 LINE",
"384 1189 LINE",
"240 1189 LINE",
"240 1297 LINE",
"240 1376 OFFCURVE",
"271 1429 OFFCURVE",
"334 1429 CURVE SMOOTH",
"367 1429 OFFCURVE",
"392 1421 OFFCURVE",
"411 1414 CURVE"
);
}
);
width = 397;
}
);
unicode = 1DA0;
userData = {
com.adobe.type.autohint = "ICA8aGludFNldExpc3Q+CiAgICA8aGludHNldCBw";
};
},
{
glyphname = g.sups;
lastChange = "2015-01-15 10:08:19 +0000";
layers = (
{
layerId = "F1FC1B3B-4EE8-4ECF-8776-11160932002C";
name = Light;
paths = (
{
closed = 1;
nodes = (
"158 422 CURVE SMOOTH",
"158 461 OFFCURVE",
"183 499 OFFCURVE",
"228 530 CURVE",
"257 521 OFFCURVE",
"293 521 OFFCURVE",
"313 521 CURVE SMOOTH",
"431 521 LINE",
"518 521 OFFCURVE",
"568 501 OFFCURVE",
"568 441 CURVE SMOOTH",
"568 371 OFFCURVE",
"481 308 OFFCURVE",
"354 308 CURVE SMOOTH",
"231 308 OFFCURVE",
"158 349 OFFCURVE"
);
},
{
closed = 1;
nodes = (
"65 407 CURVE SMOOTH",
"65 292 OFFCURVE",
"172 230 OFFCURVE",
"337 230 CURVE SMOOTH",
"544 230 OFFCURVE",
"671 335 OFFCURVE",
"671 455 CURVE SMOOTH",
"671 566 OFFCURVE",
"598 613 OFFCURVE",
"442 613 CURVE SMOOTH",
"310 613 LINE",
"222 613 OFFCURVE",
"193 640 OFFCURVE",
"193 683 CURVE SMOOTH",
"193 719 OFFCURVE",
"212 741 OFFCURVE",
"236 761 CURVE",
"268 742 OFFCURVE",
"305 736 OFFCURVE",
"338 736 CURVE SMOOTH",
"472 736 OFFCURVE",
"582 825 OFFCURVE",
"582 968 CURVE SMOOTH",
"582 1019 OFFCURVE",
"559 1072 OFFCURVE",
"529 1101 CURVE",
"662 1101 LINE",
"662 1186 LINE",
"441 1186 LINE",
"411 1198 OFFCURVE",
"379 1205 OFFCURVE",
"338 1205 CURVE SMOOTH",
"201 1205 OFFCURVE",
"87 1113 OFFCURVE",
"87 970 CURVE SMOOTH",
"87 892 OFFCURVE",
"129 828 OFFCURVE",
"173 795 CURVE",
"173 786 LINE",
"138 763 OFFCURVE",
"100 720 OFFCURVE",
"100 669 CURVE SMOOTH",
"100 617 OFFCURVE",
"125 582 OFFCURVE",
"159 560 CURVE",
"159 552 LINE",
"97 513 OFFCURVE",
"65 465 OFFCURVE"
);
},
{
closed = 1;
nodes = (
"338 812 CURVE SMOOTH",
"251 812 OFFCURVE",
"189 875 OFFCURVE",
"189 970 CURVE SMOOTH",
"189 1067 OFFCURVE",
"251 1124 OFFCURVE",
"338 1124 CURVE SMOOTH",
"417 1124 OFFCURVE",
"485 1066 OFFCURVE",
"485 970 CURVE SMOOTH",
"485 875 OFFCURVE",
"417 812 OFFCURVE"
);
}
);
width = 693;
}
);
unicode = 1D4D;
},
{
glyphname = h.sups;
lastChange = "2015-01-15 10:08:19 +0000";
layers = (
{
layerId = "F1FC1B3B-4EE8-4ECF-8776-11160932002C";
name = Light;
paths = (
{
closed = 1;
nodes = (
"111 532 LINE",
"217 532 LINE",
"217 1009 LINE",
"289 1080 OFFCURVE",
"347 1112 OFFCURVE",
"403 1112 CURVE SMOOTH",
"514 1112 OFFCURVE",
"538 1043 OFFCURVE",
"538 932 CURVE SMOOTH",
"538 532 LINE",
"645 532 LINE",
"645 949 LINE",
"645 1100 OFFCURVE",
"591 1205 OFFCURVE",
"437 1205 CURVE SMOOTH",
"349 1205 OFFCURVE",
"270 1153 OFFCURVE",
"213 1092 CURVE",
"217 1232 LINE",
"217 1496 LINE",
"111 1496 LINE"
);
}
);
width = 741;
}
);
unicode = 02B0;
},
{
glyphname = i.sups;
lastChange = "2015-01-15 10:08:19 +0000";
layers = (
{
layerId = "F1FC1B3B-4EE8-4ECF-8776-11160932002C";
name = Light;
paths = (
{
closed = 1;
nodes = (
"167 1324 CURVE SMOOTH",
"211 1324 OFFCURVE",
"244 1354 OFFCURVE",
"244 1397 CURVE SMOOTH",
"244 1440 OFFCURVE",
"211 1470 OFFCURVE",
"167 1470 CURVE SMOOTH",
"123 1470 OFFCURVE",
"89 1440 OFFCURVE",
"89 1397 CURVE SMOOTH",
"89 1354 OFFCURVE",
"123 1324 OFFCURVE"
);
},
{
closed = 1;
nodes = (
"111 532 LINE",
"217 532 LINE",
"217 1189 LINE",
"111 1189 LINE"
);
}
);
width = 329;
}
);
unicode = 2071;
},
{
glyphname = j.sups;
lastChange = "2015-01-15 10:08:19 +0000";
layers = (
{
layerId = "F1FC1B3B-4EE8-4ECF-8776-11160932002C";
name = Light;
paths = (
{
closed = 1;
nodes = (
"45 231 CURVE SMOOTH",
"169 231 OFFCURVE",
"222 312 OFFCURVE",
"222 457 CURVE SMOOTH",
"222 1189 LINE",
"116 1189 LINE",
"116 449 LINE",
"116 369 OFFCURVE",
"99 323 OFFCURVE",
"33 323 CURVE SMOOTH",
"5 323 OFFCURVE",
"-8 327 OFFCURVE",
"-26 334 CURVE",
"-50 248 LINE",
"-18 237 OFFCURVE",
"4 231 OFFCURVE"
);
},
{
closed = 1;
nodes = (
"171 1324 CURVE SMOOTH",
"215 1324 OFFCURVE",
"248 1354 OFFCURVE",
"248 1397 CURVE SMOOTH",
"248 1440 OFFCURVE",
"215 1470 OFFCURVE",
"171 1470 CURVE SMOOTH",
"127 1470 OFFCURVE",
"93 1440 OFFCURVE",
"93 1397 CURVE SMOOTH",
"93 1354 OFFCURVE",
"127 1324 OFFCURVE"
);
}
);
width = 336;
}
);
unicode = 02B2;
},
{
glyphname = k.sups;
lastChange = "2015-01-15 10:08:19 +0000";
layers = (
{
layerId = "F1FC1B3B-4EE8-4ECF-8776-11160932002C";
name = Light;
paths = (
{
closed = 1;
nodes = (
"111 532 LINE",
"217 532 LINE",
"217 699 LINE",
"342 848 LINE",
"543 532 LINE",
"663 532 LINE",
"406 922 LINE",
"632 1189 LINE",
"511 1189 LINE",
"226 842 LINE",
"217 842 LINE",
"217 1496 LINE",
"111 1496 LINE"
);
}
);
width = 673;
}
);
unicode = 1D4F;
},
{
glyphname = l.sups;
lastChange = "2015-01-15 10:08:19 +0000";
layers = (
{
layerId = "F1FC1B3B-4EE8-4ECF-8776-11160932002C";
name = Light;
paths = (
{
closed = 1;
nodes = (
"111 665 LINE",
"111 571 OFFCURVE",
"143 516 OFFCURVE",
"231 516 CURVE SMOOTH",
"261 516 OFFCURVE",
"279 521 OFFCURVE",
"295 527 CURVE",
"279 610 LINE",
"267 606 OFFCURVE",
"258 606 OFFCURVE",
"250 606 CURVE SMOOTH",
"230 606 OFFCURVE",
"217 619 OFFCURVE",
"217 655 CURVE SMOOTH",
"217 1496 LINE",
"111 1496 LINE"
);
}
);
width = 346;
}
);
unicode = 02E1;
},
{
glyphname = m.sups;
lastChange = "2015-01-15 10:08:19 +0000";
layers = (
{
layerId = "F1FC1B3B-4EE8-4ECF-8776-11160932002C";
name = Light;
paths = (
{
closed = 1;
nodes = (
"111 532 LINE",
"217 532 LINE",
"217 1009 LINE",
"287 1080 OFFCURVE",
"337 1112 OFFCURVE",
"388 1112 CURVE SMOOTH",
"490 1112 OFFCURVE",
"518 1043 OFFCURVE",
"518 932 CURVE SMOOTH",
"518 532 LINE",
"625 532 LINE",
"625 1009 LINE",
"693 1080 OFFCURVE",
"744 1112 OFFCURVE",
"797 1112 CURVE SMOOTH",
"898 1112 OFFCURVE",
"927 1043 OFFCURVE",
"927 932 CURVE SMOOTH",
"927 532 LINE",
"1033 532 LINE",
"1033 949 LINE",
"1033 1100 OFFCURVE",
"974 1205 OFFCURVE",
"829 1205 CURVE SMOOTH",
"742 1205 OFFCURVE",
"667 1145 OFFCURVE",
"605 1079 CURVE",
"576 1164 OFFCURVE",
"513 1205 OFFCURVE",
"421 1205 CURVE SMOOTH",
"333 1205 OFFCURVE",
"270 1156 OFFCURVE",
"215 1093 CURVE",
"206 1093 LINE",
"196 1189 LINE",
"111 1189 LINE"
);
}
);
width = 1136;
}
);
unicode = 1D50;
},
{
glyphname = n.sups;
lastChange = "2015-01-15 10:08:19 +0000";
layers = (
{
layerId = "F1FC1B3B-4EE8-4ECF-8776-11160932002C";
name = Light;
paths = (
{
closed = 1;
nodes = (
"111 532 LINE",
"217 532 LINE",
"217 1009 LINE",
"289 1080 OFFCURVE",
"347 1112 OFFCURVE",
"406 1112 CURVE SMOOTH",
"514 1112 OFFCURVE",
"538 1043 OFFCURVE",
"538 932 CURVE SMOOTH",
"538 532 LINE",
"645 532 LINE",
"645 949 LINE",
"645 1100 OFFCURVE",
"591 1205 OFFCURVE",
"437 1205 CURVE SMOOTH",
"349 1205 OFFCURVE",
"273 1156 OFFCURVE",
"215 1093 CURVE",
"206 1093 LINE",
"195 1189 LINE",
"111 1189 LINE"
);
}
);
width = 747;
}
);
unicode = 207F;
},
{
glyphname = o.sups;
lastChange = "2015-01-15 10:08:19 +0000";
layers = (
{
layerId = "F1FC1B3B-4EE8-4ECF-8776-11160932002C";
name = Light;
paths = (
{
closed = 1;
nodes = (
"371 516 CURVE SMOOTH",
"537 516 OFFCURVE",
"677 644 OFFCURVE",
"677 860 CURVE SMOOTH",
"677 1079 OFFCURVE",
"537 1205 OFFCURVE",
"371 1205 CURVE SMOOTH",
"202 1205 OFFCURVE",
"64 1079 OFFCURVE",
"64 860 CURVE SMOOTH",
"64 644 OFFCURVE",
"202 516 OFFCURVE"
);
},
{
closed = 1;
nodes = (
"371 606 CURVE SMOOTH",
"250 606 OFFCURVE",
"172 710 OFFCURVE",
"172 860 CURVE SMOOTH",
"172 1014 OFFCURVE",
"250 1116 OFFCURVE",
"371 1116 CURVE SMOOTH",
"490 1116 OFFCURVE",
"567 1014 OFFCURVE",
"567 860 CURVE SMOOTH",
"567 710 OFFCURVE",
"490 606 OFFCURVE"
);
}
);
width = 743;
}
);
unicode = 1D52;
},
{
glyphname = p.sups;
lastChange = "2015-01-15 10:08:19 +0000";
layers = (
{
layerId = "F1FC1B3B-4EE8-4ECF-8776-11160932002C";
name = Light;
paths = (
{
closed = 1;
nodes = (
"111 250 LINE",
"217 250 LINE",
"217 468 LINE",
"211 593 LINE",
"268 544 OFFCURVE",
"342 516 OFFCURVE",
"403 516 CURVE SMOOTH",
"556 516 OFFCURVE",
"689 647 OFFCURVE",
"689 872 CURVE SMOOTH",
"689 1075 OFFCURVE",
"597 1205 OFFCURVE",
"423 1205 CURVE SMOOTH",
"341 1205 OFFCURVE",
"271 1158 OFFCURVE",
"216 1110 CURVE",
"208 1110 LINE",
"195 1189 LINE",
"111 1189 LINE"
);
},
{
closed = 1;
nodes = (
"217 677 CURVE",
"217 1021 LINE",
"280 1080 OFFCURVE",
"343 1115 OFFCURVE",
"400 1115 CURVE SMOOTH",
"525 1115 OFFCURVE",
"579 1018 OFFCURVE",
"579 871 CURVE SMOOTH",
"579 705 OFFCURVE",
"498 606 OFFCURVE",
"391 606 CURVE SMOOTH",
"340 606 OFFCURVE",
"276 625 OFFCURVE"
);
}
);
width = 760;
}
);
unicode = 1D56;
},
{
glyphname = q.sups;
lastChange = "2015-01-15 10:08:19 +0000";
layers = (
{
layerId = "F1FC1B3B-4EE8-4ECF-8776-11160932002C";
name = Light;
paths = (
{
closed = 1;
nodes = (
"542 250 LINE",
"648 250 LINE",
"648 1189 LINE",
"566 1189 LINE",
"555 1124 LINE",
"547 1124 LINE",
"494 1176 OFFCURVE",
"432 1205 OFFCURVE",
"360 1205 CURVE SMOOTH",
"209 1205 OFFCURVE",
"71 1075 OFFCURVE",
"71 860 CURVE SMOOTH",
"71 644 OFFCURVE",
"178 516 OFFCURVE",
"353 516 CURVE SMOOTH",
"428 516 OFFCURVE",
"496 552 OFFCURVE",
"548 600 CURVE",
"542 479 LINE"
);
},
{
closed = 1;
nodes = (
"374 607 CURVE SMOOTH",
"242 607 OFFCURVE",
"181 706 OFFCURVE",
"181 862 CURVE SMOOTH",
"181 1015 OFFCURVE",
"269 1115 OFFCURVE",
"372 1115 CURVE SMOOTH",
"425 1115 OFFCURVE",
"484 1092 OFFCURVE",
"542 1042 CURVE",
"542 688 LINE",
"484 632 OFFCURVE",
"430 607 OFFCURVE"
);
}
);
width = 760;
}
);
},
{
glyphname = r.sups;
lastChange = "2015-01-15 10:08:19 +0000";
layers = (
{
layerId = "F1FC1B3B-4EE8-4ECF-8776-11160932002C";
name = Light;
paths = (
{
closed = 1;
nodes = (
"111 532 LINE",
"221 532 LINE",
"221 957 LINE",
"268 1066 OFFCURVE",
"333 1104 OFFCURVE",
"393 1104 CURVE SMOOTH",
"415 1104 OFFCURVE",
"441 1099 OFFCURVE",
"456 1095 CURVE",
"479 1191 LINE",
"462 1199 OFFCURVE",
"434 1205 OFFCURVE",
"403 1205 CURVE SMOOTH",
"329 1205 OFFCURVE",
"268 1157 OFFCURVE",
"217 1072 CURVE",
"211 1072 LINE",
"196 1189 LINE",
"111 1189 LINE"
);
}
);
width = 476;
}
);
unicode = 02B3;
},
{
glyphname = s.sups;
lastChange = "2015-01-15 10:08:19 +0000";
layers = (
{
layerId = "F1FC1B3B-4EE8-4ECF-8776-11160932002C";
name = Light;
paths = (
{
closed = 1;
nodes = (
"41 606 LINE",
"105 556 OFFCURVE",
"196 516 OFFCURVE",
"295 516 CURVE SMOOTH",
"436 516 OFFCURVE",
"530 600 OFFCURVE",
"530 715 CURVE SMOOTH",
"530 837 OFFCURVE",
"423 872 OFFCURVE",
"326 909 CURVE SMOOTH",
"249 940 OFFCURVE",
"177 961 OFFCURVE",
"177 1028 CURVE SMOOTH",
"177 1074 OFFCURVE",
"216 1120 OFFCURVE",
"296 1120 CURVE SMOOTH",
"361 1120 OFFCURVE",
"401 1097 OFFCURVE",
"450 1063 CURVE",
"505 1132 LINE",
"452 1172 OFFCURVE",
"383 1205 OFFCURVE",
"293 1205 CURVE SMOOTH",
"154 1205 OFFCURVE",
"74 1117 OFFCURVE",
"74 1022 CURVE SMOOTH",
"74 907 OFFCURVE",
"178 862 OFFCURVE",
"272 826 CURVE SMOOTH",
"349 798 OFFCURVE",
"425 771 OFFCURVE",
"425 705 CURVE SMOOTH",
"425 647 OFFCURVE",
"378 601 OFFCURVE",
"296 601 CURVE SMOOTH",
"217 601 OFFCURVE",
"154 633 OFFCURVE",
"94 679 CURVE"
);
}
);
width = 573;
}
);
unicode = 02E2;
},
{
glyphname = uni0259.sups;
lastChange = "2015-01-15 10:08:19 +0000";
layers = (
{
layerId = "F1FC1B3B-4EE8-4ECF-8776-11160932002C";
name = Light;
paths = (
{
closed = 1;
nodes = (
"326 516 CURVE SMOOTH",
"492 516 OFFCURVE",
"620 648 OFFCURVE",
"620 860 CURVE SMOOTH",
"620 1078 OFFCURVE",
"503 1205 OFFCURVE",
"317 1205 CURVE SMOOTH",
"227 1205 OFFCURVE",
"160 1171 OFFCURVE",
"100 1132 CURVE",
"142 1062 LINE",
"191 1094 OFFCURVE",
"244 1117 OFFCURVE",
"312 1117 CURVE SMOOTH",
"444 1117 OFFCURVE",
"512 1025 OFFCURVE",
"515 892 CURVE",
"60 892 LINE",
"54 861 OFFCURVE",
"53 850 OFFCURVE",
"53 824 CURVE SMOOTH",
"53 694 OFFCURVE",
"116 516 OFFCURVE"
);
},
{
closed = 1;
nodes = (
"324 603 CURVE SMOOTH",
"198 603 OFFCURVE",
"149 700 OFFCURVE",
"149 817 CURVE",
"515 817 LINE",
"507 675 OFFCURVE",
"432 603 OFFCURVE"
);
}
);
width = 683;
}
);
unicode = 2094;
},
{
glyphname = t.sups;
lastChange = "2015-01-15 10:08:19 +0000";
layers = (
{
layerId = "F1FC1B3B-4EE8-4ECF-8776-11160932002C";
name = Light;
paths = (
{
closed = 1;
nodes = (
"134 739 LINE",
"134 607 OFFCURVE",
"181 516 OFFCURVE",
"322 516 CURVE SMOOTH",
"363 516 OFFCURVE",
"412 528 OFFCURVE",
"448 541 CURVE",
"424 621 LINE",
"399 611 OFFCURVE",
"372 604 OFFCURVE",
"346 604 CURVE SMOOTH",
"271 604 OFFCURVE",
"241 653 OFFCURVE",
"241 735 CURVE SMOOTH",
"241 1101 LINE",
"426 1101 LINE",
"426 1189 LINE",
"241 1189 LINE",
"241 1375 LINE",
"152 1375 LINE",
"137 1189 LINE",
"35 1183 LINE",
"35 1101 LINE",
"134 1101 LINE"
);
}
);
width = 461;
}
);
unicode = 1D57;
},
{
glyphname = u.sups;
lastChange = "2015-01-15 10:08:19 +0000";
layers = (
{
layerId = "F1FC1B3B-4EE8-4ECF-8776-11160932002C";
name = Light;
paths = (
{
closed = 1;
nodes = (
"318 516 CURVE SMOOTH",
"405 516 OFFCURVE",
"481 566 OFFCURVE",
"538 627 CURVE",
"546 627 LINE",
"558 532 LINE",
"642 532 LINE",
"642 1189 LINE",
"535 1189 LINE",
"535 712 LINE",
"465 640 OFFCURVE",
"406 608 OFFCURVE",
"348 608 CURVE SMOOTH",
"239 608 OFFCURVE",
"215 677 OFFCURVE",
"215 787 CURVE SMOOTH",
"215 1189 LINE",
"108 1189 LINE",
"108 771 LINE",
"108 620 OFFCURVE",
"163 516 OFFCURVE"
);
}
);
width = 752;
}
);
unicode = 1D58;
},
{
glyphname = v.sups;
lastChange = "2015-01-15 10:08:19 +0000";
layers = (
{
layerId = "F1FC1B3B-4EE8-4ECF-8776-11160932002C";
name = Light;
paths = (
{
closed = 1;
nodes = (
"256 532 LINE",
"383 532 LINE",
"624 1189 LINE",
"518 1189 LINE",
"391 815 LINE",
"325 620 LINE",
"317 620 LINE",
"251 815 LINE",
"124 1189 LINE",
"16 1189 LINE"
);
}
);
width = 640;
}
);
unicode = 1D5B;
},
{
glyphname = w.sups;
lastChange = "2015-01-15 10:08:19 +0000";
layers = (
{
layerId = "F1FC1B3B-4EE8-4ECF-8776-11160932002C";
name = Light;
paths = (
{
closed = 1;
nodes = (
"218 532 LINE",
"347 532 LINE",
"444 886 LINE",
"489 1074 LINE",
"493 1074 LINE",
"539 886 LINE",
"634 532 LINE",
"764 532 LINE",
"947 1189 LINE",
"844 1189 LINE",
"749 806 LINE",
"703 622 LINE",
"695 622 LINE",
"648 806 LINE",
"541 1189 LINE",
"440 1189 LINE",
"338 806 LINE",
"292 622 LINE",
"284 622 LINE",
"241 806 LINE",
"145 1189 LINE",
"33 1189 LINE"
);
}
);
width = 979;
}
);
unicode = 02B7;
},
{
glyphname = x.sups;
lastChange = "2015-01-15 10:08:19 +0000";
layers = (
{
layerId = "F1FC1B3B-4EE8-4ECF-8776-11160932002C";
name = Light;
paths = (
{
closed = 1;
nodes = (
"16 532 LINE",
"131 532 LINE",
"223 683 LINE",
"295 797 LINE",
"303 797 LINE",
"376 683 LINE",
"471 532 LINE",
"589 532 LINE",
"372 865 LINE",
"575 1189 LINE",
"460 1189 LINE",
"377 1046 LINE",
"318 939 LINE",
"310 939 LINE",
"244 1046 LINE",
"154 1189 LINE",
"36 1189 LINE",
"240 876 LINE"
);
}
);
width = 609;
}
);
unicode = 02E3;
},
{
glyphname = y.sups;
lastChange = "2015-01-15 10:08:19 +0000";
layers = (
{
layerId = "F1FC1B3B-4EE8-4ECF-8776-11160932002C";
name = Light;
paths = (
{
closed = 1;
nodes = (
"67 355 CURVE",
"44 265 LINE",
"68 257 OFFCURVE",
"93 253 OFFCURVE",
"124 253 CURVE SMOOTH",
"257 253 OFFCURVE",
"328 355 OFFCURVE",
"374 485 CURVE SMOOTH",
"620 1189 LINE",
"514 1189 LINE",
"400 825 LINE",
"379 763 OFFCURVE",
"357 702 OFFCURVE",
"339 636 CURVE",
"330 636 LINE",
"308 702 OFFCURVE",
"284 766 OFFCURVE",
"263 825 CURVE SMOOTH",
"125 1189 LINE",
"16 1189 LINE",
"286 532 LINE",
"270 488 LINE",
"244 403 OFFCURVE",
"192 343 OFFCURVE",
"118 343 CURVE SMOOTH",
"101 343 OFFCURVE",
"86 346 OFFCURVE"
);
}
);
width = 636;
}
);
unicode = 02B8;
},
{
glyphname = z.sups;
lastChange = "2015-01-15 10:08:19 +0000";
layers = (
{
layerId = "F1FC1B3B-4EE8-4ECF-8776-11160932002C";
name = Light;
paths = (
{
closed = 1;
nodes = (
"41 532 LINE",
"546 532 LINE",
"546 621 LINE",
"178 621 LINE",
"535 1127 LINE",
"535 1189 LINE",
"83 1189 LINE",
"83 1101 LINE",
"400 1101 LINE",
"41 591 LINE"
);
}
);
width = 583;
}
);
unicode = 1DBB;
},
{
glyphname = G_tildecomb;
lastChange = "2015-01-07 12:25:14 +0000";
layers = (
{
layerId = "F1FC1B3B-4EE8-4ECF-8776-11160932002C";
name = Light;
paths = (
{
closed = 1;
nodes = (
"713 1370 CURVE SMOOTH",
"354 1370 OFFCURVE",
"102 1105 OFFCURVE",
"102 674 CURVE SMOOTH",
"102 239 OFFCURVE",
"346 -25 OFFCURVE",
"696 -25 CURVE SMOOTH",
"875 -25 OFFCURVE",
"1020 43 OFFCURVE",
"1106 130 CURVE",
"1106 683 LINE",
"678 683 LINE",
"678 567 LINE",
"978 567 LINE",
"978 188 LINE",
"919 132 OFFCURVE",
"817 99 OFFCURVE",
"710 99 CURVE SMOOTH",
"415 99 OFFCURVE",
"246 324 OFFCURVE",
"246 677 CURVE SMOOTH",
"246 1028 OFFCURVE",
"427 1247 OFFCURVE",
"714 1247 CURVE SMOOTH",
"854 1247 OFFCURVE",
"942 1190 OFFCURVE",
"1010 1117 CURVE",
"1091 1206 LINE",
"1014 1286 OFFCURVE",
"896 1370 OFFCURVE"
);
},
{
closed = 1;
nodes = (
"592 1571 CURVE SMOOTH",
"669 1571 OFFCURVE",
"727 1460 OFFCURVE",
"833 1460 CURVE SMOOTH",
"929 1460 OFFCURVE",
"986 1557 OFFCURVE",
"996 1668 CURVE",
"917 1668 LINE",
"906 1600 OFFCURVE",
"874 1558 OFFCURVE",
"833 1558 CURVE SMOOTH",
"754 1558 OFFCURVE",
"698 1668 OFFCURVE",
"590 1668 CURVE SMOOTH",
"494 1668 OFFCURVE",
"437 1573 OFFCURVE",
"429 1460 CURVE",
"507 1460 LINE",
"518 1530 OFFCURVE",
"549 1571 OFFCURVE"
);
}
);
width = 1241;
}
);
},
{
glyphname = f_f;
lastChange = "2015-01-15 10:08:19 +0000";
layers = (
{
layerId = "F1FC1B3B-4EE8-4ECF-8776-11160932002C";
name = Light;
paths = (
{
closed = 1;
nodes = (
"1194 1456 LINE",
"1149 1475 OFFCURVE",
"1091 1489 OFFCURVE",
"1037 1489 CURVE SMOOTH",
"856 1489 OFFCURVE",
"766 1373 OFFCURVE",
"766 1173 CURVE SMOOTH",
"766 990 LINE",
"335 990 LINE",
"335 1137 LINE",
"335 1277 OFFCURVE",
"393 1355 OFFCURVE",
"499 1355 CURVE SMOOTH",
"547 1355 OFFCURVE",
"590 1347 OFFCURVE",
"635 1326 CURVE",
"666 1431 LINE",
"616 1455 OFFCURVE",
"551 1468 OFFCURVE",
"491 1468 CURVE SMOOTH",
"300 1468 OFFCURVE",
"199 1348 OFFCURVE",
"199 1142 CURVE SMOOTH",
"199 990 LINE",
"65 981 LINE",
"65 877 LINE",
"199 877 LINE",
"199 0 LINE",
"335 0 LINE",
"335 877 LINE",
"766 877 LINE",
"766 0 LINE",
"902 0 LINE",
"902 877 LINE",
"1119 877 LINE",
"1119 990 LINE",
"902 990 LINE",
"902 1171 LINE",
"902 1303 OFFCURVE",
"950 1376 OFFCURVE",
"1048 1376 CURVE SMOOTH",
"1083 1376 OFFCURVE",
"1123 1367 OFFCURVE",
"1163 1350 CURVE"
);
}
);
width = 1135;
}
);
unicode = FB00;
},
{
glyphname = f_t;
lastChange = "2015-01-15 10:08:19 +0000";
layers = (
{
layerId = "F1FC1B3B-4EE8-4ECF-8776-11160932002C";
name = Light;
paths = (
{
closed = 1;
nodes = (
"1116 117 LINE",
"1082 104 OFFCURVE",
"1035 89 OFFCURVE",
"999 89 CURVE SMOOTH",
"876 89 OFFCURVE",
"839 164 OFFCURVE",
"839 288 CURVE SMOOTH",
"839 877 LINE",
"1116 877 LINE",
"1116 990 LINE",
"839 990 LINE",
"839 1272 LINE",
"725 1272 LINE",
"708 990 LINE",
"335 990 LINE",
"335 1171 LINE",
"335 1303 OFFCURVE",
"382 1376 OFFCURVE",
"480 1376 CURVE SMOOTH",
"517 1376 OFFCURVE",
"557 1367 OFFCURVE",
"595 1350 CURVE",
"627 1456 LINE",
"582 1475 OFFCURVE",
"526 1489 OFFCURVE",
"470 1489 CURVE SMOOTH",
"290 1489 OFFCURVE",
"199 1373 OFFCURVE",
"199 1173 CURVE SMOOTH",
"199 990 LINE",
"64 981 LINE",
"64 877 LINE",
"199 877 LINE",
"199 0 LINE",
"335 0 LINE",
"335 877 LINE",
"703 877 LINE",
"703 293 LINE",
"703 105 OFFCURVE",
"768 -25 OFFCURVE",
"971 -25 CURVE SMOOTH",
"1024 -25 OFFCURVE",
"1089 -7 OFFCURVE",
"1145 12 CURVE"
);
}
);
width = 1171;
}
);
},
{
glyphname = fi;
lastChange = "2015-01-15 10:08:19 +0000";
layers = (
{
layerId = "F1FC1B3B-4EE8-4ECF-8776-11160932002C";
name = Light;
paths = (
{
closed = 1;
nodes = (
"199 990 LINE",
"64 981 LINE",
"64 877 LINE",
"199 877 LINE",
"199 0 LINE",
"335 0 LINE",
"335 877 LINE",
"552 877 LINE",
"552 990 LINE",
"335 990 LINE",
"335 1171 LINE",
"335 1303 OFFCURVE",
"382 1376 OFFCURVE",
"480 1376 CURVE SMOOTH",
"517 1376 OFFCURVE",
"557 1367 OFFCURVE",
"595 1350 CURVE",
"627 1456 LINE",
"582 1475 OFFCURVE",
"526 1489 OFFCURVE",
"470 1489 CURVE SMOOTH",
"290 1489 OFFCURVE",
"199 1373 OFFCURVE",
"199 1173 CURVE SMOOTH"
);
},
{
closed = 1;
nodes = (
"787 0 LINE",
"923 0 LINE",
"923 990 LINE",
"787 990 LINE"
);
},
{
closed = 1;
nodes = (
"857 1403 CURVE SMOOTH",
"800 1403 OFFCURVE",
"754 1365 OFFCURVE",
"754 1305 CURVE SMOOTH",
"754 1248 OFFCURVE",
"800 1209 OFFCURVE",
"857 1209 CURVE SMOOTH",
"914 1209 OFFCURVE",
"958 1248 OFFCURVE",
"958 1305 CURVE SMOOTH",
"958 1365 OFFCURVE",
"914 1403 OFFCURVE"
);
}
);
width = 1099;
}
);
unicode = FB01;
},
{
glyphname = fl;
lastChange = "2015-01-15 10:08:19 +0000";
layers = (
{
layerId = "F1FC1B3B-4EE8-4ECF-8776-11160932002C";
name = Light;
paths = (
{
closed = 1;
nodes = (
"199 990 LINE",
"64 981 LINE",
"64 877 LINE",
"199 877 LINE",
"199 0 LINE",
"335 0 LINE",
"335 877 LINE",
"552 877 LINE",
"552 990 LINE",
"335 990 LINE",
"335 1171 LINE",
"335 1303 OFFCURVE",
"382 1376 OFFCURVE",
"480 1376 CURVE SMOOTH",
"517 1376 OFFCURVE",
"557 1367 OFFCURVE",
"595 1350 CURVE",
"627 1456 LINE",
"582 1475 OFFCURVE",
"526 1489 OFFCURVE",
"470 1489 CURVE SMOOTH",
"290 1489 OFFCURVE",
"199 1373 OFFCURVE",
"199 1173 CURVE SMOOTH"
);
},
{
closed = 1;
nodes = (
"968 94 LINE",
"949 90 OFFCURVE",
"941 90 OFFCURVE",
"931 90 CURVE SMOOTH",
"907 90 OFFCURVE",
"886 111 OFFCURVE",
"886 160 CURVE SMOOTH",
"886 1464 LINE",
"750 1464 LINE",
"750 172 LINE",
"750 43 OFFCURVE",
"797 -25 OFFCURVE",
"905 -25 CURVE SMOOTH",
"942 -25 OFFCURVE",
"966 -19 OFFCURVE",
"987 -10 CURVE"
);
}
);
width = 1081;
}
);
unicode = FB02;
},
{
glyphname = g_tildecomb;
lastChange = "2015-01-07 12:25:14 +0000";
layers = (
{
layerId = "F1FC1B3B-4EE8-4ECF-8776-11160932002C";
name = Light;
paths = (
{
closed = 1;
nodes = (
"525 -365 CURVE SMOOTH",
"333 -365 OFFCURVE",
"221 -291 OFFCURVE",
"221 -178 CURVE SMOOTH",
"221 -116 OFFCURVE",
"254 -49 OFFCURVE",
"334 6 CURVE",
"380 -6 OFFCURVE",
"429 -10 OFFCURVE",
"460 -10 CURVE SMOOTH",
"648 -10 LINE SMOOTH",
"785 -10 OFFCURVE",
"860 -45 OFFCURVE",
"860 -144 CURVE SMOOTH",
"860 -256 OFFCURVE",
"728 -365 OFFCURVE"
);
},
{
closed = 1;
nodes = (
"244 36 LINE",
"153 -28 OFFCURVE",
"98 -110 OFFCURVE",
"98 -195 CURVE SMOOTH",
"98 -364 OFFCURVE",
"261 -465 OFFCURVE",
"506 -465 CURVE SMOOTH",
"805 -465 OFFCURVE",
"994 -304 OFFCURVE",
"994 -126 CURVE SMOOTH",
"994 36 OFFCURVE",
"883 107 OFFCURVE",
"656 107 CURVE SMOOTH",
"456 107 LINE SMOOTH",
"316 107 OFFCURVE",
"275 157 OFFCURVE",
"275 224 CURVE SMOOTH",
"275 284 OFFCURVE",
"307 319 OFFCURVE",
"345 352 CURVE",
"390 328 OFFCURVE",
"449 314 OFFCURVE",
"501 314 CURVE SMOOTH",
"699 314 OFFCURVE",
"856 453 OFFCURVE",
"856 661 CURVE SMOOTH",
"856 753 OFFCURVE",
"817 834 OFFCURVE",
"763 883 CURVE",
"977 883 LINE",
"977 990 LINE",
"637 990 LINE",
"602 1004 OFFCURVE",
"555 1015 OFFCURVE",
"501 1015 CURVE SMOOTH",
"302 1015 OFFCURVE",
"138 875 OFFCURVE",
"138 664 CURVE SMOOTH",
"138 545 OFFCURVE",
"200 448 OFFCURVE",
"264 395 CURVE",
"264 387 LINE",
"216 353 OFFCURVE",
"157 290 OFFCURVE",
"157 204 CURVE SMOOTH",
"157 127 OFFCURVE",
"194 74 OFFCURVE",
"244 44 CURVE"
);
},
{
closed = 1;
nodes = (
"729 664 CURVE SMOOTH",
"729 510 OFFCURVE",
"623 410 OFFCURVE",
"501 410 CURVE SMOOTH",
"376 410 OFFCURVE",
"271 510 OFFCURVE",
"271 664 CURVE SMOOTH",
"271 818 OFFCURVE",
"374 912 OFFCURVE",
"501 912 CURVE SMOOTH",
"627 912 OFFCURVE",
"729 818 OFFCURVE"
);
},
{
closed = 1;
nodes = (
"370 1390 CURVE SMOOTH",
"268 1390 OFFCURVE",
"222 1296 OFFCURVE",
"212 1188 CURVE",
"294 1188 LINE",
"305 1258 OFFCURVE",
"328 1295 OFFCURVE",
"371 1295 CURVE SMOOTH",
"441 1295 OFFCURVE",
"499 1188 OFFCURVE",
"601 1188 CURVE SMOOTH",
"701 1188 OFFCURVE",
"747 1282 OFFCURVE",
"757 1390 CURVE",
"675 1390 LINE",
"665 1321 OFFCURVE",
"641 1282 OFFCURVE",
"600 1282 CURVE SMOOTH",
"531 1282 OFFCURVE",
"470 1390 OFFCURVE"
);
}
);
width = 1018;
}
);
},
{
color = 9;
glyphname = "r_ra-deva";
lastChange = "2015-01-07 12:35:19 +0000";
layers = (
{
layerId = "F1FC1B3B-4EE8-4ECF-8776-11160932002C";
name = Light;
paths = (
{
closed = 1;
nodes = (
"-12 1247 LINE",
"-12 1143 LINE",
"610 1143 LINE",
"610 1247 LINE"
);
},
{
closed = 1;
nodes = (
"776 622 LINE",
"692 536 OFFCURVE",
"608 481 OFFCURVE",
"475 481 CURVE SMOOTH",
"340 481 OFFCURVE",
"237 552 OFFCURVE",
"179 604 CURVE",
"121 538 LINE",
"187.091 453 OFFCURVE",
"328 373 OFFCURVE",
"481 373 CURVE SMOOTH",
"618 373 OFFCURVE",
"742 431 OFFCURVE",
"806 501 CURVE"
);
}
);
width = 600;
}
);
},
{
glyphname = fl.a;
lastChange = "2015-01-07 12:25:14 +0000";
layers = (
{
layerId = "F1FC1B3B-4EE8-4ECF-8776-11160932002C";
name = Light;
paths = (
{
closed = 1;
nodes = (
"199 990 LINE",
"64 981 LINE",
"64 877 LINE",
"199 877 LINE",
"199 0 LINE",
"335 0 LINE",
"335 877 LINE",
"552 877 LINE",
"552 990 LINE",
"335 990 LINE",
"335 1171 LINE",
"335 1303 OFFCURVE",
"382 1376 OFFCURVE",
"480 1376 CURVE SMOOTH",
"517 1376 OFFCURVE",
"557 1367 OFFCURVE",
"595 1350 CURVE",
"627 1456 LINE",
"582 1475 OFFCURVE",
"526 1489 OFFCURVE",
"470 1489 CURVE SMOOTH",
"290 1489 OFFCURVE",
"199 1373 OFFCURVE",
"199 1173 CURVE SMOOTH"
);
},
{
closed = 1;
nodes = (
"787 1464 LINE",
"787 0 LINE",
"923 0 LINE",
"923 1464 LINE"
);
}
);
width = 1099;
}
);
},
{
glyphname = g_tildecomb.a;
lastChange = "2015-01-07 12:25:14 +0000";
layers = (
{
layerId = "F1FC1B3B-4EE8-4ECF-8776-11160932002C";
name = Light;
paths = (
{
closed = 1;
nodes = (
"529 -341 CURVE SMOOTH",
"432 -341 OFFCURVE",
"330 -314 OFFCURVE",
"231 -246 CURVE",
"178 -345 LINE",
"280 -413 OFFCURVE",
"403 -453 OFFCURVE",
"529 -453 CURVE SMOOTH",
"800 -453 OFFCURVE",
"954 -305 OFFCURVE",
"954 -64 CURVE SMOOTH",
"954 990 LINE",
"837 990 LINE",
"826 899 LINE",
"820 899 LINE",
"735 973 OFFCURVE",
"653 1015 OFFCURVE",
"539 1015 CURVE SMOOTH",
"310 1015 OFFCURVE",
"105 820 OFFCURVE",
"105 509 CURVE SMOOTH",
"105 191 OFFCURVE",
"264 6 OFFCURVE",
"513 6 CURVE SMOOTH",
"636 6 OFFCURVE",
"741 71 OFFCURVE",
"820 147 CURVE",
"818 -56 LINE",
"814 -232 OFFCURVE",
"720 -341 OFFCURVE"
);
},
{
closed = 1;
nodes = (
"818 269 LINE",
"725 171 OFFCURVE",
"639 121 OFFCURVE",
"540 121 CURVE SMOOTH",
"352 121 OFFCURVE",
"245 274 OFFCURVE",
"245 510 CURVE SMOOTH",
"245 734 OFFCURVE",
"382 899 OFFCURVE",
"556 899 CURVE SMOOTH",
"644 899 OFFCURVE",
"725 868 OFFCURVE",
"818 785 CURVE"
);
},
{
closed = 1;
nodes = (
"467 1390 CURVE SMOOTH",
"366 1390 OFFCURVE",
"320 1296 OFFCURVE",
"310 1188 CURVE",
"392 1188 LINE",
"403 1258 OFFCURVE",
"427 1295 OFFCURVE",
"468 1295 CURVE SMOOTH",
"538 1295 OFFCURVE",
"597 1188 OFFCURVE",
"698 1188 CURVE SMOOTH",
"799 1188 OFFCURVE",
"845 1282 OFFCURVE",
"855 1390 CURVE",
"773 1390 LINE",
"763 1321 OFFCURVE",
"738 1282 OFFCURVE",
"698 1282 CURVE SMOOTH",
"629 1282 OFFCURVE",
"568 1390 OFFCURVE"
);
}
);
width = 1133;
}
);
},
{
glyphname = uni00670303.a;
lastChange = "2015-01-07 12:25:14 +0000";
layers = (
{
layerId = "F1FC1B3B-4EE8-4ECF-8776-11160932002C";
name = Light;
paths = (
{
closed = 1;
nodes = (
"231 -246 CURVE",
"178 -345 LINE",
"280 -413 OFFCURVE",
"403 -453 OFFCURVE",
"529 -453 CURVE SMOOTH",
"800 -453 OFFCURVE",
"954 -305 OFFCURVE",
"954 -64 CURVE SMOOTH",
"954 990 LINE",
"837 990 LINE",
"826 899 LINE",
"820 899 LINE",
"735 973 OFFCURVE",
"653 1015 OFFCURVE",
"539 1015 CURVE SMOOTH",
"310 1015 OFFCURVE",
"105 820 OFFCURVE",
"105 509 CURVE SMOOTH",
"105 191 OFFCURVE",
"264 6 OFFCURVE",
"513 6 CURVE SMOOTH",
"636 6 OFFCURVE",
"741 71 OFFCURVE",
"820 147 CURVE",
"818 -56 LINE",
"814 -232 OFFCURVE",
"720 -341 OFFCURVE",
"529 -341 CURVE SMOOTH",
"432 -341 OFFCURVE",
"330 -314 OFFCURVE"
);
},
{
closed = 1;
nodes = (
"540 121 CURVE SMOOTH",
"352 121 OFFCURVE",
"245 274 OFFCURVE",
"245 510 CURVE SMOOTH",
"245 734 OFFCURVE",
"382 899 OFFCURVE",
"556 899 CURVE SMOOTH",
"644 899 OFFCURVE",
"725 868 OFFCURVE",
"818 785 CURVE",
"818 269 LINE",
"725 171 OFFCURVE",
"639 121 OFFCURVE"
);
},
{
closed = 1;
nodes = (
"310 1188 CURVE",
"392 1188 LINE",
"403 1258 OFFCURVE",
"427 1295 OFFCURVE",
"468 1295 CURVE SMOOTH",
"538 1295 OFFCURVE",
"597 1188 OFFCURVE",
"698 1188 CURVE SMOOTH",
"799 1188 OFFCURVE",
"845 1282 OFFCURVE",
"855 1390 CURVE",
"773 1390 LINE",
"763 1321 OFFCURVE",
"738 1282 OFFCURVE",
"698 1282 CURVE SMOOTH",
"629 1282 OFFCURVE",
"568 1390 OFFCURVE",
"467 1390 CURVE SMOOTH",
"366 1390 OFFCURVE",
"320 1296 OFFCURVE"
);
}
);
width = 1133;
}
);
},
{
glyphname = ordfeminine;
lastChange = "2015-01-16 19:41:48 +0000";
layers = (
{
hints = (
{
horizontal = 1;
origin = "{0, 0}";
target = "{0, 0}";
type = Tag;
name = hr00;
}
);
layerId = "F1FC1B3B-4EE8-4ECF-8776-11160932002C";
name = Light;
paths = (
{
closed = 1;
nodes = (
"281 516 CURVE SMOOTH",
"367 516 OFFCURVE",
"436 561 OFFCURVE",
"492 610 CURVE",
"501 610 LINE",
"514 532 LINE",
"599 532 LINE",
"599 937 LINE",
"599 1104 OFFCURVE",
"535 1205 OFFCURVE",
"374 1205 CURVE SMOOTH",
"267 1205 OFFCURVE",
"169 1157 OFFCURVE",
"107 1117 CURVE",
"148 1043 LINE",
"200 1076 OFFCURVE",
"284 1116 OFFCURVE",
"360 1116 CURVE SMOOTH",
"463 1116 OFFCURVE",
"491 1044 OFFCURVE",
"493 949 CURVE",
"207 923 OFFCURVE",
"80 850 OFFCURVE",
"80 706 CURVE SMOOTH",
"80 591 OFFCURVE",
"162 516 OFFCURVE"
);
},
{
closed = 1;
nodes = (
"310 603 CURVE SMOOTH",
"235 603 OFFCURVE",
"187 638 OFFCURVE",
"187 715 CURVE SMOOTH",
"187 797 OFFCURVE",
"265 856 OFFCURVE",
"493 880 CURVE",
"493 693 LINE",
"428 632 OFFCURVE",
"369 603 OFFCURVE"
);
}
);
width = 700;
}
);
unicode = 00AA;
userData = {
com.adobe.type.autohint = "ICA8aGludFNldExpc3Q+CiAgICA8aGludHNldCBw";
};
},
{
glyphname = ordmasculine;
lastChange = "2015-01-16 19:41:48 +0000";
layers = (
{
hints = (
{
horizontal = 1;
origin = "{0, 0}";
target = "{0, 0}";
type = Tag;
name = hr00;
}
);
layerId = "F1FC1B3B-4EE8-4ECF-8776-11160932002C";
name = Light;
paths = (
{
closed = 1;
nodes = (
"371 516 CURVE SMOOTH",
"537 516 OFFCURVE",
"677 644 OFFCURVE",
"677 860 CURVE SMOOTH",
"677 1079 OFFCURVE",
"537 1205 OFFCURVE",
"371 1205 CURVE SMOOTH",
"202 1205 OFFCURVE",
"64 1079 OFFCURVE",
"64 860 CURVE SMOOTH",
"64 644 OFFCURVE",
"202 516 OFFCURVE"
);
},
{
closed = 1;
nodes = (
"371 606 CURVE SMOOTH",
"250 606 OFFCURVE",
"172 710 OFFCURVE",
"172 860 CURVE SMOOTH",
"172 1014 OFFCURVE",
"250 1116 OFFCURVE",
"371 1116 CURVE SMOOTH",
"490 1116 OFFCURVE",
"567 1014 OFFCURVE",
"567 860 CURVE SMOOTH",
"567 710 OFFCURVE",
"490 606 OFFCURVE"
);
}
);
width = 743;
}
);
unicode = 00BA;
userData = {
com.adobe.type.autohint = "ICA8aGludFNldExpc3Q+CiAgICA8aGludHNldCBw";
};
},
{
glyphname = ordfeminine.a;
lastChange = "2015-01-16 19:41:48 +0000";
layers = (
{
hints = (
{
horizontal = 1;
origin = "{0, 0}";
target = "{0, 0}";
type = Tag;
name = hr01;
},
{
horizontal = 1;
origin = "{0, 3}";
target = "{0, 0}";
type = Tag;
name = hr02;
},
{
horizontal = 1;
origin = "{1, 0}";
target = "{0, 0}";
type = Tag;
name = hr04;
},
{
horizontal = 1;
origin = "{1, 10}";
target = "{0, 0}";
type = Tag;
name = hr05;
},
{
horizontal = 1;
origin = "{1, 12}";
target = "{0, 0}";
type = Tag;
name = hr06;
}
);
layerId = "F1FC1B3B-4EE8-4ECF-8776-11160932002C";
name = Light;
paths = (
{
closed = 1;
nodes = (
"181 872 CURVE SMOOTH",
"181 1015 OFFCURVE",
"268 1116 OFFCURVE",
"372 1116 CURVE SMOOTH",
"425 1116 OFFCURVE",
"483 1095 OFFCURVE",
"542 1042 CURVE",
"542 698 LINE",
"481 639 OFFCURVE",
"430 609 OFFCURVE",
"374 609 CURVE SMOOTH",
"242 609 OFFCURVE",
"181 705 OFFCURVE"
);
},
{
closed = 1;
nodes = (
"71 868 CURVE SMOOTH",
"71 644 OFFCURVE",
"177 516 OFFCURVE",
"351 516 CURVE SMOOTH",
"430 516 OFFCURVE",
"488 558 OFFCURVE",
"543 606 CURVE",
"551 606 LINE",
"561 532 LINE",
"648 532 LINE",
"648 1189 LINE",
"566 1189 LINE",
"555 1124 LINE",
"547 1124 LINE",
"491 1176 OFFCURVE",
"431 1205 OFFCURVE",
"360 1205 CURVE SMOOTH",
"209 1205 OFFCURVE",
"71 1076 OFFCURVE"
);
}
);
width = 760;
}
);
userData = {
com.adobe.type.autohint = "ICA8aGludFNldExpc3Q+CiAgICA8aGludHNldCBw";
};
},
{
glyphname = pi;
lastChange = "2015-01-15 10:08:19 +0000";
layers = (
{
layerId = "F1FC1B3B-4EE8-4ECF-8776-11160932002C";
name = Light;
paths = (
{
closed = 1;
nodes = (
"227 0 LINE",
"363 0 LINE",
"363 874 LINE",
"768 874 LINE",
"768 208 LINE",
"768 64 OFFCURVE",
"816 -25 OFFCURVE",
"947 -25 CURVE SMOOTH",
"986 -25 OFFCURVE",
"1016 -19 OFFCURVE",
"1049 -5 CURVE",
"1029 102 LINE",
"1008 94 OFFCURVE",
"993 90 OFFCURVE",
"978 90 CURVE SMOOTH",
"929 90 OFFCURVE",
"905 133 OFFCURVE",
"905 196 CURVE SMOOTH",
"905 874 LINE",
"1061 874 LINE",
"1061 990 LINE",
"191 990 LINE",
"51 981 LINE",
"51 874 LINE",
"227 874 LINE"
);
}
);
width = 1126;
}
);
unicode = 03C0;
},
{
glyphname = "a-deva";
lastChange = "2015-01-07 12:25:14 +0000";
layers = (
{
anchors = (
{
name = bottom;
position = "{1102, 28}";
},
{
name = top;
position = "{1101, 1168}";
},
{
name = topcandra;
position = "{1100, 1168}";
}
);
layerId = "F1FC1B3B-4EE8-4ECF-8776-11160932002C";
name = Light;
paths = (
{
closed = 1;
nodes = (
"332 727 LINE",
"520 671 OFFCURVE",
"598 598 OFFCURVE",
"598 468 CURVE SMOOTH",
"598 326 OFFCURVE",
"501 264 OFFCURVE",
"371 264 CURVE SMOOTH",
"268 264 OFFCURVE",
"162 301 OFFCURVE",
"54 400 CURVE",
"-12 320 LINE",
"111 200 OFFCURVE",
"246 150 OFFCURVE",
"384 150 CURVE SMOOTH",
"570 150 OFFCURVE",
"727 264 OFFCURVE",
"727 461 CURVE SMOOTH",
"727 622 OFFCURVE",
"616 736 OFFCURVE",
"404 763 CURVE"
);
},
{
closed = 1;
nodes = (
"277 1268 OFFCURVE",
"194 1246 OFFCURVE",
"107 1208 CURVE",
"144 1109 LINE",
"228 1143 OFFCURVE",
"301 1159 OFFCURVE",
"365 1159 CURVE SMOOTH",
"468 1159 OFFCURVE",
"554 1126 OFFCURVE",
"554 996 CURVE SMOOTH",
"554 881 OFFCURVE",
"480 814 OFFCURVE",
"322 782 CURVE SMOOTH",
"299 777 OFFCURVE",
"275 772 OFFCURVE",
"236 768 CURVE",
"245 667 LINE",
"322 669 OFFCURVE",
"417 686 OFFCURVE",
"499 731 CURVE SMOOTH",
"618 792 OFFCURVE",
"674 883 OFFCURVE",
"674 1008 CURVE SMOOTH",
"674 1175 OFFCURVE",
"555 1268 OFFCURVE",
"369 1268 CURVE SMOOTH"
);
},
{
closed = 1;
nodes = (
"944 688 OFFCURVE",
"767 652 OFFCURVE",
"634 650 CURVE",
"676 558 LINE",
"781 557 OFFCURVE",
"961 585 OFFCURVE",
"1078 660 CURVE",
"1071 781 LINE"
);
},
{
closed = 1;
nodes = (
"1038 1196 LINE",
"1038 0 LINE",
"1165 0 LINE",
"1165 1196 LINE"
);
},
{
closed = 1;
nodes = (
"836 1247 LINE",
"836 1143 LINE",
"1391 1143 LINE",
"1391 1247 LINE"
);
}
);
width = 1378;
}
);
unicode = 0905;
},
{
glyphname = "i-deva";
lastChange = "2015-01-07 12:25:14 +0000";
layers = (
{
anchors = (
{
name = bottom;
position = "{680, 20}";
},
{
name = top;
position = "{739, 1168}";
},
{
name = topcandra;
position = "{528, 1167}";
}
);
layerId = "F1FC1B3B-4EE8-4ECF-8776-11160932002C";
name = Light;
paths = (
{
closed = 1;
nodes = (
"-12 1247 LINE",
"-12 1143 LINE",
"993 1143 LINE",
"993 1247 LINE"
);
},
{
closed = 1;
nodes = (
"669 1195 LINE",
"669 809 LINE",
"794 809 LINE",
"794 1195 LINE"
);
},
{
closed = 1;
nodes = (
"346 921 LINE SMOOTH",
"187 919 OFFCURVE",
"101 850 OFFCURVE",
"101 720 CURVE SMOOTH",
"101 615 OFFCURVE",
"149 490 OFFCURVE",
"206 436 CURVE SMOOTH",
"225 419 OFFCURVE",
"251 401 OFFCURVE",
"289 407 CURVE SMOOTH",
"343 415 OFFCURVE",
"525 437 OFFCURVE",
"618 437 CURVE SMOOTH",
"755 437 OFFCURVE",
"804 382 OFFCURVE",
"800 282 CURVE SMOOTH",
"796 168 OFFCURVE",
"707 92 OFFCURVE",
"508 92 CURVE SMOOTH",
"407 92 OFFCURVE",
"317 108 OFFCURVE",
"231 154 CURVE",
"298 97 LINE",
"208 280 LINE",
"88 247 LINE",
"85 228 OFFCURVE",
"83 208 OFFCURVE",
"83 193 CURVE SMOOTH",
"83 83 OFFCURVE",
"177 36 OFFCURVE",
"285 2 CURVE",
"284 29 LINE",
"351 -5 OFFCURVE",
"433 -19 OFFCURVE",
"516 -19 CURVE",
"736 -19 OFFCURVE",
"919 80 OFFCURVE",
"919 301 CURVE SMOOTH",
"919 510 OFFCURVE",
"777 553 OFFCURVE",
"628 552 CURVE SMOOTH",
"510 552 OFFCURVE",
"314 531 OFFCURVE",
"251 514 CURVE",
"282 498 LINE",
"239 548 OFFCURVE",
"218 627 OFFCURVE",
"218 686 CURVE SMOOTH",
"218 762 OFFCURVE",
"246 809 OFFCURVE",
"379 809 CURVE SMOOTH",
"747 809 LINE",
"733 921 LINE"
);
},
{
closed = 1;
nodes = (
"205 86 LINE",
"432 -319 LINE",
"536 -257 LINE",
"279 102 LINE"
);
}
);
width = 980;
}
);
unicode = 0907;
},
{
glyphname = "u-deva";
lastChange = "2015-01-07 12:25:14 +0000";
layers = (
{
anchors = (
{
name = bottom;
position = "{432, 40}";
},
{
name = top;
position = "{451, 1168}";
}
);
layerId = "F1FC1B3B-4EE8-4ECF-8776-11160932002C";
name = Light;
paths = (
{
closed = 1;
nodes = (
"366 647 LINE",
"562 588 OFFCURVE",
"665 501 OFFCURVE",
"665 356 CURVE SMOOTH",
"665 197 OFFCURVE",
"550 120 OFFCURVE",
"406 120 CURVE SMOOTH",
"279 120 OFFCURVE",
"164 188 OFFCURVE",
"90 255 CURVE",
"28 178 LINE",
"120 84 OFFCURVE",
"259 9 OFFCURVE",
"419 9 CURVE SMOOTH",
"621 9 OFFCURVE",
"791 133 OFFCURVE",
"791 351 CURVE SMOOTH",
"791 525 OFFCURVE",
"671 647 OFFCURVE",
"440 687 CURVE"
);
},
{
closed = 1;
nodes = (
"385 1146 LINE",
"492 1146 OFFCURVE",
"614 1087 OFFCURVE",
"614 943 CURVE SMOOTH",
"614 815 OFFCURVE",
"538 732 OFFCURVE",
"355 695 CURVE SMOOTH",
"329 689 OFFCURVE",
"309 685 OFFCURVE",
"259 680 CURVE",
"275 580 LINE",
"363 584 OFFCURVE",
"465 604 OFFCURVE",
"547 649 CURVE SMOOTH",
"675 716 OFFCURVE",
"736 810 OFFCURVE",
"736 939 CURVE SMOOTH",
"736 1139 OFFCURVE",
"559 1201 OFFCURVE",
"392 1197 CURVE"
);
},
{
closed = 1;
nodes = (
"890 1247 LINE",
"-12 1247 LINE",
"-12 1143 LINE",
"890 1143 LINE"
);
}
);
width = 877;
}
);
unicode = 0909;
},
{
glyphname = "uu-deva";
lastChange = "2015-01-07 12:25:14 +0000";
layers = (
{
anchors = (
{
name = bottom;
position = "{701, 28}";
},
{
name = top;
position = "{509, 1168}";
},
{
name = topcandra;
position = "{798, 1167}";
}
);
components = (
{
name = "u-deva";
transform = "{1, 0, 0, 1, 0, 0}";
}
);
layerId = "F1FC1B3B-4EE8-4ECF-8776-11160932002C";
name = Light;
paths = (
{
closed = 1;
nodes = (
"530 1247 LINE",
"530 1143 LINE",
"1369 1143 LINE",
"1369 1247 LINE"
);
},
{
closed = 1;
nodes = (
"912 720 OFFCURVE",
"816 675 OFFCURVE",
"724 527 CURVE",
"747 351 LINE",
"839 548 OFFCURVE",
"916 610 OFFCURVE",
"1017 610 CURVE SMOOTH",
"1117 610 OFFCURVE",
"1168 544 OFFCURVE",
"1168 432 CURVE SMOOTH",
"1168 343 OFFCURVE",
"1131 236 OFFCURVE",
"1053 132 CURVE",
"1141 64 LINE",
"1247 189 OFFCURVE",
"1284 323 OFFCURVE",
"1284 428 CURVE SMOOTH",
"1284 612 OFFCURVE",
"1172 720 OFFCURVE",
"1020 720 CURVE SMOOTH"
);
}
);
width = 1356;
}
);
unicode = 090A;
},
